if (_typeface_js && _typeface_js.loadFace) _typeface_js.loadFace({"glyphs":{"0":{"ha":991,"x_min":0,"x_max":0,"o":"m 479 -20 b 876 547 741 -20 876 237 b 479 1107 876 877 734 1107 b 77 547 234 1107 77 877 b 479 -20 77 237 215 -20 z m 483 119 b 231 547 306 119 231 337 b 483 968 231 798 317 968 b 723 547 648 968 723 771 b 483 119 723 337 656 119 z "},"1":{"ha":692,"x_min":0,"x_max":0,"o":"m 300 60 b 392 -14 300 13 321 -14 b 472 60 456 -14 472 20 b 468 96 472 72 470 83 b 458 696 450 196 458 515 b 460 991 458 806 459 914 b 467 1027 460 1003 467 1014 b 389 1114 467 1066 441 1114 b 260 1059 356 1114 315 1093 b 138 990 227 1039 182 1013 b 83 916 101 972 83 947 b 160 841 83 872 115 841 b 307 911 211 841 264 890 b 309 199 309 538 309 376 b 300 60 309 146 300 103 z "},"2":{"ha":1034,"x_min":0,"x_max":0,"o":"m 85 65 b 165 0 85 29 121 0 l 751 0 b 879 -8 798 -1 838 -8 b 951 64 911 -8 951 7 b 885 144 951 111 921 144 b 799 134 854 144 827 134 b 585 132 720 134 652 132 b 397 130 548 132 446 131 b 869 766 578 251 869 499 b 488 1107 869 980 699 1107 b 92 764 298 1107 92 993 b 203 603 92 713 118 603 b 279 669 237 603 279 629 b 258 735 279 703 271 715 b 245 758 252 745 248 751 b 488 970 252 893 357 970 b 711 768 598 970 711 893 b 164 153 711 492 336 268 l 165 153 b 85 65 123 130 85 111 z "},"3":{"ha":1144,"x_min":0,"x_max":0,"o":"m 138 320 b 577 -21 138 106 347 -21 b 1002 334 805 -21 1002 107 b 649 645 1002 535 845 660 b 920 987 730 724 884 943 b 939 1043 932 1004 939 1023 b 863 1107 939 1085 908 1107 l 287 1107 b 211 1034 235 1107 211 1067 b 295 962 211 997 240 962 l 714 962 b 477 649 667 895 547 718 b 445 581 463 635 445 597 b 515 505 445 542 465 505 b 627 522 555 505 589 522 b 839 327 736 522 839 469 b 579 116 839 187 711 116 b 298 309 423 116 298 205 b 312 418 298 348 312 382 b 231 494 312 479 265 494 b 138 320 149 494 138 393 z "},"4":{"ha":1053,"x_min":0,"x_max":0,"o":"m 98 209 b 178 224 106 209 147 210 l 176 224 b 468 227 237 227 359 227 l 642 227 b 643 -45 643 135 643 59 b 719 -115 643 -94 688 -115 b 795 -45 751 -115 795 -94 b 794 225 795 37 795 136 b 895 224 831 225 865 224 b 963 298 944 224 963 269 b 886 370 963 329 934 370 b 794 369 855 369 825 369 l 794 481 b 793 699 794 543 793 633 b 717 774 793 748 752 774 b 641 699 682 774 641 748 b 642 367 641 590 641 473 b 293 363 524 365 405 363 b 498 1002 380 465 498 772 b 419 1133 498 1093 484 1133 b 340 1057 384 1133 340 1107 b 338 871 340 958 340 906 b 114 369 324 681 230 493 b 12 286 69 367 12 352 b 98 209 12 227 60 209 z "},"5":{"ha":1149,"x_min":0,"x_max":0,"o":"m 152 296 b 550 -21 152 108 366 -21 b 972 374 758 -21 972 106 b 568 758 972 593 824 758 b 351 705 504 758 413 741 l 391 970 b 825 967 541 970 743 970 b 908 1039 879 966 908 1000 b 832 1107 908 1071 884 1107 l 320 1107 b 235 962 248 1106 241 1035 l 235 963 b 203 649 210 759 208 673 b 174 558 187 623 174 595 b 246 481 174 518 202 481 b 340 568 301 481 333 517 b 558 621 402 604 475 621 b 814 365 734 621 814 492 b 569 114 814 197 694 114 b 290 315 381 114 316 233 b 221 372 279 349 251 371 b 152 296 173 367 152 340 z "},"6":{"ha":1033,"x_min":0,"x_max":0,"o":"m 85 476 b 519 -21 85 226 201 -21 b 919 377 795 -21 919 205 b 536 764 919 630 772 764 b 251 647 456 764 328 726 b 546 975 286 842 395 975 b 663 962 616 975 647 970 b 734 938 680 954 692 938 b 807 1008 769 938 807 960 b 764 1078 807 1042 793 1061 b 557 1117 709 1107 637 1117 b 85 476 252 1117 85 831 z m 245 399 l 245 460 b 536 633 292 580 435 633 b 769 378 652 633 769 563 b 515 116 769 193 625 116 b 245 399 342 116 245 256 z "},"7":{"ha":803,"x_min":0,"x_max":0,"o":"m 256 66 b 341 -21 256 7 302 -21 b 436 103 415 -21 433 45 b 704 970 593 625 656 836 b 713 1025 710 989 713 1008 b 634 1107 713 1086 666 1107 l 151 1107 b 38 1034 92 1107 38 1099 b 123 954 38 977 72 954 b 222 962 128 954 138 954 b 542 962 429 962 491 962 b 286 153 403 501 345 304 b 256 66 273 130 256 98 z "},"8":{"ha":1032,"x_min":0,"x_max":0,"o":"m 106 317 b 508 -21 106 104 311 -21 b 911 317 719 -21 911 103 b 689 570 911 442 833 509 b 840 825 775 627 840 725 b 505 1107 840 1011 703 1107 b 165 827 309 1107 165 1006 b 323 577 165 709 235 627 b 106 317 201 534 106 446 z m 519 634 b 319 826 421 673 319 737 b 506 970 319 939 418 970 b 686 825 595 970 686 932 b 519 634 686 738 612 657 z m 267 326 b 475 498 267 426 366 475 b 759 313 597 460 759 408 b 505 121 759 180 636 121 b 267 326 380 121 267 199 z "},"9":{"ha":1029,"x_min":0,"x_max":0,"o":"m 213 96 b 471 -20 213 0 393 -20 b 926 627 802 -20 926 321 b 491 1107 926 878 808 1107 b 85 726 216 1107 85 917 b 479 334 85 468 264 334 b 762 446 559 334 685 358 b 476 122 737 262 630 122 b 364 140 396 122 388 127 b 286 165 345 153 326 165 b 213 96 251 165 213 145 z m 479 473 b 235 741 364 473 235 523 b 494 974 235 903 370 974 b 766 705 665 974 766 848 l 766 656 b 479 473 719 536 581 473 z "},"\u0000":{"ha":0,"x_min":0,"x_max":0,"o":""},"\u0001":{"ha":0,"x_min":0,"x_max":0,"o":""},"\u0002":{"ha":0,"x_min":0,"x_max":0,"o":""},"\u0003":{"ha":0,"x_min":0,"x_max":0,"o":""},"\u0004":{"ha":0,"x_min":0,"x_max":0,"o":""},"\u0005":{"ha":0,"x_min":0,"x_max":0,"o":""},"\u0006":{"ha":0,"x_min":0,"x_max":0,"o":""},"\u0007":{"ha":0,"x_min":0,"x_max":0,"o":""},"\b":{"ha":0,"x_min":0,"x_max":0,"o":""},"\t":{"ha":0,"x_min":0,"x_max":0,"o":""},"\n":{"ha":0,"x_min":0,"x_max":0,"o":""},"\r":{"ha":0,"x_min":0,"x_max":0,"o":""},"\u0010":{"ha":0,"x_min":0,"x_max":0,"o":""},"\u0011":{"ha":0,"x_min":0,"x_max":0,"o":""},"\u0012":{"ha":0,"x_min":0,"x_max":0,"o":""},"\u0013":{"ha":0,"x_min":0,"x_max":0,"o":""},"\u0014":{"ha":0,"x_min":0,"x_max":0,"o":""},"\u0015":{"ha":0,"x_min":0,"x_max":0,"o":""},"\u0016":{"ha":0,"x_min":0,"x_max":0,"o":""},"\u0017":{"ha":0,"x_min":0,"x_max":0,"o":""},"\u0018":{"ha":0,"x_min":0,"x_max":0,"o":""},"\u0019":{"ha":0,"x_min":0,"x_max":0,"o":""},"\u001e":{"ha":0,"x_min":0,"x_max":0,"o":""},"\u001f":{"ha":0,"x_min":0,"x_max":0,"o":""}," ":{"ha":522,"x_min":0,"x_max":0,"o":""},"!":{"ha":423,"x_min":0,"x_max":0,"o":"m 215 342 b 294 408 262 342 294 366 b 288 472 294 434 288 452 b 296 1213 288 730 296 1095 b 218 1289 296 1269 256 1289 b 131 1217 154 1289 131 1255 b 147 474 131 962 147 718 b 143 411 147 452 143 432 b 215 342 143 365 178 342 z m 127 58 b 203 -21 127 27 154 -21 b 293 126 253 -21 293 33 b 210 204 293 177 256 204 b 127 58 146 204 130 158 z "},"\"":{"ha":656,"x_min":0,"x_max":0,"o":"m 186 723 b 263 788 234 723 263 746 b 258 890 263 827 258 858 b 262 979 258 920 260 951 b 268 1070 265 1009 268 1039 b 189 1144 268 1125 228 1144 b 102 1073 125 1144 102 1110 b 108 981 102 1040 105 1010 b 113 893 111 952 113 923 b 109 791 113 856 109 824 b 186 723 109 745 151 723 z m 472 723 b 549 788 519 723 549 746 b 543 890 549 827 543 858 b 548 979 543 920 545 951 b 553 1070 551 1009 553 1039 b 474 1144 553 1125 513 1144 b 388 1073 411 1144 388 1110 b 393 981 388 1040 391 1010 b 398 893 396 952 398 923 b 395 791 398 856 395 824 b 472 723 395 745 437 723 z "},"#":{"ha":1052,"x_min":0,"x_max":0,"o":"m 175 38 b 260 -27 176 1 204 -27 b 328 47 308 -27 320 15 b 365 212 340 102 353 157 l 563 212 l 532 92 b 517 39 524 75 517 60 l 517 38 b 602 -27 518 1 546 -27 b 668 41 650 -27 659 8 b 703 212 680 90 689 140 l 849 212 b 915 294 890 212 915 244 b 845 373 915 355 870 373 b 797 365 828 373 813 365 l 733 365 b 773 556 744 418 758 481 l 920 556 b 985 637 960 556 985 587 b 915 716 985 700 941 716 b 867 709 898 716 883 709 l 807 709 b 837 842 816 750 826 794 l 837 841 b 863 943 842 854 863 920 b 786 1006 863 994 821 1006 b 706 894 736 1006 713 941 b 675 708 705 891 699 834 b 595 707 645 707 617 707 b 476 707 557 707 517 707 b 508 841 486 751 497 796 b 535 943 514 853 535 921 b 458 1006 535 994 494 1006 b 378 894 407 1006 386 941 b 340 706 377 891 368 833 l 231 706 b 135 644 168 706 135 699 b 202 557 135 572 170 557 b 306 556 227 556 261 556 b 259 363 293 499 277 436 b 127 361 192 363 141 361 b 64 300 100 357 64 342 b 132 213 64 228 100 213 b 221 212 151 213 185 212 b 190 92 212 174 201 134 b 175 39 182 75 175 60 z m 399 364 l 441 556 l 644 556 b 600 365 632 500 618 437 b 399 364 535 365 467 364 z "},"$":{"ha":948,"x_min":0,"x_max":0,"o":"m 153 220 b 417 -26 153 72 279 -7 b 416 -149 416 -68 416 -121 b 488 -208 416 -195 444 -208 b 561 -109 550 -208 561 -168 l 561 -25 b 834 267 703 -1 834 95 b 552 590 834 456 681 532 b 349 783 449 637 349 684 b 507 901 349 863 446 901 b 656 839 564 901 629 894 b 738 768 660 798 701 768 b 811 845 777 768 811 795 b 573 1043 811 968 678 1027 b 574 1136 574 1075 574 1112 b 503 1195 574 1183 545 1195 b 430 1097 440 1195 430 1155 l 430 1038 b 197 787 309 1008 197 920 b 467 472 197 587 342 523 b 682 266 564 433 682 383 b 488 115 682 151 583 115 b 304 221 404 115 304 142 b 311 269 304 236 307 252 b 317 326 314 286 317 304 b 244 396 317 368 286 396 b 153 220 153 396 153 301 z "},"%":{"ha":1713,"x_min":0,"x_max":0,"o":"m 558 54 b 647 -29 558 15 583 -29 b 718 42 699 -29 708 7 l 718 41 l 1090 1001 b 1109 1078 1097 1014 1109 1053 b 1032 1153 1109 1127 1069 1153 b 939 1034 972 1153 954 1090 l 939 1034 b 578 106 589 122 584 113 b 558 54 568 93 558 75 z m 452 500 b 741 816 623 500 741 655 b 556 1086 741 929 673 1038 b 536 1089 549 1088 544 1089 b 523 1088 533 1089 527 1088 b 419 1116 492 1114 454 1116 b 125 793 244 1116 125 947 b 452 500 125 610 300 500 z m 444 648 b 281 786 361 648 281 701 b 434 966 281 887 343 966 b 444 966 436 966 439 966 b 469 964 450 965 457 964 b 479 965 473 964 477 964 b 585 818 538 945 585 881 b 444 648 585 743 533 648 z m 934 283 b 1262 -12 934 92 1108 -12 b 1550 304 1432 -12 1550 144 b 1365 574 1550 418 1482 527 b 1345 577 1358 576 1352 577 b 1333 576 1341 577 1336 576 b 1228 604 1301 604 1263 604 b 934 283 1053 604 934 436 z m 1090 275 b 1242 455 1090 375 1152 455 b 1253 454 1245 455 1248 455 b 1278 452 1259 454 1266 452 b 1289 454 1282 452 1286 452 b 1394 306 1348 434 1394 370 b 1253 136 1394 231 1341 136 b 1090 275 1170 136 1090 189 z "},"&":{"ha":1297,"x_min":0,"x_max":0,"o":"m 179 272 b 524 -20 179 98 311 -20 b 825 73 614 -20 733 5 b 873 35 842 60 859 47 b 1027 -41 918 1 968 -41 b 1104 33 1082 -41 1104 2 b 1040 95 1104 64 1078 94 b 935 156 994 112 970 129 b 1096 519 1042 245 1096 381 b 991 667 1096 583 1076 667 b 912 591 933 667 912 620 b 943 523 912 551 928 536 b 954 511 947 519 951 514 b 819 243 952 410 911 307 b 578 503 734 315 649 410 b 816 808 701 577 816 659 b 555 1061 816 983 682 1061 b 273 794 419 1061 273 962 b 381 536 273 694 321 614 b 179 272 274 465 179 407 z m 498 612 b 422 788 460 664 422 726 b 552 928 422 884 488 928 b 671 803 616 928 671 890 b 498 612 671 725 591 667 z m 331 269 b 466 425 331 336 383 371 b 706 168 527 345 623 245 b 534 117 650 130 581 117 b 331 269 448 117 331 154 z "},"'":{"ha":370,"x_min":0,"x_max":0,"o":"m 186 723 b 263 788 234 723 263 746 b 258 890 263 827 258 858 b 262 979 258 920 260 951 b 268 1070 265 1009 268 1039 b 189 1144 268 1125 228 1144 b 102 1073 125 1144 102 1110 b 108 981 102 1040 105 1010 b 113 893 111 952 113 923 b 109 791 113 856 109 824 b 186 723 109 745 151 723 z "},"(":{"ha":688,"x_min":0,"x_max":0,"o":"m 435 -189 b 521 -215 464 -204 495 -215 b 591 -146 565 -215 591 -195 b 492 -66 591 -113 581 -81 b 221 505 398 -20 221 121 b 547 1107 221 925 446 1069 b 610 1177 589 1123 610 1143 b 538 1241 610 1219 581 1241 b 72 507 387 1241 72 973 b 435 -189 72 298 140 -33 z "},")":{"ha":688,"x_min":0,"x_max":0,"o":"m 259 -189 b 623 507 554 -33 623 298 b 156 1241 623 973 308 1241 b 84 1177 113 1241 84 1219 b 147 1107 84 1143 105 1123 b 473 505 249 1069 473 925 b 203 -66 473 121 296 -20 b 103 -146 113 -81 103 -113 b 174 -215 103 -195 130 -215 b 259 -189 199 -215 231 -204 z "},"*":{"ha":803,"x_min":0,"x_max":0,"o":"m 239 749 b 298 778 255 749 286 764 b 374 889 336 816 359 864 b 395 850 383 875 389 863 b 501 735 425 795 456 735 b 576 802 528 735 576 748 b 487 963 572 873 522 912 b 612 1005 496 967 501 968 b 686 1088 637 1015 686 1043 b 616 1154 686 1133 655 1154 b 524 1125 586 1154 555 1139 b 451 1095 511 1119 498 1112 b 457 1211 456 1153 457 1175 b 387 1294 457 1262 437 1294 b 307 1211 346 1294 307 1261 b 311 1099 307 1171 311 1135 b 168 1152 238 1134 188 1152 b 94 1090 134 1152 94 1130 b 162 1009 94 1038 125 1022 b 265 970 172 1005 221 987 b 163 823 226 925 163 886 b 239 749 163 767 191 749 z "},"+":{"ha":803,"x_min":0,"x_max":0,"o":"m 313 243 b 393 178 313 203 345 178 b 472 247 455 178 472 222 l 463 296 b 463 414 463 319 463 353 b 530 414 496 414 514 414 b 641 413 570 413 608 413 b 707 493 682 413 707 444 b 637 570 707 555 661 570 l 589 563 l 464 563 b 465 665 464 593 464 627 l 465 714 b 397 812 465 773 452 812 b 317 745 324 812 317 777 l 315 563 l 168 564 b 71 503 110 564 71 559 b 138 418 71 433 106 418 l 314 416 b 313 357 314 387 313 371 b 313 243 313 316 313 277 z "},",":{"ha":399,"x_min":0,"x_max":0,"o":"m 102 -66 b 83 -112 94 -79 83 -94 b 147 -176 83 -147 106 -176 b 234 -116 184 -176 220 -138 b 300 83 272 -54 300 31 b 209 205 300 149 283 205 b 116 85 136 205 116 140 b 132 9 116 67 122 28 b 102 -66 125 -15 119 -39 z "},"-":{"ha":803,"x_min":0,"x_max":0,"o":"m 138 418 b 556 414 450 414 503 414 b 641 413 592 414 618 413 b 707 493 682 413 707 444 b 637 570 707 555 671 570 b 589 563 616 570 602 568 l 168 564 b 71 503 110 564 71 559 b 138 418 71 433 106 418 z "},".":{"ha":399,"x_min":0,"x_max":0,"o":"m 115 66 b 199 -17 115 24 137 -17 b 283 111 264 -17 283 31 l 283 115 b 204 221 283 142 281 221 b 115 66 127 221 115 114 z "},"/":{"ha":688,"x_min":0,"x_max":0,"o":"m 77 10 l 77 11 b 51 -61 56 -16 51 -57 b 140 -136 51 -93 85 -136 b 212 -59 201 -136 210 -77 b 215 -40 212 -54 213 -47 b 612 1083 425 545 596 1027 b 613 1086 612 1084 613 1085 b 616 1107 614 1091 616 1101 b 536 1175 616 1144 586 1175 b 474 1129 500 1175 481 1149 b 77 10 219 415 123 146 z "},":":{"ha":399,"x_min":0,"x_max":0,"o":"m 115 66 b 199 -17 115 24 137 -17 b 283 111 264 -17 283 31 l 283 115 b 204 221 283 142 281 221 b 115 66 127 221 115 114 z m 115 526 b 199 442 115 483 137 442 b 283 570 264 442 283 490 l 283 574 b 204 680 283 602 281 680 b 115 526 127 680 115 573 z "},";":{"ha":399,"x_min":0,"x_max":0,"o":"m 113 526 b 197 442 113 483 135 442 b 281 570 262 442 281 490 l 281 574 b 202 680 281 602 279 680 b 113 526 125 680 113 573 z m 102 -66 b 83 -112 94 -79 83 -94 b 147 -176 83 -147 106 -176 b 234 -116 184 -176 220 -138 b 300 83 272 -54 300 31 b 209 205 300 149 283 205 b 116 85 136 205 116 140 b 132 9 116 67 122 28 b 102 -66 125 -15 119 -39 z "},"<":{"ha":803,"x_min":0,"x_max":0,"o":"m 131 340 b 510 153 207 308 450 184 b 572 132 526 142 546 132 b 642 213 620 132 642 176 b 573 286 642 265 593 283 l 322 405 l 585 528 l 585 527 b 640 596 615 540 640 550 b 572 681 640 635 606 681 b 507 653 549 681 519 663 b 157 494 381 598 271 541 b 96 422 115 482 96 469 b 131 340 96 393 105 351 z "},"=":{"ha":803,"x_min":0,"x_max":0,"o":"m 138 563 l 556 559 b 641 558 592 559 618 558 b 707 637 682 558 707 589 b 637 715 707 700 661 715 b 610 711 627 715 618 713 b 589 707 602 709 595 707 l 168 708 b 71 648 110 708 71 704 b 138 563 71 577 106 563 z m 138 224 l 556 220 b 641 220 592 220 618 220 b 707 300 682 220 707 251 b 637 377 707 361 661 377 b 610 373 627 377 618 375 b 589 369 602 371 595 369 l 168 370 b 71 310 110 370 71 366 b 138 224 71 239 106 224 z "},">":{"ha":803,"x_min":0,"x_max":0,"o":"m 667 334 b 701 416 692 345 701 387 b 640 488 701 463 682 476 b 291 647 526 534 416 592 b 226 675 278 657 248 675 b 157 590 192 675 157 629 b 212 521 157 544 182 534 l 212 522 l 475 399 l 224 279 b 155 207 204 277 155 259 b 225 125 155 170 178 125 b 288 146 252 125 271 136 b 667 334 348 178 591 302 z "},"?":{"ha":918,"x_min":0,"x_max":0,"o":"m 437 285 b 511 362 476 285 511 311 b 509 427 511 387 509 407 b 670 624 509 518 605 574 b 838 901 764 695 838 792 b 447 1206 838 1102 663 1206 b 76 948 233 1206 76 1115 b 197 768 76 880 127 768 b 271 836 237 768 271 793 b 249 895 271 859 259 877 b 229 951 236 915 229 929 b 448 1061 229 1028 313 1061 b 685 899 585 1061 685 1014 b 508 678 685 808 583 744 b 359 425 436 615 359 528 b 437 285 359 336 377 285 z m 340 58 b 415 -22 339 26 366 -22 b 504 127 466 -22 504 33 b 433 203 504 153 496 203 b 340 58 360 203 342 169 z "},"@":{"ha":1492,"x_min":0,"x_max":0,"o":"m 87 302 b 649 -292 87 -49 332 -292 b 977 -193 727 -292 932 -283 b 981 -174 980 -186 981 -179 b 912 -105 981 -146 954 -105 b 829 -129 873 -105 850 -117 b 672 -162 802 -144 766 -162 b 234 307 397 -162 234 9 b 806 890 234 593 439 890 b 1246 441 1053 890 1247 762 b 1082 132 1245 314 1200 132 b 1017 254 1036 132 1017 168 b 1034 423 1017 302 1024 361 b 1038 578 1041 471 1050 513 b 811 722 1022 673 958 722 b 411 289 520 722 411 467 b 652 5 411 111 507 5 b 899 146 785 5 851 68 b 1069 -5 926 37 1020 -5 b 1381 486 1330 -5 1381 280 b 813 1020 1381 725 1216 1020 b 87 302 407 1020 87 684 z m 558 305 b 790 597 558 434 646 597 b 905 498 867 597 905 580 b 667 130 905 293 757 130 b 558 305 596 130 558 197 z "},"A":{"ha":1063,"x_min":0,"x_max":0,"o":"m 24 52 b 109 -20 24 5 60 -20 b 202 60 181 -20 191 21 l 202 60 b 309 332 217 105 258 210 b 337 333 318 332 328 332 b 674 334 466 338 570 334 b 749 332 707 332 734 332 b 873 53 787 245 823 163 b 961 -20 878 13 912 -20 b 1040 56 1005 -20 1040 1 b 998 149 1040 92 1013 129 l 985 168 b 635 930 861 437 758 689 b 616 981 630 941 623 961 b 524 1067 601 1029 588 1067 b 441 985 473 1067 448 1025 b 52 140 363 830 115 244 b 24 52 31 111 24 81 z m 370 479 b 520 829 424 606 479 736 b 684 477 591 677 642 568 b 370 479 484 479 408 479 z "},"B":{"ha":1001,"x_min":0,"x_max":0,"o":"m 136 51 b 220 -3 141 13 172 -3 b 267 5 241 -3 256 0 b 446 -14 326 -7 414 -14 b 907 326 709 -14 907 23 b 840 496 907 385 879 449 b 744 562 828 511 789 543 b 836 767 797 612 836 684 b 484 1059 836 1057 581 1059 b 347 1053 437 1059 392 1055 b 212 1050 302 1051 257 1050 b 135 955 146 1049 135 1031 l 143 863 b 144 127 144 506 148 316 b 136 51 139 105 132 75 z m 295 605 l 295 614 b 296 907 296 719 297 814 b 295 911 296 909 295 910 l 295 913 b 481 917 399 917 455 917 b 684 760 623 917 684 875 b 392 597 684 623 607 597 b 295 605 365 597 328 601 z m 295 142 b 294 467 295 197 294 250 b 574 473 450 468 512 473 b 757 302 646 473 757 431 b 488 127 757 146 611 127 b 295 142 380 127 338 134 z "},"C":{"ha":1014,"x_min":0,"x_max":0,"o":"m 74 513 b 597 -20 74 231 264 -20 b 847 37 694 -20 808 15 l 847 37 b 928 132 904 64 928 95 b 852 203 928 186 895 203 b 781 168 825 203 808 191 b 591 127 753 149 671 127 b 226 534 414 127 226 233 b 583 921 226 804 413 921 b 746 895 633 921 682 922 b 831 861 770 878 806 861 b 913 944 867 861 913 880 b 821 1027 913 1000 865 1012 b 598 1067 749 1053 675 1067 b 74 513 346 1067 74 903 z "},"D":{"ha":1106,"x_min":0,"x_max":0,"o":"m 155 79 b 232 3 155 28 177 3 b 439 -13 304 3 372 -13 b 1012 564 879 -13 1012 333 b 474 1067 1012 823 874 1067 b 284 1057 410 1067 347 1057 b 205 1067 255 1057 231 1067 b 134 998 153 1067 134 1037 b 153 938 134 982 143 957 b 161 210 160 692 161 450 b 155 79 161 157 155 121 z m 307 149 l 302 910 b 449 916 344 913 414 916 b 856 528 711 916 856 829 b 448 137 856 413 784 137 b 307 149 421 137 345 139 z "},"E":{"ha":896,"x_min":0,"x_max":0,"o":"m 134 77 b 215 0 134 21 169 0 l 671 0 b 794 81 734 0 794 3 b 699 150 794 135 752 150 b 637 144 675 150 656 147 b 568 138 617 141 595 138 b 291 142 469 138 380 142 l 291 548 l 717 549 b 803 619 767 549 803 571 b 726 694 803 650 775 694 b 663 690 701 694 679 692 b 627 687 650 688 637 687 b 291 688 326 687 309 687 l 291 903 l 354 903 b 583 903 380 903 408 903 b 629 901 601 901 618 901 b 711 981 673 901 711 911 b 629 1054 711 1029 697 1054 b 580 1048 621 1054 596 1049 l 222 1048 b 134 958 179 1048 134 1047 l 150 146 l 144 125 b 134 77 140 111 134 92 z "},"F":{"ha":893,"x_min":0,"x_max":0,"o":"m 146 66 b 221 -20 146 7 172 -20 b 313 60 294 -20 313 12 b 296 168 313 98 296 132 l 296 509 l 737 509 b 823 580 787 509 823 532 b 747 654 823 611 795 654 b 704 654 737 654 719 654 b 680 653 696 654 688 653 b 296 648 609 651 496 648 l 292 906 l 666 905 b 769 983 734 905 769 920 b 665 1048 769 1028 741 1048 l 291 1048 b 263 1050 281 1048 272 1048 b 195 1054 248 1052 231 1054 b 134 960 157 1054 134 1021 l 150 180 b 146 66 149 140 144 102 z "},"G":{"ha":1140,"x_min":0,"x_max":0,"o":"m 100 513 b 694 -14 100 231 309 -14 b 864 0 745 -14 812 0 b 982 107 926 0 981 3 b 987 517 982 361 985 460 b 989 570 987 536 989 553 b 905 640 989 612 958 640 b 819 570 840 640 819 597 b 826 468 819 532 826 500 b 831 139 829 376 831 317 b 715 132 791 132 747 132 b 255 539 492 132 255 222 b 593 919 255 810 445 919 b 878 872 667 919 807 909 b 907 866 886 868 901 866 b 972 951 941 866 972 901 b 913 1029 972 996 946 1017 b 627 1067 829 1063 706 1067 b 100 513 326 1067 100 883 z "},"H":{"ha":1069,"x_min":0,"x_max":0,"o":"m 149 50 b 236 -20 149 4 164 -20 b 316 50 300 -20 316 9 b 312 127 316 83 315 102 b 296 561 307 178 299 270 b 765 567 416 564 636 569 b 772 192 766 428 772 311 b 762 51 772 143 762 98 b 854 -20 762 5 782 -20 b 935 51 918 -20 935 10 b 930 96 935 67 932 81 b 914 376 924 132 914 194 b 913 782 914 534 913 658 b 921 995 915 858 921 926 b 861 1067 921 1022 905 1067 b 758 994 779 1067 758 1040 b 766 914 758 966 766 940 b 766 714 766 793 766 749 b 566 705 694 712 630 705 b 294 711 472 705 388 709 l 294 861 b 298 995 294 914 298 955 b 237 1067 298 1029 278 1067 b 134 994 155 1067 134 1040 b 144 914 134 964 144 939 b 153 191 153 279 153 236 b 149 50 153 140 149 96 z "},"I":{"ha":538,"x_min":0,"x_max":0,"o":"m 185 54 b 278 -20 185 7 206 -20 b 357 56 340 -20 357 12 b 354 94 357 68 356 80 l 354 93 b 342 657 345 217 342 450 b 345 937 342 772 343 859 b 351 983 347 953 351 967 b 285 1067 351 1034 326 1067 b 181 981 203 1067 181 1029 b 189 901 181 951 189 926 b 195 194 189 655 195 425 b 185 54 195 144 185 100 z "},"J":{"ha":998,"x_min":0,"x_max":0,"o":"m 85 303 b 467 -20 85 47 317 -20 b 821 390 743 -20 821 186 l 814 737 b 817 972 814 878 817 904 b 741 1067 817 1033 800 1067 b 656 995 694 1067 656 1047 b 668 734 656 904 668 878 l 668 420 b 465 126 668 201 595 126 b 239 297 346 126 239 182 b 262 424 239 342 262 381 b 186 500 262 478 229 500 b 85 303 90 500 85 371 z "},"K":{"ha":960,"x_min":0,"x_max":0,"o":"m 138 63 b 213 -20 138 -6 189 -20 b 298 49 266 -20 298 2 b 294 111 298 67 297 85 b 293 381 294 184 293 280 l 293 457 b 561 212 397 430 493 315 b 819 -20 636 98 715 -20 b 943 61 876 -20 943 -14 b 841 128 943 128 878 128 b 692 284 795 128 745 202 b 389 555 623 391 509 522 b 786 892 524 669 658 778 b 861 994 823 913 861 938 b 783 1067 861 1046 825 1067 b 655 979 746 1067 675 1008 l 294 637 b 295 998 294 755 295 868 b 216 1067 295 1041 258 1067 b 134 981 161 1067 134 1042 b 138 63 136 674 138 369 z "},"L":{"ha":745,"x_min":0,"x_max":0,"o":"m 134 75 b 212 0 134 13 167 0 l 572 0 b 688 81 628 1 688 10 b 596 161 688 133 655 161 b 517 153 568 161 543 155 b 294 151 471 151 399 151 b 294 879 292 330 293 710 l 294 981 b 213 1066 294 1046 275 1066 b 136 965 157 1066 136 1034 l 146 155 b 134 75 146 126 134 102 z "},"M":{"ha":1375,"x_min":0,"x_max":0,"o":"m 35 54 b 116 -20 35 14 70 -20 b 192 38 156 -20 171 3 b 404 802 252 221 337 616 b 587 212 460 652 541 376 b 594 175 590 200 592 187 b 680 90 602 132 613 90 b 763 153 719 90 763 103 b 773 210 763 168 766 192 b 954 800 845 405 886 608 b 1167 90 1019 616 1116 278 b 1267 -20 1176 47 1196 -20 b 1338 66 1324 -20 1341 20 b 1318 133 1337 85 1329 104 b 1024 1028 1072 923 1048 967 b 955 1067 1010 1061 987 1067 b 852 945 882 1067 871 1002 b 686 368 817 834 784 669 l 677 397 l 507 937 b 403 1067 481 1021 467 1067 b 338 1042 380 1067 352 1057 b 294 924 326 1031 307 975 l 294 925 b 39 75 186 560 59 132 b 35 54 36 68 35 62 z "},"N":{"ha":1169,"x_min":0,"x_max":0,"o":"m 138 43 b 220 -20 138 5 174 -20 b 301 69 289 -20 301 22 b 297 146 301 94 298 122 b 291 805 297 264 293 389 l 332 741 b 865 45 511 500 693 280 b 958 -20 878 9 908 -20 b 1034 72 1013 -20 1034 2 b 1029 174 1034 109 1029 141 l 1029 951 b 954 1067 1029 1004 1024 1067 b 869 980 900 1067 869 1053 b 883 262 869 907 883 844 b 337 978 762 441 448 811 b 258 1059 330 1002 301 1059 b 195 1039 237 1059 214 1054 b 135 960 153 1029 135 1004 b 140 905 135 941 137 926 b 150 420 150 764 150 564 b 146 110 150 308 148 208 b 138 43 146 112 138 81 z "},"O":{"ha":1142,"x_min":0,"x_max":0,"o":"m 98 524 b 571 -20 98 219 283 -20 b 1044 524 860 -20 1044 219 b 576 1067 1044 846 880 1067 b 98 524 288 1067 98 846 z m 252 524 b 573 928 252 766 369 928 b 889 524 789 928 889 741 b 573 119 889 321 787 119 b 252 524 369 119 252 321 z "},"P":{"ha":958,"x_min":0,"x_max":0,"o":"m 140 56 b 225 -20 140 8 181 -20 b 307 47 257 -20 307 -1 b 298 136 307 79 298 107 b 297 226 298 158 297 163 b 336 226 313 225 319 225 b 887 659 594 226 887 294 b 436 1059 887 914 692 1059 b 329 1053 397 1059 363 1053 b 207 1059 286 1053 246 1059 b 134 984 159 1059 134 1021 b 144 926 134 964 139 939 l 147 146 b 140 56 146 114 140 85 z m 298 373 b 292 913 297 471 296 559 b 422 916 340 914 381 916 b 730 664 522 916 730 890 b 392 369 730 523 694 369 b 298 373 378 369 334 371 z "},"Q":{"ha":1181,"x_min":0,"x_max":0,"o":"m 98 524 b 571 -20 98 219 283 -20 b 849 73 680 -20 774 14 b 1021 -20 898 22 954 -20 b 1152 77 1092 -20 1152 12 b 1084 149 1152 125 1116 149 b 1011 129 1054 149 1033 129 b 941 170 989 128 964 146 b 1044 524 1008 264 1044 387 b 576 1067 1044 846 880 1067 b 98 524 288 1067 98 846 z m 252 524 b 573 928 252 766 369 928 b 889 524 789 928 889 741 b 838 291 889 441 872 359 b 597 416 758 371 701 416 b 502 340 553 416 502 401 b 599 267 502 275 574 267 b 630 269 612 267 623 269 b 755 182 673 269 713 231 b 573 119 707 142 646 119 b 252 524 369 119 252 321 z "},"R":{"ha":1066,"x_min":0,"x_max":0,"o":"m 139 75 b 232 -20 139 20 178 -20 b 313 54 267 -20 313 2 b 298 178 313 96 300 136 l 298 277 b 399 275 330 277 373 276 b 500 275 424 275 477 275 b 797 -20 524 162 604 -20 b 1028 126 937 -20 1028 49 b 951 198 1028 168 1000 198 b 893 163 923 198 906 182 b 809 123 873 132 844 123 b 645 302 716 123 661 205 b 905 709 763 349 905 478 b 456 1059 905 954 728 1059 b 330 1052 410 1058 370 1052 b 206 1059 281 1052 243 1059 b 134 980 159 1059 134 1019 b 144 922 134 960 139 935 b 143 131 143 693 143 507 b 139 75 141 115 139 95 z m 298 422 b 292 741 293 534 292 618 b 294 916 292 809 292 846 b 441 918 349 916 395 918 b 745 715 540 918 745 912 b 445 418 745 564 690 418 b 298 422 433 418 345 420 z m 616 292 b 615 292 616 292 615 292 b 616 292 615 292 615 292 z m 615 292 b 614 292 615 292 614 292 b 615 292 614 292 615 292 z "},"S":{"ha":918,"x_min":0,"x_max":0,"o":"m 104 243 b 460 -20 99 50 315 -20 b 819 267 630 -20 819 54 b 486 635 819 467 629 561 b 308 820 408 675 308 724 b 467 932 308 901 392 932 b 614 877 522 932 587 920 b 695 805 617 844 637 805 b 770 883 733 805 774 832 b 475 1067 755 1021 620 1067 b 154 819 313 1067 154 991 b 500 460 154 588 347 540 b 666 273 572 422 666 358 b 461 115 666 143 558 115 b 264 219 365 115 271 158 b 269 291 262 244 269 267 b 195 356 269 332 236 356 b 104 243 130 356 109 317 z "},"T":{"ha":772,"x_min":0,"x_max":0,"o":"m 300 91 b 380 -20 300 42 297 -20 b 462 64 451 -20 462 25 b 457 130 462 89 457 109 l 459 895 l 634 895 b 677 891 649 895 663 891 b 745 972 715 892 745 928 b 663 1048 745 1031 700 1048 l 122 1048 b 27 977 55 1048 27 1031 b 92 894 27 938 48 894 b 302 895 172 894 239 895 z "},"U":{"ha":1036,"x_min":0,"x_max":0,"o":"m 128 498 b 520 -20 130 76 323 -20 b 907 503 783 -20 907 172 b 905 709 907 580 905 644 b 902 898 903 765 902 826 b 905 992 902 931 905 962 b 823 1067 905 1027 886 1067 b 745 982 776 1067 745 1046 b 745 948 745 979 745 962 b 752 505 747 881 752 723 b 528 125 752 260 692 125 b 284 512 313 125 284 315 b 292 960 284 838 292 903 b 201 1067 292 1026 267 1067 b 130 943 144 1067 130 1020 b 128 498 130 785 127 642 z "},"V":{"ha":911,"x_min":0,"x_max":0,"o":"m 378 49 b 452 -20 388 16 400 -20 b 538 47 496 -20 538 -9 b 535 70 538 54 536 62 b 657 391 582 189 624 300 b 854 887 715 547 769 692 l 854 888 b 892 987 867 909 892 949 b 809 1067 892 1034 851 1067 b 720 966 752 1067 722 1005 b 458 260 678 844 564 537 b 165 1022 358 529 203 928 b 97 1065 152 1051 129 1065 b 23 979 49 1065 11 1028 b 149 645 33 939 86 803 b 378 49 216 476 311 235 z "},"W":{"ha":1353,"x_min":0,"x_max":0,"o":"m 366 68 b 445 -20 372 36 384 -20 b 530 42 489 -20 530 1 b 529 62 530 45 530 54 b 675 495 582 203 638 389 b 775 211 710 404 743 301 b 836 43 795 155 816 106 l 836 44 b 903 -20 844 13 854 -20 b 994 53 964 -20 994 13 b 994 64 994 58 996 60 b 1296 903 1107 393 1185 623 b 1317 989 1310 938 1317 956 b 1238 1063 1317 1034 1289 1063 b 1149 959 1180 1063 1160 1014 l 1149 960 b 909 254 1059 726 992 490 b 760 671 837 460 802 564 b 861 903 791 752 823 825 b 888 985 876 931 888 960 b 813 1065 888 1033 859 1065 b 730 985 752 1065 738 1019 b 676 826 715 934 694 865 b 658 886 670 842 664 871 b 548 1061 604 1031 589 1061 b 467 979 489 1061 467 1038 b 496 895 467 956 480 924 b 587 656 517 853 566 697 b 448 258 534 517 499 406 b 189 1000 399 408 330 606 b 118 1065 168 1059 143 1065 b 35 991 63 1065 35 1039 b 58 900 35 963 47 930 b 366 68 126 724 264 351 z "},"X":{"ha":842,"x_min":0,"x_max":0,"o":"m 33 73 b 133 -20 33 9 88 -20 b 197 54 156 -20 174 12 b 416 431 249 140 354 326 b 642 55 551 212 638 68 l 642 54 b 713 -20 663 5 697 -20 b 808 66 789 -20 808 19 b 773 130 808 94 791 111 b 753 154 766 138 760 146 b 498 550 705 222 574 428 b 726 897 559 644 623 741 b 772 985 753 928 772 962 b 690 1062 772 1032 734 1062 b 610 991 644 1062 629 1035 b 420 673 534 859 475 762 b 327 825 393 716 365 762 b 191 1037 273 911 215 1004 b 134 1066 176 1055 158 1066 b 58 992 94 1066 58 1034 b 132 863 58 968 93 920 b 338 557 218 739 284 641 b 68 139 279 459 195 327 b 33 73 47 114 33 96 z "},"Y":{"ha":831,"x_min":0,"x_max":0,"o":"m 339 47 b 420 -20 339 11 372 -20 b 499 50 482 -20 499 13 b 492 450 499 185 481 345 b 780 910 554 564 670 738 b 818 988 812 941 818 972 b 734 1067 818 1053 774 1067 b 652 979 690 1067 671 1027 l 653 979 b 439 632 617 910 540 787 l 418 596 l 397 632 b 184 970 324 748 243 851 b 98 1067 165 1015 138 1067 b 14 989 48 1067 14 1040 b 54 906 14 967 31 940 b 343 451 130 797 211 673 b 339 47 349 158 339 146 z "},"Z":{"ha":918,"x_min":0,"x_max":0,"o":"m 90 83 b 188 0 90 33 113 0 l 705 0 b 839 74 810 0 839 24 b 755 151 839 130 807 151 b 677 143 734 151 697 149 l 299 139 b 769 888 459 390 608 637 b 823 983 782 907 823 958 b 749 1061 823 1019 806 1061 b 692 1049 722 1061 703 1058 b 188 1048 613 1048 539 1048 b 97 979 128 1048 97 1029 b 195 902 97 928 127 902 l 599 910 b 142 174 455 679 411 594 b 90 83 117 149 90 108 z "},"[":{"ha":575,"x_min":0,"x_max":0,"o":"m 101 -99 b 191 -211 101 -152 116 -211 b 345 -216 315 -216 334 -216 b 380 -212 358 -216 370 -215 b 438 -136 422 -203 438 -164 b 363 -60 438 -104 414 -60 l 321 -61 b 254 -62 310 -62 299 -62 l 256 1094 l 323 1094 b 374 1093 348 1094 361 1093 b 466 1167 399 1093 466 1095 b 400 1237 466 1200 452 1237 b 334 1233 376 1236 355 1233 l 182 1233 b 102 1127 128 1233 102 1197 b 110 539 102 916 110 728 l 110 470 b 101 -99 109 275 101 88 z "},"\\":{"ha":688,"x_min":0,"x_max":0,"o":"m 612 10 b 214 1129 566 146 469 415 b 152 1175 208 1149 189 1175 b 73 1107 102 1175 73 1144 b 75 1086 73 1101 74 1091 b 76 1083 75 1085 76 1084 b 473 -40 92 1027 264 545 b 477 -59 475 -47 476 -54 b 549 -136 478 -77 488 -136 b 637 -61 604 -136 637 -93 b 611 11 637 -57 632 -16 z "},"]":{"ha":575,"x_min":0,"x_max":0,"o":"m 473 -99 b 465 470 473 88 466 275 l 465 539 b 473 1127 465 728 473 916 b 393 1233 473 1197 446 1233 l 241 1233 b 174 1237 220 1233 199 1236 b 109 1167 122 1237 109 1200 b 201 1093 109 1095 176 1093 b 251 1094 214 1093 227 1094 l 319 1094 l 321 -62 b 253 -61 275 -62 264 -62 l 212 -60 b 136 -136 161 -60 136 -104 b 194 -212 136 -164 152 -203 b 230 -216 205 -215 216 -216 b 384 -211 241 -216 259 -216 b 473 -99 458 -211 473 -152 z "},"^":{"ha":1048,"x_min":0,"x_max":0,"o":"m 224 226 b 294 259 258 226 276 239 b 509 798 364 420 439 637 l 693 349 b 801 226 709 298 741 226 b 873 292 840 226 873 249 b 840 380 873 307 862 356 b 589 994 779 534 667 812 b 511 1048 569 1030 539 1048 b 434 994 484 1048 454 1031 b 156 320 298 673 233 471 b 151 294 151 310 151 300 b 224 226 151 249 186 226 z "},"_":{"ha":914,"x_min":0,"x_max":0,"o":"m 0 -107 b -114 -174 -90 -107 -114 -123 b 0 -235 -114 -220 -71 -235 l 914 -235 b 1023 -172 987 -235 1023 -214 b 914 -107 1023 -108 961 -107 z "},"`":{"ha":458,"x_min":0,"x_max":0,"o":"m 292 952 b 372 1033 337 952 372 981 b 319 1102 372 1065 334 1096 b 178 1234 302 1116 273 1143 b 104 1272 148 1261 123 1272 b 34 1202 67 1272 34 1233 b 70 1131 34 1173 40 1155 b 205 1003 119 1088 162 1046 l 205 1004 b 292 952 237 968 251 952 z "},"a":{"ha":1081,"x_min":0,"x_max":0,"o":"m 77 407 b 475 -20 77 163 241 -20 b 753 109 592 -20 697 39 b 842 -10 756 55 770 -10 b 1012 37 901 -10 957 18 b 1053 100 1044 47 1053 76 b 987 178 1053 136 1031 178 b 945 168 968 178 957 172 b 905 151 931 161 913 153 b 901 312 901 174 901 224 b 904 444 901 351 903 400 b 907 681 906 507 907 582 b 913 774 909 713 913 744 b 830 843 913 800 880 843 b 747 762 771 843 747 807 b 747 723 747 751 747 735 b 481 841 695 782 598 841 b 77 407 254 841 77 653 z m 233 407 b 486 699 233 569 338 699 b 754 436 644 699 734 547 l 754 376 b 480 126 732 258 633 126 b 233 407 324 126 233 260 z "},"b":{"ha":1037,"x_min":0,"x_max":0,"o":"m 134 44 b 197 -14 134 -4 158 -14 b 279 45 232 -14 279 -3 l 279 73 b 525 -20 337 19 431 -20 b 960 412 779 -20 960 129 b 553 836 960 670 795 836 b 288 730 448 836 347 793 b 293 1139 289 853 293 1021 b 229 1208 293 1182 265 1208 b 117 1203 189 1208 153 1203 b 75 1208 102 1203 89 1208 b 10 1135 39 1208 10 1183 b 75 1060 10 1082 43 1060 b 130 1064 98 1060 114 1065 b 134 182 139 794 130 430 b 134 44 134 130 134 80 z m 273 403 b 536 689 273 568 399 689 b 797 410 698 689 797 583 b 520 126 797 211 677 126 b 273 403 393 126 273 232 z "},"c":{"ha":939,"x_min":0,"x_max":0,"o":"m 77 410 b 495 -20 77 176 250 -20 b 800 90 597 -20 717 7 b 848 186 823 115 845 148 b 779 260 850 218 834 256 b 709 222 752 262 724 241 b 502 126 660 159 570 126 b 239 400 317 126 239 285 b 497 689 239 551 325 689 b 694 593 644 689 672 637 b 771 535 710 561 723 535 b 840 613 818 535 840 570 b 827 734 840 654 827 693 b 831 798 827 758 831 778 b 762 861 831 836 805 861 b 681 795 728 861 690 850 b 519 836 643 820 585 836 b 77 410 209 836 77 629 z "},"d":{"ha":1070,"x_min":0,"x_max":0,"o":"m 81 407 b 469 -20 81 169 235 -20 b 774 103 586 -20 702 30 b 857 -10 787 35 814 -10 b 939 24 878 -10 908 7 b 1000 55 959 35 979 45 b 1047 125 1022 64 1047 87 b 977 197 1047 178 1008 200 b 921 175 957 195 940 186 l 909 168 b 904 371 905 208 904 283 b 909 1100 904 464 905 923 b 916 1136 913 1109 916 1120 b 854 1208 916 1179 892 1208 b 667 1204 785 1207 726 1204 b 629 1208 650 1208 637 1208 b 564 1135 592 1208 564 1182 b 634 1053 564 1084 602 1053 b 696 1059 656 1053 676 1059 l 754 1059 b 757 715 756 895 757 762 b 488 836 697 793 594 836 b 81 407 255 836 81 652 z m 232 407 b 493 688 232 575 342 688 b 755 456 621 688 727 587 b 756 334 755 420 756 408 b 481 126 728 206 600 126 b 232 407 326 126 232 264 z "},"e":{"ha":951,"x_min":0,"x_max":0,"o":"m 242 306 b 798 428 433 350 615 382 b 870 505 839 438 870 465 b 844 572 870 529 861 557 b 503 836 811 727 677 836 b 77 395 261 836 77 663 b 474 -20 77 211 205 -20 b 812 111 625 -20 736 41 b 857 187 846 142 857 170 b 785 261 857 232 830 261 b 713 210 762 261 731 237 b 475 126 694 182 616 126 b 242 306 385 126 277 171 z m 231 431 b 498 689 244 586 345 689 b 704 535 597 689 673 619 b 231 431 542 496 383 467 z "},"f":{"ha":654,"x_min":0,"x_max":0,"o":"m 190 60 b 269 -20 190 -4 233 -20 b 366 -1 288 -20 330 -10 b 437 18 397 8 419 14 b 507 92 483 28 507 58 b 442 163 507 134 473 163 b 371 147 420 163 398 156 b 340 138 362 144 351 140 l 334 676 l 482 676 b 564 753 535 676 564 715 b 496 820 564 788 540 820 b 327 819 429 820 373 820 b 322 892 324 846 322 880 b 427 1072 322 1010 355 1072 b 500 1040 467 1072 487 1054 b 570 1001 523 1016 538 1001 b 642 1068 611 1001 642 1026 b 439 1208 642 1121 590 1208 b 173 927 279 1208 173 1126 b 178 816 173 901 176 849 b 153 821 168 817 161 821 b 88 749 119 821 88 795 b 161 676 88 692 127 676 l 182 676 l 193 114 b 190 60 193 97 190 79 z "},"g":{"ha":1022,"x_min":0,"x_max":0,"o":"m 164 -173 b 494 -335 164 -260 359 -335 b 895 70 640 -335 895 -284 b 897 366 895 172 896 277 b 899 650 899 457 899 549 b 905 711 899 673 905 692 b 830 787 905 754 891 787 b 761 729 789 787 770 758 b 485 836 698 798 608 836 b 78 407 252 836 75 667 b 478 -20 81 163 245 -20 b 744 83 622 -20 696 25 b 745 41 744 69 745 54 b 498 -191 745 -112 606 -191 b 290 -104 388 -191 336 -146 b 235 -86 276 -93 250 -86 b 164 -173 193 -86 164 -131 z m 229 407 b 493 699 229 570 333 699 b 752 407 674 699 752 565 b 483 126 752 245 658 126 b 229 407 328 126 229 245 z "},"h":{"ha":1055,"x_min":0,"x_max":0,"o":"m 139 49 b 208 -20 139 5 155 -20 b 303 -1 226 -20 270 -9 b 357 10 321 2 339 7 b 413 81 389 17 413 49 b 338 152 413 127 387 154 b 309 144 326 151 317 148 b 294 140 297 140 295 140 b 294 545 292 278 292 412 b 538 689 353 618 448 689 b 753 420 693 689 753 591 b 671 137 753 317 718 203 b 636 57 652 113 636 81 b 718 -20 636 12 659 -20 b 924 31 753 -20 871 12 b 978 102 956 42 978 68 b 906 173 978 121 966 173 b 844 159 882 173 863 165 b 906 420 881 235 906 336 b 547 836 906 703 774 836 b 296 731 451 836 359 787 l 298 766 b 302 1139 300 905 302 1022 b 238 1208 302 1182 275 1208 b 183 1206 224 1208 203 1207 b 127 1203 165 1204 146 1203 b 85 1208 112 1203 99 1208 b 20 1135 50 1208 20 1183 b 92 1061 20 1081 59 1061 b 140 1065 113 1061 127 1066 b 149 187 144 815 149 347 b 142 100 149 152 145 123 b 139 49 140 83 139 65 z "},"i":{"ha":565,"x_min":0,"x_max":0,"o":"m 327 935 b 370 996 361 949 365 966 b 381 1044 373 1010 374 1029 b 399 1124 391 1067 401 1106 b 389 1159 397 1134 393 1149 b 313 1192 376 1190 345 1197 b 246 1116 271 1185 249 1156 b 222 988 243 1079 216 1023 b 327 935 230 938 283 915 z m 211 51 b 289 -20 211 7 236 -20 b 430 11 313 -20 375 -4 b 501 92 477 25 507 49 b 438 147 494 125 485 147 b 363 130 407 147 393 132 b 365 646 361 319 365 482 b 374 758 365 686 374 721 b 310 827 374 800 356 827 b 212 822 280 827 245 822 b 111 827 180 822 146 827 b 46 753 76 827 46 801 b 117 680 46 699 85 680 b 217 684 144 680 190 682 b 221 189 220 505 221 351 b 211 51 221 103 211 96 z "},"j":{"ha":517,"x_min":0,"x_max":0,"o":"m 302 935 b 345 996 336 949 339 966 b 356 1044 348 1010 349 1029 b 373 1124 366 1067 376 1106 b 364 1159 372 1134 368 1149 b 288 1192 351 1190 319 1197 b 221 1116 245 1185 224 1156 b 196 988 218 1079 191 1023 b 302 935 204 938 257 915 z m 32 -206 b -25 -275 -3 -218 -25 -238 b 55 -353 -25 -333 10 -353 b 124 -326 76 -353 95 -347 b 335 -227 190 -300 256 -266 l 335 -227 b 378 -147 367 -213 378 -181 b 371 -33 375 -105 371 -69 b 366 653 367 310 366 452 b 372 755 366 690 372 722 b 302 825 372 781 367 825 b 175 823 252 825 214 823 b 104 826 140 821 131 826 b 38 753 68 826 38 800 b 111 680 38 697 78 680 b 211 685 120 680 166 682 b 223 36 219 539 223 275 b 225 -123 223 -22 224 -75 b 32 -206 111 -182 50 -201 z "},"k":{"ha":1009,"x_min":0,"x_max":0,"o":"m 141 47 b 210 -20 141 3 157 -20 b 307 -2 243 -20 275 -5 b 415 80 355 3 415 12 b 340 151 415 125 389 151 b 296 140 324 151 309 144 b 293 323 294 292 293 307 l 291 410 b 578 694 334 557 455 694 b 721 581 668 694 721 665 b 578 422 721 484 626 441 b 547 426 568 425 559 426 b 462 352 496 426 462 399 b 564 280 462 298 496 280 b 645 166 612 280 627 227 b 826 -21 670 79 700 -21 b 985 69 895 -21 985 -9 b 915 146 985 117 954 146 b 842 133 889 146 866 133 b 787 226 814 133 798 188 b 717 349 774 273 755 317 b 879 593 799 389 879 472 b 616 836 879 740 790 836 b 291 654 471 836 358 747 b 295 973 292 742 293 851 b 304 1139 296 1062 302 1090 b 240 1208 304 1182 277 1208 b 130 1203 201 1208 165 1203 b 87 1208 114 1203 100 1208 b 22 1135 52 1208 22 1183 b 94 1061 22 1081 61 1061 b 142 1065 115 1061 131 1063 b 151 186 146 815 151 346 b 141 47 151 136 141 93 z "},"l":{"ha":536,"x_min":0,"x_max":0,"o":"m 172 70 b 254 -20 172 29 196 -20 b 317 -8 273 -20 287 -18 l 385 9 b 465 83 436 22 465 42 b 394 157 465 133 441 157 b 321 141 378 157 357 152 l 321 1030 b 337 1135 322 1067 337 1100 b 273 1208 337 1185 311 1208 b 148 1203 217 1208 199 1203 b 52 1208 113 1203 83 1208 b -12 1135 18 1208 -12 1183 b 59 1061 -12 1081 27 1061 b 168 1067 97 1061 133 1066 b 177 275 174 745 177 358 b 174 159 177 235 176 191 b 172 70 173 127 172 99 z "},"m":{"ha":1593,"x_min":0,"x_max":0,"o":"m 191 50 b 261 -21 191 5 208 -21 b 356 -1 289 -21 326 -5 b 465 82 406 5 465 14 b 391 153 465 127 439 153 b 344 141 382 153 377 151 b 342 586 341 134 342 465 b 564 690 414 658 488 690 b 772 447 720 690 772 592 b 702 136 772 343 742 210 b 682 67 690 115 682 90 b 764 -21 682 27 705 -21 b 819 -10 776 -21 813 -14 b 983 74 873 18 983 -12 b 914 157 983 104 975 157 b 867 146 896 157 881 149 b 927 447 905 233 927 366 b 899 624 927 514 918 574 b 1069 690 947 667 990 690 b 1297 447 1227 690 1297 592 b 1227 138 1297 345 1270 206 b 1193 58 1207 114 1193 82 b 1275 -21 1193 15 1217 -21 b 1333 -9 1289 -21 1305 -16 b 1497 82 1461 18 1497 26 b 1424 159 1497 106 1487 159 b 1400 155 1419 159 1412 159 b 1451 447 1430 237 1451 368 b 1072 836 1451 698 1300 836 b 829 739 998 836 905 801 b 567 836 768 802 680 836 b 342 748 498 836 414 808 l 342 762 b 291 831 342 806 330 831 b 180 826 252 831 216 826 b 138 831 165 826 152 831 b 73 758 102 831 73 806 b 144 684 73 704 112 684 b 193 688 167 684 181 686 b 201 188 199 387 201 300 b 191 50 201 138 191 95 z "},"n":{"ha":1100,"x_min":0,"x_max":0,"o":"m 192 50 b 261 -20 192 6 208 -20 b 326 -5 277 -20 296 -13 b 359 1 334 -2 346 -1 b 465 83 406 6 465 14 b 391 153 465 128 439 153 b 363 148 383 153 373 151 l 345 142 b 344 208 343 166 344 187 b 347 418 344 279 345 349 b 348 542 347 460 347 501 b 618 689 410 616 512 689 b 819 420 772 689 819 543 b 750 146 819 313 802 211 b 722 62 730 122 722 90 b 787 -20 722 26 744 -20 b 921 16 818 -21 831 -12 l 994 33 b 1049 111 1040 49 1049 85 b 973 180 1049 161 1023 184 b 920 167 960 178 940 173 b 974 420 951 243 974 340 b 627 836 974 682 856 836 b 354 722 509 836 416 781 b 356 762 355 735 356 751 b 292 831 356 806 328 831 b 236 829 277 831 256 830 b 180 826 218 827 199 826 b 138 831 165 826 152 831 b 73 758 102 831 73 806 b 144 684 73 704 112 684 b 193 688 166 684 182 686 b 199 387 199 399 199 393 b 201 189 201 320 201 260 b 195 100 201 153 198 125 b 192 50 193 84 192 66 z "},"o":{"ha":990,"x_min":0,"x_max":0,"o":"m 74 409 b 495 -20 74 151 267 -20 b 916 409 723 -20 916 151 b 495 836 916 644 750 836 b 74 409 262 836 74 644 z m 231 409 b 494 689 231 562 327 689 b 760 409 663 689 760 562 b 494 126 760 224 639 126 b 231 409 332 126 231 237 z "},"p":{"ha":1020,"x_min":0,"x_max":0,"o":"m 287 -49 l 284 82 b 538 -20 345 18 439 -20 b 943 416 797 -20 943 171 b 549 836 943 677 783 836 b 283 715 436 836 340 786 b 290 772 285 735 290 754 b 224 833 290 814 264 833 b 162 829 200 833 181 829 b 101 833 140 829 121 833 b 27 763 54 833 27 821 b 98 692 27 707 66 692 b 140 696 113 692 134 696 b 144 373 144 661 144 486 l 144 -288 b 213 -347 144 -336 174 -347 b 290 -288 248 -347 290 -335 b 287 -49 290 -237 288 -130 z m 283 356 l 283 418 b 538 689 300 563 412 689 b 781 414 692 689 781 566 b 513 126 781 235 696 126 b 283 356 400 126 304 224 z "},"q":{"ha":1042,"x_min":0,"x_max":0,"o":"m 77 409 b 481 -20 77 151 248 -20 b 766 94 596 -20 700 26 l 766 -236 b 854 -347 766 -315 808 -347 b 936 -323 887 -347 907 -347 l 1011 -288 b 1074 -197 1053 -263 1074 -248 b 998 -130 1074 -153 1041 -130 b 913 -165 973 -130 944 -146 b 916 560 914 433 913 496 b 918 641 917 589 918 618 b 926 707 923 663 926 684 b 844 788 926 754 898 788 b 774 716 810 788 787 760 b 494 836 709 793 623 836 b 77 409 254 836 77 641 z m 227 409 b 492 689 227 551 324 689 b 762 471 637 689 732 585 l 764 353 b 486 126 733 222 620 126 b 227 409 342 126 227 241 z "},"r":{"ha":849,"x_min":0,"x_max":0,"o":"m 145 60 b 224 -20 145 9 182 -20 b 316 -7 243 -20 270 -16 b 380 4 345 -2 367 3 b 446 85 417 7 446 45 b 376 157 446 132 410 155 b 322 144 355 156 340 150 l 302 138 l 302 581 b 422 608 342 589 382 598 b 592 646 494 623 557 637 b 590 511 591 594 590 553 b 662 433 590 475 608 433 b 747 490 699 433 747 446 b 745 549 747 510 747 532 b 741 720 741 607 736 665 b 744 768 741 736 744 752 b 663 836 744 806 712 836 b 596 798 629 836 608 818 b 305 716 541 780 443 750 b 311 763 308 732 311 747 b 235 836 311 799 286 836 b 139 762 176 836 139 809 b 147 683 139 734 147 708 l 147 160 b 145 60 146 122 145 92 z "},"s":{"ha":847,"x_min":0,"x_max":0,"o":"m 83 176 b 433 -20 83 95 243 -20 b 768 221 568 -20 768 18 b 454 484 768 397 600 444 b 251 612 347 513 251 541 b 412 705 251 669 319 705 b 595 642 507 705 566 666 b 673 585 606 612 636 585 b 743 645 712 585 743 602 b 736 680 743 655 741 669 b 741 795 736 724 741 760 b 671 853 741 838 715 853 b 605 794 635 853 612 822 b 416 836 550 817 500 836 b 100 613 271 836 100 775 b 410 349 100 431 268 384 b 619 211 515 322 619 294 b 448 116 619 150 541 116 b 233 201 336 116 269 146 b 160 245 215 226 201 245 b 83 176 126 245 83 217 z "},"t":{"ha":678,"x_min":0,"x_max":0,"o":"m 191 52 b 272 -20 190 -6 239 -20 b 563 40 312 -22 482 24 b 636 117 614 51 636 93 b 565 199 636 166 609 199 b 505 180 543 199 521 189 b 342 140 450 158 417 154 l 338 675 l 420 676 b 506 671 450 675 478 671 b 577 750 566 671 577 707 b 511 828 577 807 546 828 b 476 827 503 828 487 828 b 467 827 473 827 470 827 b 336 823 442 826 407 825 l 336 873 b 346 989 336 913 346 951 b 264 1059 346 1048 308 1059 b 180 989 201 1059 180 1034 b 188 909 180 962 188 936 b 189 848 188 903 189 881 l 189 823 l 140 823 b 45 753 79 823 45 823 b 107 674 45 712 66 674 l 189 675 l 193 197 z "},"u":{"ha":975,"x_min":0,"x_max":0,"o":"m 106 370 b 460 -20 106 117 225 -20 b 707 79 528 -20 624 7 b 703 56 705 71 703 66 b 776 -20 703 28 722 -20 b 867 58 861 -17 867 9 b 862 135 867 87 862 111 b 858 607 862 310 858 458 b 857 727 857 659 857 701 b 793 836 857 787 857 836 b 681 806 751 836 718 812 b 570 728 614 792 570 785 b 643 650 570 675 606 650 b 711 663 656 650 684 655 b 715 449 715 578 715 526 b 713 246 715 387 715 322 b 463 122 645 175 551 122 b 256 370 327 122 256 201 b 344 680 256 481 286 616 b 378 759 366 705 378 733 b 297 836 378 801 355 836 b 219 816 269 836 242 825 b 168 799 202 809 182 801 b 71 722 108 787 71 777 b 140 646 71 701 71 646 b 165 650 149 646 157 647 b 106 370 124 560 106 454 z "},"v":{"ha":886,"x_min":0,"x_max":0,"o":"m 264 237 b 375 43 322 174 374 114 b 456 -20 376 7 418 -20 b 529 54 481 -20 526 -18 b 652 265 532 130 594 199 b 806 564 722 342 806 442 b 790 684 806 585 802 646 b 869 758 849 689 869 719 b 793 824 869 803 824 824 b 683 822 745 824 714 822 b 601 757 617 822 601 793 b 624 694 601 726 612 709 b 658 569 639 673 658 646 b 547 357 658 469 604 416 b 455 235 509 319 477 281 l 452 228 b 357 354 427 278 390 319 b 247 569 298 416 247 468 b 259 673 247 597 253 651 b 309 763 271 707 309 725 b 239 823 309 790 301 823 b 136 824 201 823 168 823 b 112 825 130 824 118 825 b 85 825 99 825 88 825 b 14 753 49 825 14 802 b 96 675 14 697 64 675 l 110 675 b 100 575 104 644 100 617 b 264 237 100 420 186 323 z "},"w":{"ha":1200,"x_min":0,"x_max":0,"o":"m 304 94 b 409 -20 340 12 365 -20 b 496 72 463 -20 480 22 b 608 368 527 177 571 271 b 712 98 646 276 677 186 b 814 -20 745 20 777 -20 b 903 71 876 -20 886 16 b 928 141 909 92 916 113 b 1059 471 966 231 1017 361 b 1135 663 1094 561 1124 642 b 1179 763 1151 697 1179 722 b 1097 836 1179 798 1146 836 b 993 699 1025 836 1005 752 l 816 223 l 684 551 l 751 704 b 772 763 761 721 772 740 b 697 836 772 809 733 836 b 610 755 649 836 625 794 l 606 746 b 601 760 604 752 602 755 b 521 836 587 799 572 836 b 447 758 483 836 447 807 b 470 682 447 738 454 709 b 529 553 492 640 511 596 b 464 374 507 496 486 437 b 409 223 444 320 428 273 b 189 767 331 414 266 592 b 113 836 172 810 164 836 b 33 762 77 836 33 810 b 62 679 33 742 46 705 l 62 680 b 304 94 96 620 174 429 z "},"x":{"ha":880,"x_min":0,"x_max":0,"o":"m 96 59 b 182 -20 96 -3 160 -20 b 269 56 235 -20 259 28 b 441 288 326 134 384 210 b 656 13 578 122 574 109 b 718 -20 665 5 705 -20 b 798 43 776 -20 798 3 b 768 127 798 56 791 99 b 526 401 701 196 650 245 b 696 625 637 549 669 589 b 774 757 720 654 774 722 b 696 836 774 802 730 836 b 602 755 644 836 621 789 l 602 755 l 432 524 l 235 775 l 236 774 b 161 836 218 814 186 836 b 82 764 124 836 82 804 b 126 670 82 726 104 693 b 241 530 165 626 203 578 b 348 404 277 488 313 444 b 138 141 235 246 172 179 b 96 59 102 102 96 96 z "},"y":{"ha":988,"x_min":0,"x_max":0,"o":"m 141 -151 b 473 -338 141 -260 302 -338 b 874 49 709 -338 874 -254 b 870 176 874 98 870 137 b 873 726 873 724 873 726 b 876 757 875 734 876 746 b 802 836 876 836 822 836 b 741 819 789 836 760 829 l 742 820 l 637 790 b 565 711 587 782 565 755 b 644 644 565 660 606 644 b 724 663 660 644 698 654 l 724 250 l 724 235 b 490 123 680 159 607 123 b 238 401 357 123 238 195 b 384 703 238 513 307 673 b 414 767 409 722 414 746 b 346 836 414 808 383 836 b 271 820 323 836 301 829 b 183 796 249 813 217 804 b 70 705 96 778 70 752 b 142 640 70 675 101 640 b 155 640 147 640 151 640 b 88 396 109 559 88 457 b 492 -20 88 90 277 -20 b 726 62 602 -20 676 16 b 726 57 726 60 726 58 b 479 -194 721 -137 619 -194 b 289 -119 404 -194 342 -185 b 223 -73 273 -100 251 -73 b 141 -151 164 -73 141 -121 z "},"z":{"ha":928,"x_min":0,"x_max":0,"o":"m 121 75 b 237 -7 121 39 140 -7 l 690 -1 b 717 -21 698 -9 707 -16 b 813 11 760 -39 800 -21 l 823 37 b 831 62 827 45 829 53 b 844 99 836 75 840 88 b 902 208 865 148 883 165 b 852 294 918 248 888 278 b 751 274 794 317 763 302 b 711 157 734 235 724 195 b 661 142 692 152 675 144 b 311 130 623 136 477 129 b 741 614 436 281 627 458 b 803 740 774 663 803 709 b 716 822 803 801 762 822 l 267 822 b 246 821 259 822 252 821 b 190 842 231 834 210 842 b 104 772 127 842 104 802 b 113 659 104 720 113 707 b 110 591 113 630 110 617 b 187 522 110 553 152 522 b 264 588 235 522 264 554 b 258 673 264 618 258 648 l 265 673 b 528 678 319 673 422 675 l 598 680 b 141 146 506 543 306 345 b 121 75 123 129 121 105 z "},"{":{"ha":688,"x_min":0,"x_max":0,"o":"m 252 -46 b 436 -220 252 -199 330 -220 b 577 -132 484 -220 577 -206 b 512 -56 577 -104 558 -57 b 415 -72 477 -54 446 -72 b 404 -13 404 -72 404 -35 b 422 374 404 123 422 249 b 353 512 422 431 391 490 b 410 680 391 542 410 610 b 404 800 410 725 408 764 b 395 1025 400 850 395 913 b 432 1117 395 1071 401 1117 b 477 1107 451 1117 465 1111 b 530 1097 489 1102 503 1097 b 596 1165 581 1097 596 1130 b 431 1257 596 1241 492 1257 b 248 950 301 1257 248 1185 b 258 817 248 920 253 869 b 269 680 264 764 269 709 b 197 587 269 615 239 587 b 154 591 182 587 168 591 b 80 516 111 591 80 566 b 161 436 80 463 116 436 b 204 438 177 436 191 438 b 270 356 258 438 270 397 b 257 37 270 259 262 124 b 252 -46 254 -4 252 -35 z "},"|":{"ha":573,"x_min":0,"x_max":0,"o":"m 201 -174 b 281 -241 201 -215 233 -241 b 360 -170 344 -241 360 -195 b 351 -121 360 -153 351 -138 b 351 1105 353 779 353 1011 b 292 1173 350 1133 334 1173 b 205 1103 220 1173 205 1136 b 201 -174 204 906 201 -43 z "},"}":{"ha":688,"x_min":0,"x_max":0,"o":"m 427 -56 b 422 27 427 -45 425 -14 b 409 346 416 114 409 249 b 475 428 409 387 420 428 b 518 426 488 428 502 426 b 599 506 563 426 599 453 b 525 581 599 556 568 581 b 482 577 511 581 497 577 b 410 669 439 577 410 605 b 420 807 410 699 415 753 b 431 940 426 859 431 910 b 248 1246 431 1175 378 1246 b 83 1155 187 1246 83 1231 b 149 1086 83 1120 98 1086 b 202 1097 176 1086 190 1092 b 247 1107 214 1101 228 1107 b 284 1015 278 1107 284 1061 b 275 789 284 903 279 840 b 269 670 271 753 269 715 b 326 502 269 600 288 532 b 257 364 288 480 257 420 b 275 -23 257 239 275 113 b 264 -82 275 -45 275 -82 b 167 -66 233 -82 202 -64 b 102 -142 121 -67 102 -114 b 243 -230 102 -216 195 -230 b 427 -56 349 -230 427 -210 z "},"~":{"ha":1031,"x_min":0,"x_max":0,"o":"m 182 250 b 255 308 219 250 250 271 b 322 412 262 359 278 412 b 439 342 373 412 404 379 b 688 227 492 290 553 227 b 899 449 801 227 896 319 b 818 533 900 500 869 533 b 737 450 770 533 741 498 b 674 370 734 403 707 370 b 533 450 614 370 574 409 b 322 553 484 500 429 553 b 101 326 201 553 101 456 b 182 250 101 275 145 250 z "},"":{"ha":0,"x_min":0,"x_max":0,"o":""},"":{"ha":574,"x_min":0,"x_max":0,"o":""},"":{"ha":423,"x_min":0,"x_max":0,"o":"m 208 707 b 130 642 161 707 130 684 b 135 577 130 615 135 597 b 127 -164 135 319 127 -45 b 205 -239 127 -220 168 -239 b 292 -168 269 -239 292 -205 b 276 575 292 87 276 331 b 280 638 276 597 280 617 b 208 707 280 684 245 707 z m 296 991 b 220 1070 296 1022 269 1070 b 130 923 170 1070 130 1017 b 214 845 130 872 168 845 b 296 991 277 845 294 891 z "},"":{"ha":1021,"x_min":0,"x_max":0,"o":"m 370 14 b 357 -117 364 -37 360 -81 b 431 -189 353 -165 397 -189 b 508 -121 463 -189 504 -168 b 517 -14 511 -87 513 -52 l 522 -14 b 871 210 588 -14 846 47 b 786 281 871 249 815 281 b 716 227 758 281 727 267 b 533 133 683 168 600 137 b 575 480 546 248 561 368 l 597 657 b 718 564 648 642 691 611 b 788 522 734 540 767 522 b 876 697 872 522 876 628 b 795 779 876 745 829 779 b 739 751 770 779 753 772 b 614 802 702 774 659 792 l 629 941 b 554 1008 628 979 583 1008 b 477 949 519 1008 480 989 b 464 809 475 918 470 868 b 122 391 247 784 122 624 b 370 14 122 207 223 69 z m 389 170 b 274 395 321 212 274 290 b 447 659 274 509 306 627 b 410 347 435 554 422 441 z "},"":{"ha":967,"x_min":0,"x_max":0,"o":"m 48 77 b 140 -6 48 16 103 -6 b 278 58 191 -6 238 25 b 315 61 290 60 306 61 b 454 28 366 61 409 44 b 623 -8 503 10 555 -8 b 855 157 723 -8 855 50 b 782 231 855 203 820 231 b 709 180 756 231 726 212 b 627 138 694 149 661 138 b 479 173 575 138 526 157 b 385 201 449 184 418 196 b 404 319 400 239 404 277 b 390 424 404 357 399 391 b 519 425 447 425 463 425 b 603 496 573 425 603 462 b 527 570 603 529 578 570 b 342 570 471 570 405 570 b 302 747 322 623 302 686 b 499 920 302 869 395 920 b 640 840 572 920 640 895 b 635 810 640 835 638 822 b 568 729 591 808 568 772 b 647 652 568 682 598 652 b 791 837 739 652 791 760 b 500 1065 791 1006 640 1065 b 151 747 304 1065 151 957 b 180 568 151 688 164 623 l 121 568 b 45 494 70 568 45 526 b 128 422 45 457 74 422 b 234 422 165 422 197 422 b 252 323 243 390 252 355 b 204 195 252 278 232 230 b 48 77 152 186 48 154 z "},"":{"ha":972,"x_min":0,"x_max":0,"o":"m 132 55 b 264 156 182 55 228 109 b 298 194 276 170 287 183 b 475 146 348 163 409 146 b 662 201 546 146 610 165 b 703 158 680 184 690 171 l 705 154 l 705 155 b 760 94 718 140 736 118 b 831 56 782 71 804 56 b 908 134 848 56 908 66 b 804 256 908 165 880 191 l 753 300 b 794 467 779 347 794 404 b 756 630 794 526 781 582 l 780 649 b 902 781 833 691 902 749 b 823 857 902 847 842 857 b 698 761 778 857 736 808 l 671 729 b 475 788 620 766 554 788 b 279 723 399 788 332 764 b 243 767 266 736 254 752 b 124 860 210 811 170 860 b 47 786 104 860 47 852 b 104 706 47 747 73 729 b 191 627 138 682 165 655 l 194 624 b 155 467 169 577 155 524 b 205 286 155 397 173 336 l 149 237 b 105 205 134 224 119 214 b 55 136 78 186 55 172 b 132 55 55 71 113 55 z m 309 467 b 477 641 309 563 366 641 b 644 467 588 641 644 563 b 477 294 644 351 572 294 b 309 467 369 294 309 359 z "},"":{"ha":1034,"x_min":0,"x_max":0,"o":"m 197 229 b 264 161 197 170 232 161 b 447 160 300 160 371 160 b 446 105 447 134 446 119 l 446 106 b 441 43 441 69 441 64 b 520 -31 441 9 473 -31 b 599 45 583 -31 599 11 b 593 112 599 61 599 67 l 593 111 b 592 160 593 127 592 144 l 776 160 b 842 229 817 160 842 177 b 772 301 842 291 797 301 b 724 292 754 301 740 292 b 591 288 681 290 635 289 b 592 405 591 327 591 366 l 774 405 b 840 474 814 405 840 423 b 770 547 840 536 795 547 b 722 538 752 547 738 538 l 639 536 b 878 888 718 667 831 825 l 882 892 b 917 960 900 913 917 933 b 832 1034 917 1009 869 1034 b 760 968 799 1034 783 1007 l 519 597 b 286 960 513 606 509 614 b 201 1033 263 994 231 1033 b 117 958 151 1033 117 1006 b 145 896 117 937 127 921 b 201 820 160 875 178 850 b 399 534 248 757 313 671 b 258 534 336 534 284 534 b 195 473 232 534 195 515 b 262 406 195 420 230 406 b 446 405 297 405 369 405 b 446 286 446 357 446 319 b 261 289 359 286 289 288 b 197 229 234 290 197 271 z "},"":{"ha":576,"x_min":0,"x_max":0,"o":"m 281 528 b 360 599 344 528 360 573 b 349 689 350 645 349 667 b 356 1080 355 975 356 1049 b 290 1168 356 1144 345 1168 b 203 1065 219 1168 203 1127 l 203 871 b 201 595 201 783 201 667 b 281 528 201 554 233 528 z m 203 142 b 201 -187 201 62 201 -116 b 281 -254 201 -228 233 -254 b 360 -182 344 -254 360 -208 b 351 -134 360 -165 351 -151 b 356 295 351 1 356 179 b 292 399 356 361 347 399 b 204 331 220 399 204 364 z "},"":{"ha":823,"x_min":0,"x_max":0,"o":"m 117 62 b 387 -133 117 -80 266 -133 b 666 72 503 -133 666 -62 b 593 262 666 146 650 212 b 696 450 654 313 696 378 b 623 591 696 501 673 551 b 489 661 589 618 538 640 b 289 826 393 702 289 749 b 416 902 289 884 361 902 b 524 834 467 902 511 882 b 602 773 534 796 570 773 b 681 840 635 773 681 792 b 414 1042 681 983 538 1042 b 132 832 284 1042 132 969 b 205 648 132 760 161 696 b 102 457 149 603 102 537 b 372 219 102 333 225 277 b 511 83 440 192 511 162 b 381 7 511 25 433 7 b 274 64 344 7 281 22 b 195 136 269 108 229 136 b 117 62 160 136 117 110 z m 258 454 b 331 569 258 504 292 546 b 538 452 410 543 538 494 b 460 338 538 405 504 365 b 258 454 399 361 258 397 z "},"":{"ha":684,"x_min":0,"x_max":0,"o":"m 163 946 b 284 1085 210 946 284 1038 b 204 1163 284 1122 245 1163 b 88 1018 156 1163 88 1076 b 163 946 88 974 130 946 z m 450 941 b 578 1072 498 941 578 1025 l 578 1073 b 505 1155 578 1116 546 1155 b 376 1013 456 1155 376 1070 b 450 941 376 970 417 941 z "},"":{"ha":1492,"x_min":0,"x_max":0,"o":"m 113 396 b 748 -227 113 45 359 -227 b 1358 405 1203 -227 1358 79 b 722 1060 1358 751 1173 1060 b 113 396 326 1060 113 762 z m 259 394 b 726 939 259 699 396 939 b 1211 400 1038 939 1211 722 b 766 -100 1211 109 1034 -100 b 259 394 425 -100 259 104 z m 399 401 b 746 88 399 219 552 88 b 1007 200 855 88 934 122 b 1024 245 1016 211 1024 237 b 954 320 1024 289 993 320 b 886 292 932 320 905 311 b 741 229 846 249 801 229 b 556 406 646 229 556 296 b 737 604 556 507 610 604 b 878 533 795 604 857 574 b 952 489 895 500 928 489 b 1031 585 1001 489 1031 520 b 958 700 1031 669 1006 700 b 916 689 937 700 925 694 b 739 743 869 723 803 743 b 399 401 538 743 399 609 z "},"":{"ha":920,"x_min":0,"x_max":0,"o":"m 375 456 b 549 516 439 456 500 478 b 639 441 551 469 595 441 b 747 474 663 441 713 458 b 823 549 798 494 823 503 b 760 615 823 588 795 615 b 703 594 738 615 725 608 b 701 652 703 612 702 629 b 701 805 700 706 700 756 l 703 950 b 627 1029 703 1001 685 1029 b 557 978 596 1029 564 1011 b 378 1029 512 1012 452 1029 b 84 743 224 1029 84 930 b 375 456 84 566 224 456 z m 373 587 b 228 743 302 587 228 642 b 378 897 228 842 290 897 b 555 739 496 897 545 820 b 373 587 545 659 479 587 z "},"":{"ha":1378,"x_min":0,"x_max":0,"o":"m 178 348 b 551 137 308 283 420 201 l 551 137 b 616 115 568 125 586 115 b 686 190 663 115 686 153 b 616 269 686 242 636 265 l 361 414 b 627 549 474 476 548 517 b 686 635 658 563 686 586 b 617 705 686 673 650 705 b 549 676 589 705 559 686 l 550 676 b 202 500 355 574 271 533 b 144 430 163 489 144 475 b 178 348 144 401 153 359 z m 743 348 b 1116 137 873 283 985 201 l 1116 137 b 1181 115 1133 125 1151 115 b 1251 190 1228 115 1251 153 b 1181 269 1251 242 1201 265 l 926 414 b 1192 549 1039 476 1113 517 b 1251 635 1223 563 1251 586 b 1182 705 1251 673 1215 705 b 1114 676 1154 705 1124 686 l 1115 676 b 767 500 920 574 836 533 b 709 430 728 489 709 475 b 743 348 709 401 718 359 z "},"":{"ha":1048,"x_min":0,"x_max":0,"o":"m 171 401 b 739 403 174 401 183 401 b 737 234 739 293 739 262 l 737 235 b 732 157 734 216 732 176 b 813 88 732 133 747 88 b 902 155 864 88 902 112 b 899 213 902 173 901 196 b 899 224 899 216 899 220 b 896 296 897 243 896 265 b 900 485 896 340 897 398 l 900 486 b 826 552 895 530 863 552 b 764 549 804 552 779 551 b 199 549 216 547 205 548 b 177 550 193 549 183 550 b 106 478 153 550 106 541 b 171 401 106 429 131 401 z "},"":{"ha":825,"x_min":0,"x_max":0,"o":""},"":{"ha":1492,"x_min":0,"x_max":0,"o":"m 113 396 b 748 -227 113 45 359 -227 b 1358 405 1203 -227 1358 79 b 722 1060 1358 751 1173 1060 b 113 396 326 1060 113 762 z m 259 394 b 726 939 259 699 396 939 b 1211 400 1038 939 1211 722 b 766 -100 1211 109 1034 -100 b 259 394 425 -100 259 104 z m 466 153 b 545 91 469 114 511 91 b 623 154 575 91 623 109 l 623 253 b 758 130 673 216 708 165 b 902 81 800 100 847 81 b 1076 185 964 81 1076 115 b 1000 251 1076 225 1042 251 b 958 237 981 251 970 244 b 905 222 945 229 931 222 b 802 281 857 222 838 239 b 1023 526 911 302 1023 397 b 705 777 1023 705 871 777 b 592 772 679 777 640 775 l 536 770 b 463 701 492 765 468 749 b 466 153 463 497 466 324 z m 622 416 b 620 634 622 496 621 558 b 739 637 724 637 731 637 b 867 536 808 637 867 609 b 713 414 867 450 787 414 b 622 416 679 414 650 416 z "},"":{"ha":688,"x_min":0,"x_max":0,"o":"m 150 994 b 290 1000 199 994 244 1000 b 520 994 373 1000 447 994 b 602 1064 543 994 602 1004 b 518 1133 602 1131 562 1133 b 336 1121 455 1133 396 1121 b 154 1126 271 1121 212 1126 b 59 1065 96 1126 59 1105 b 150 994 59 1005 103 994 z "},"":{"ha":578,"x_min":0,"x_max":0,"o":"m 295 612 b 505 827 438 612 505 711 b 322 1048 505 926 436 1034 b 304 1044 315 1048 309 1047 b 277 1051 296 1048 289 1051 b 64 832 151 1051 64 952 b 295 612 64 691 163 612 z m 291 738 b 201 833 231 738 201 773 b 269 921 201 873 229 913 b 290 926 274 922 282 924 b 369 829 333 916 369 885 b 291 738 369 786 346 738 z "},"":{"ha":803,"x_min":0,"x_max":0,"o":"m 104 87 b 171 0 104 16 139 0 l 608 0 b 675 76 648 0 675 28 b 604 154 675 138 629 154 b 577 150 594 154 585 152 b 557 146 570 148 563 146 b 445 146 524 146 485 145 b 472 200 465 161 472 184 l 463 249 b 463 368 463 272 463 306 b 530 367 496 368 514 367 b 641 366 570 366 608 366 b 707 446 682 366 707 397 b 637 524 707 508 661 524 l 589 516 l 464 516 b 465 618 464 547 464 581 l 465 667 b 397 766 465 726 452 766 b 317 699 324 766 317 730 l 315 516 l 168 517 b 71 456 110 517 71 512 b 138 371 71 386 106 371 l 314 369 b 313 310 314 340 313 324 b 313 196 313 269 313 230 b 337 147 313 175 321 159 l 204 147 b 104 87 144 147 104 142 z "},"":{"ha":804,"x_min":0,"x_max":0,"o":"m 186 497 l 609 496 b 682 566 639 496 682 508 b 615 637 682 612 652 637 b 591 634 606 637 597 635 l 408 634 b 633 975 517 719 633 840 b 376 1206 633 1122 518 1206 b 168 1120 314 1206 217 1177 b 107 984 138 1082 107 1031 b 208 852 107 945 125 852 b 281 918 239 852 281 876 b 261 984 281 943 261 961 b 374 1069 261 1038 317 1069 b 479 975 427 1069 479 1036 b 137 615 479 834 259 729 b 111 564 117 597 111 578 b 186 497 111 525 140 497 z "},"":{"ha":804,"x_min":0,"x_max":0,"o":"m 385 492 b 689 735 526 492 689 568 b 505 951 689 867 606 919 b 641 1127 580 1025 641 1090 b 570 1198 641 1168 613 1198 l 200 1198 b 130 1134 150 1198 130 1165 b 204 1067 130 1097 156 1067 l 421 1069 b 296 903 379 1019 296 947 b 366 833 296 863 319 833 b 427 840 388 833 407 840 b 531 730 477 840 531 808 b 384 628 531 656 448 628 b 236 743 318 628 236 670 b 252 810 236 767 252 787 b 175 882 252 869 201 882 b 86 745 109 882 86 801 b 385 492 86 587 248 492 z "},"":{"ha":458,"x_min":0,"x_max":0,"o":"m 82 958 b 158 994 102 958 125 964 b 302 1127 201 1036 262 1092 l 302 1126 b 354 1195 317 1132 354 1162 b 271 1276 354 1246 317 1276 b 180 1222 233 1276 214 1256 l 180 1223 l 107 1151 b 12 1026 71 1120 12 1069 b 82 958 12 994 45 958 z "},"":{"ha":1033,"x_min":0,"x_max":0,"o":"m 149 62 b 145 -232 149 16 148 -31 b 226 -297 145 -271 176 -297 b 304 -227 288 -297 304 -252 b 301 -203 304 -218 302 -211 b 294 -116 298 -189 294 -165 b 294 33 295 28 294 30 l 294 34 b 485 -16 345 1 396 -16 b 707 54 549 -16 649 7 b 781 -20 710 20 731 -20 b 871 70 865 -18 871 23 b 869 106 871 88 870 98 b 867 132 867 114 867 121 b 862 726 867 348 862 537 b 798 815 862 785 862 815 b 755 807 790 815 781 813 b 670 787 726 801 699 792 b 575 716 610 776 575 769 b 648 634 575 665 611 634 b 716 646 661 634 688 638 b 720 446 720 566 720 520 b 717 224 720 382 719 302 b 488 123 667 165 584 123 b 294 350 327 123 294 209 b 381 663 294 458 323 600 b 416 740 403 686 416 715 b 341 815 416 781 399 815 b 299 808 322 815 306 811 b 205 779 261 795 235 787 b 109 704 146 766 109 758 b 178 629 109 684 109 629 b 204 634 184 629 195 631 b 144 350 163 545 144 433 l 148 151 b 149 62 149 121 149 92 z "},"":{"ha":1084,"x_min":0,"x_max":0,"o":"m 794 47 b 870 -21 795 4 832 -21 b 953 54 907 -21 953 6 b 947 146 953 93 950 119 b 943 197 945 164 944 178 l 947 978 b 948 1010 947 988 948 999 b 871 1076 948 1061 907 1076 b 794 1004 832 1076 794 1063 b 796 907 794 970 795 937 b 794 47 810 614 792 36 z m 547 64 b 626 -21 547 20 588 -21 b 705 63 671 -21 705 9 b 702 129 705 82 703 108 b 695 859 702 376 695 618 b 700 959 695 924 698 943 b 703 1006 701 972 703 982 b 625 1072 703 1056 661 1072 b 590 1067 613 1072 598 1069 b 511 1069 558 1069 526 1069 b 113 703 273 1069 113 936 b 537 327 113 431 348 327 l 555 327 b 549 107 551 116 549 111 b 547 64 548 96 547 81 z m 555 469 b 272 707 410 471 272 542 b 495 926 272 823 336 926 b 553 924 511 926 533 926 b 555 469 554 909 555 882 z "},"":{"ha":572,"x_min":0,"x_max":0,"o":"m 282 429 b 378 551 358 429 378 513 b 287 654 378 618 327 654 b 186 536 218 654 186 605 b 282 429 186 496 221 429 z "},"":{"ha":825,"x_min":0,"x_max":0,"o":"m 239 -211 b 164 -278 207 -211 164 -226 b 309 -370 164 -330 231 -370 b 525 -189 436 -370 525 -299 b 386 -35 525 -123 448 -35 b 329 -83 351 -35 329 -68 b 379 -195 328 -149 379 -130 b 322 -237 379 -224 358 -237 b 239 -211 291 -237 269 -211 z "},"":{"ha":692,"x_min":0,"x_max":0,"o":"m 382 479 b 458 574 444 479 458 513 b 457 759 458 635 458 698 b 456 928 456 817 456 875 b 459 1134 456 1008 457 1080 b 386 1194 457 1183 422 1194 b 307 1166 347 1194 321 1175 b 193 1121 235 1137 202 1123 b 109 1037 158 1108 109 1093 b 184 959 109 1001 134 959 b 243 981 204 959 222 969 b 302 1015 262 993 277 1002 b 297 555 301 853 297 705 b 382 479 297 506 321 479 z "},"":{"ha":835,"x_min":0,"x_max":0,"o":"m 419 458 b 696 746 610 458 696 604 b 464 1025 696 876 614 1003 b 430 1021 448 1027 437 1024 b 390 1030 418 1028 405 1030 b 109 741 227 1030 109 884 b 419 458 109 562 237 458 z m 410 593 b 254 742 315 593 254 646 b 383 896 254 810 301 878 b 418 902 394 897 408 898 b 551 746 501 891 551 824 b 410 593 551 650 486 593 z "},"":{"ha":1375,"x_min":0,"x_max":0,"o":"m 635 348 b 670 430 661 359 670 401 b 612 500 670 475 651 489 b 264 676 543 533 458 574 l 265 676 b 197 705 255 686 224 705 b 128 635 163 705 128 673 b 187 549 128 586 156 563 b 453 414 266 517 340 476 l 197 269 b 127 190 178 265 127 242 b 197 115 127 153 151 115 b 263 137 228 115 245 125 l 262 137 b 635 348 394 201 506 283 z m 1197 348 b 1232 430 1222 359 1232 401 b 1173 500 1232 475 1213 489 b 825 676 1104 533 1020 574 l 827 676 b 758 705 817 686 786 705 b 690 635 725 705 690 673 b 749 549 690 586 718 563 b 1015 414 827 517 901 476 l 759 269 b 689 190 739 265 689 242 b 759 115 689 153 712 115 b 825 137 789 115 807 125 l 824 137 b 1197 348 956 201 1067 283 z "},"":{"ha":1621,"x_min":0,"x_max":0,"o":"m 803 63 b 886 -13 803 6 849 -13 b 941 -3 910 -13 922 -10 l 940 -3 l 1241 -1 b 1242 -96 1241 -35 1242 -66 l 1242 -182 b 1318 -254 1242 -232 1284 -254 b 1394 -182 1350 -254 1394 -232 l 1394 -1 l 1463 -1 b 1535 71 1514 -1 1535 42 b 1458 144 1535 102 1506 142 l 1393 142 b 1392 235 1392 174 1392 205 l 1392 345 b 1316 420 1392 393 1351 420 b 1240 345 1280 420 1240 393 l 1240 135 b 1036 131 1171 133 1089 131 b 1162 486 1104 242 1162 357 b 1085 604 1162 566 1143 604 b 994 528 1052 604 994 593 b 868 143 994 375 956 232 b 803 63 835 140 803 124 z m 379 479 b 455 574 440 479 455 513 b 454 759 455 635 454 698 b 453 928 453 817 453 875 b 456 1134 453 1008 454 1080 b 382 1194 454 1183 419 1194 b 304 1166 344 1194 318 1175 b 190 1121 232 1137 199 1123 b 106 1037 155 1108 106 1093 b 180 959 106 1001 130 959 b 240 981 201 959 218 969 b 299 1015 259 993 274 1002 b 294 555 298 853 294 705 b 379 479 294 506 318 479 z m 431 50 b 518 -20 431 14 461 -20 b 584 45 566 -20 575 14 l 584 45 l 959 935 b 972 988 966 950 972 974 b 893 1057 972 1034 927 1057 b 822 985 847 1057 835 1021 b 451 111 818 973 763 842 l 452 112 b 431 50 440 95 431 71 z "},"":{"ha":1621,"x_min":0,"x_max":0,"o":"m 1004 1 l 1427 0 b 1499 71 1457 0 1499 12 b 1433 141 1499 116 1470 141 b 1409 138 1424 141 1415 139 l 1225 138 b 1451 479 1335 223 1451 345 b 1194 710 1451 626 1336 710 b 986 624 1132 710 1035 682 b 925 488 956 587 925 535 b 1025 356 925 450 943 356 b 1099 422 1057 356 1099 380 b 1079 488 1099 447 1079 465 b 1192 573 1079 542 1135 573 b 1297 479 1244 573 1297 541 b 955 119 1297 338 1077 233 b 928 68 935 101 928 82 b 1004 1 928 29 958 1 z m 379 479 b 455 574 440 479 455 513 b 454 759 455 635 454 698 b 453 928 453 817 453 875 b 456 1134 453 1008 454 1080 b 382 1194 454 1183 419 1194 b 304 1166 344 1194 318 1175 b 190 1121 232 1137 199 1123 b 106 1037 155 1108 106 1093 b 180 959 106 1001 130 959 b 240 981 201 959 218 969 b 299 1015 259 993 274 1002 b 294 555 298 853 294 705 b 379 479 294 506 318 479 z m 431 50 b 518 -20 431 14 461 -20 b 584 45 566 -20 575 14 l 584 45 l 959 935 b 972 988 966 950 972 974 b 893 1057 972 1034 927 1057 b 822 985 847 1057 835 1021 b 451 111 818 973 763 842 l 452 112 b 431 50 440 95 431 71 z "},"":{"ha":1734,"x_min":0,"x_max":0,"o":"m 924 63 b 1007 -13 924 6 970 -13 b 1062 -3 1031 -13 1043 -10 l 1061 -3 l 1362 -1 b 1362 -96 1362 -35 1362 -66 l 1362 -182 b 1439 -254 1362 -232 1405 -254 b 1514 -182 1470 -254 1514 -232 l 1514 -1 l 1584 -1 b 1656 71 1636 -1 1656 42 b 1579 144 1656 102 1626 142 l 1514 142 b 1513 235 1513 174 1513 205 l 1513 345 b 1437 420 1513 393 1472 420 b 1361 345 1400 420 1361 393 l 1361 135 b 1156 131 1292 133 1210 131 b 1283 486 1225 242 1283 357 b 1206 604 1283 566 1263 604 b 1115 528 1173 604 1115 593 b 989 143 1115 375 1077 232 b 924 63 956 140 924 124 z m 381 492 b 686 735 523 492 686 568 b 501 951 686 867 603 919 b 637 1127 576 1025 637 1090 b 566 1198 637 1168 610 1198 l 197 1198 b 126 1134 146 1198 126 1165 b 201 1067 126 1097 153 1067 l 418 1069 b 293 903 376 1019 293 947 b 362 833 293 863 316 833 b 424 840 385 833 404 840 b 528 730 474 840 528 808 b 380 628 528 656 444 628 b 233 743 315 628 233 670 b 248 810 233 767 248 787 b 172 882 248 869 197 882 b 83 745 105 882 83 801 b 381 492 83 587 245 492 z m 558 50 b 646 -20 558 14 589 -20 b 711 45 694 -20 703 14 l 711 45 l 1086 935 b 1099 988 1093 950 1099 974 b 1021 1057 1099 1034 1055 1057 b 949 985 975 1057 962 1021 b 578 111 945 973 890 842 l 579 112 b 558 50 568 95 558 71 z "},"":{"ha":918,"x_min":0,"x_max":0,"o":"m 481 760 b 407 683 442 760 407 734 b 409 618 407 658 409 638 b 248 421 409 527 313 471 b 81 144 155 350 81 253 b 471 -161 81 -57 255 -161 b 842 97 685 -161 842 -70 b 721 277 842 165 791 277 b 648 209 681 277 648 252 b 669 151 648 186 659 168 b 690 94 682 130 690 116 b 470 -16 690 17 605 -16 b 233 146 334 -16 233 31 b 410 367 233 237 336 301 b 559 620 482 430 559 517 b 481 760 559 709 541 760 z m 578 987 b 503 1067 579 1019 552 1067 b 414 918 452 1067 414 1013 b 485 842 414 892 422 842 b 578 987 558 842 576 876 z "},"":{"ha":1063,"x_min":0,"x_max":0,"o":"m 24 52 b 109 -20 24 5 60 -20 b 202 60 181 -20 191 21 l 202 60 b 309 332 217 105 258 210 b 337 333 318 332 328 332 b 674 334 466 338 570 334 b 749 332 707 332 734 332 b 873 53 787 245 823 163 b 961 -20 878 13 912 -20 b 1040 56 1005 -20 1040 1 b 998 149 1040 92 1013 129 l 985 168 b 635 930 861 437 758 689 b 616 981 630 941 623 961 b 524 1067 601 1029 588 1067 b 441 985 473 1067 448 1025 b 52 140 363 830 115 244 b 24 52 31 111 24 81 z m 370 479 b 520 829 424 606 479 736 b 684 477 591 677 642 568 b 370 479 484 479 408 479 z m 538 1088 b 615 1169 583 1088 615 1118 b 563 1238 615 1201 578 1232 b 471 1326 532 1265 492 1303 b 400 1363 443 1358 418 1363 b 328 1295 362 1363 328 1326 b 363 1223 328 1268 333 1248 b 426 1164 387 1204 389 1199 b 450 1140 433 1158 443 1147 b 538 1088 471 1115 497 1088 z "},"":{"ha":1063,"x_min":0,"x_max":0,"o":"m 24 52 b 109 -20 24 5 60 -20 b 202 60 181 -20 191 21 l 202 60 b 309 332 217 105 258 210 b 337 333 318 332 328 332 b 674 334 466 338 570 334 b 749 332 707 332 734 332 b 873 53 787 245 823 163 b 961 -20 878 13 912 -20 b 1040 56 1005 -20 1040 1 b 998 149 1040 92 1013 129 l 985 168 b 635 930 861 437 758 689 b 616 981 630 941 623 961 b 524 1067 601 1029 588 1067 b 441 985 473 1067 448 1025 b 52 140 363 830 115 244 b 24 52 31 111 24 81 z m 370 479 b 520 829 424 606 479 736 b 684 477 591 677 642 568 b 370 479 484 479 408 479 z m 532 1088 b 619 1140 572 1088 597 1115 b 643 1164 626 1147 635 1158 b 706 1223 680 1199 682 1204 b 741 1295 736 1248 741 1268 b 669 1363 741 1326 707 1363 b 597 1326 651 1363 626 1358 b 506 1238 576 1303 538 1265 b 454 1169 491 1232 454 1201 b 532 1088 454 1118 486 1088 z "},"":{"ha":1063,"x_min":0,"x_max":0,"o":"m 24 52 b 109 -20 24 5 60 -20 b 202 60 181 -20 191 21 l 202 60 b 309 332 217 105 258 210 b 337 333 318 332 328 332 b 674 334 466 338 570 334 b 749 332 707 332 734 332 b 873 53 787 245 823 163 b 961 -20 878 13 912 -20 b 1040 56 1005 -20 1040 1 b 998 149 1040 92 1013 129 l 985 168 b 635 930 861 437 758 689 b 616 981 630 941 623 961 b 524 1067 601 1029 588 1067 b 441 985 473 1067 448 1025 b 52 140 363 830 115 244 b 24 52 31 111 24 81 z m 370 479 b 520 829 424 606 479 736 b 684 477 591 677 642 568 b 370 479 484 479 408 479 z m 370 1100 b 441 1127 408 1100 426 1113 b 540 1205 481 1164 503 1183 b 649 1118 580 1179 606 1154 b 713 1095 664 1107 694 1095 b 787 1156 755 1095 787 1118 b 723 1244 787 1193 771 1217 b 624 1321 701 1255 650 1295 b 542 1363 598 1347 574 1363 b 456 1326 512 1363 486 1355 b 357 1246 431 1303 389 1267 b 304 1156 319 1222 304 1193 b 370 1100 304 1126 329 1100 z "},"":{"ha":1063,"x_min":0,"x_max":0,"o":"m 24 52 b 109 -20 24 5 60 -20 b 202 60 181 -20 191 21 l 202 60 b 309 332 217 105 258 210 b 337 333 318 332 328 332 b 674 334 466 338 570 334 b 749 332 707 332 734 332 b 873 53 787 245 823 163 b 961 -20 878 13 912 -20 b 1040 56 1005 -20 1040 1 b 998 149 1040 92 1013 129 l 985 168 b 635 930 861 437 758 689 b 616 981 630 941 623 961 b 524 1067 601 1029 588 1067 b 441 985 473 1067 448 1025 b 52 140 363 830 115 244 b 24 52 31 111 24 81 z m 370 479 b 520 829 424 606 479 736 b 684 477 591 677 642 568 b 370 479 484 479 408 479 z m 308 1119 b 379 1183 356 1119 374 1151 b 424 1234 382 1206 402 1234 b 554 1133 461 1234 516 1154 b 656 1107 577 1119 621 1107 b 837 1270 781 1107 837 1192 b 763 1352 837 1329 802 1352 b 688 1281 705 1352 694 1312 b 643 1242 684 1261 663 1242 b 574 1288 618 1242 602 1263 b 417 1363 536 1322 489 1363 b 239 1204 315 1363 239 1291 b 308 1119 239 1151 265 1119 z "},"":{"ha":1063,"x_min":0,"x_max":0,"o":"m 24 52 b 109 -20 24 5 60 -20 b 202 60 181 -20 191 21 l 202 60 b 309 332 217 105 258 210 b 337 333 318 332 328 332 b 674 334 466 338 570 334 b 749 332 707 332 734 332 b 873 53 787 245 823 163 b 961 -20 878 13 912 -20 b 1040 56 1005 -20 1040 1 b 998 149 1040 92 1013 129 l 985 168 b 635 930 861 437 758 689 b 616 981 630 941 623 961 b 524 1067 601 1029 588 1067 b 441 985 473 1067 448 1025 b 52 140 363 830 115 244 b 24 52 31 111 24 81 z m 370 479 b 520 829 424 606 479 736 b 684 477 591 677 642 568 b 370 479 484 479 408 479 z m 357 1118 b 479 1257 405 1118 479 1209 b 398 1335 479 1295 440 1335 b 283 1190 351 1335 283 1248 b 357 1118 283 1147 324 1118 z m 654 1114 b 781 1244 701 1114 781 1197 l 781 1245 b 707 1326 781 1288 749 1326 b 579 1185 659 1326 579 1242 b 654 1114 579 1143 621 1114 z "},"":{"ha":1063,"x_min":0,"x_max":0,"o":"m 24 52 b 109 -20 24 5 60 -20 b 202 60 181 -20 191 21 l 202 60 b 309 332 217 105 258 210 b 337 333 318 332 328 332 b 674 334 466 338 570 334 b 749 332 707 332 734 332 b 873 53 787 245 823 163 b 961 -20 878 13 912 -20 b 1040 56 1005 -20 1040 1 b 998 149 1040 92 1013 129 l 985 168 b 635 930 861 437 758 689 b 622 964 631 938 627 950 b 752 1147 696 991 752 1050 b 543 1364 752 1263 671 1364 b 305 1152 429 1364 305 1319 b 431 963 305 1050 355 989 b 52 140 343 783 113 240 b 24 52 31 111 24 81 z m 532 1069 b 433 1147 486 1069 433 1088 b 537 1244 433 1232 502 1244 b 624 1143 583 1244 624 1213 b 532 1069 624 1090 570 1069 z m 370 479 b 520 829 424 606 479 736 b 684 477 591 677 642 568 b 370 479 484 479 408 479 z "},"":{"ha":1353,"x_min":0,"x_max":0,"o":"m 47 -19 b 144 77 111 -20 123 16 b 296 334 170 132 227 228 b 513 340 418 338 466 340 b 595 338 542 340 568 339 l 600 129 b 585 75 587 117 585 93 b 665 0 585 24 620 -1 l 1134 0 b 1259 75 1261 1 1259 39 b 1179 149 1259 133 1225 149 b 1055 129 1135 149 1097 129 l 750 129 b 747 548 749 148 747 161 l 1135 549 b 1221 619 1185 549 1221 571 b 1145 694 1221 650 1194 694 b 1043 688 1107 694 1075 688 b 747 688 1021 688 812 688 l 743 905 l 1070 905 b 1154 982 1110 906 1154 907 b 1030 1048 1154 1029 1141 1048 l 713 1048 b 661 1054 701 1050 671 1054 b 545 985 605 1054 568 1029 b -5 143 420 774 70 237 b -41 61 -29 115 -41 95 b 47 -19 -41 11 0 -19 z m 391 481 b 587 774 458 583 525 677 l 593 484 z "},"":{"ha":1014,"x_min":0,"x_max":0,"o":"m 74 513 b 597 -20 74 231 264 -20 b 847 37 694 -20 808 15 l 847 37 b 928 132 904 64 928 95 b 852 203 928 186 895 203 b 781 168 825 203 808 191 b 591 127 753 149 671 127 b 226 534 414 127 226 233 b 583 921 226 804 413 921 b 746 895 633 921 682 922 b 831 861 770 878 806 861 b 913 944 867 861 913 880 b 821 1027 913 1000 865 1012 b 598 1067 749 1053 675 1067 b 74 513 346 1067 74 903 z m 440 -211 b 366 -278 408 -211 366 -226 b 511 -370 366 -330 432 -370 b 726 -189 637 -370 726 -299 b 587 -35 726 -123 650 -35 b 530 -83 553 -35 530 -68 b 581 -195 529 -149 581 -130 b 524 -237 581 -224 559 -237 b 440 -211 492 -237 471 -211 z "},"":{"ha":896,"x_min":0,"x_max":0,"o":"m 134 77 b 215 0 134 21 169 0 l 671 0 b 794 81 734 0 794 3 b 699 150 794 135 752 150 b 637 144 675 150 656 147 b 568 138 617 141 595 138 b 291 142 469 138 380 142 l 291 548 l 717 549 b 803 619 767 549 803 571 b 726 694 803 650 775 694 b 663 690 701 694 679 692 b 627 687 650 688 637 687 b 291 688 326 687 309 687 l 291 903 l 354 903 b 583 903 380 903 408 903 b 629 901 601 901 618 901 b 711 981 673 901 711 911 b 629 1054 711 1029 697 1054 b 580 1048 621 1054 596 1049 l 222 1048 b 134 958 179 1048 134 1047 l 150 146 l 144 125 b 134 77 140 111 134 92 z m 483 1088 b 560 1169 528 1088 560 1118 b 508 1238 560 1201 523 1232 b 416 1326 477 1265 437 1303 b 345 1363 388 1358 363 1363 b 273 1295 307 1363 273 1326 b 308 1223 273 1268 278 1248 b 371 1164 332 1204 334 1199 b 395 1140 378 1158 388 1147 b 483 1088 416 1115 442 1088 z "},"":{"ha":896,"x_min":0,"x_max":0,"o":"m 134 77 b 215 0 134 21 169 0 l 671 0 b 794 81 734 0 794 3 b 699 150 794 135 752 150 b 637 144 675 150 656 147 b 568 138 617 141 595 138 b 291 142 469 138 380 142 l 291 548 l 717 549 b 803 619 767 549 803 571 b 726 694 803 650 775 694 b 663 690 701 694 679 692 b 627 687 650 688 637 687 b 291 688 326 687 309 687 l 291 903 l 354 903 b 583 903 380 903 408 903 b 629 901 601 901 618 901 b 711 981 673 901 711 911 b 629 1054 711 1029 697 1054 b 580 1048 621 1054 596 1049 l 222 1048 b 134 958 179 1048 134 1047 l 150 146 l 144 125 b 134 77 140 111 134 92 z m 477 1088 b 564 1140 517 1088 543 1115 b 588 1164 571 1147 581 1158 b 651 1223 625 1199 627 1204 b 686 1295 682 1248 686 1268 b 614 1363 686 1326 652 1363 b 543 1326 596 1363 571 1358 b 451 1238 522 1303 483 1265 b 399 1169 436 1232 399 1201 b 477 1088 399 1118 431 1088 z "},"":{"ha":896,"x_min":0,"x_max":0,"o":"m 134 77 b 215 0 134 21 169 0 l 671 0 b 794 81 734 0 794 3 b 699 150 794 135 752 150 b 637 144 675 150 656 147 b 568 138 617 141 595 138 b 291 142 469 138 380 142 l 291 548 l 717 549 b 803 619 767 549 803 571 b 726 694 803 650 775 694 b 663 690 701 694 679 692 b 627 687 650 688 637 687 b 291 688 326 687 309 687 l 291 903 l 354 903 b 583 903 380 903 408 903 b 629 901 601 901 618 901 b 711 981 673 901 711 911 b 629 1054 711 1029 697 1054 b 580 1048 621 1054 596 1049 l 222 1048 b 134 958 179 1048 134 1047 l 150 146 l 144 125 b 134 77 140 111 134 92 z m 315 1100 b 387 1127 353 1100 371 1113 b 485 1205 427 1164 448 1183 b 594 1118 525 1179 551 1154 b 658 1095 609 1107 640 1095 b 732 1156 700 1095 732 1118 b 668 1244 732 1193 716 1217 b 569 1321 646 1255 595 1295 b 487 1363 543 1347 519 1363 b 401 1326 457 1363 431 1355 b 302 1246 376 1303 334 1267 b 249 1156 264 1222 249 1193 b 315 1100 249 1126 274 1100 z "},"":{"ha":896,"x_min":0,"x_max":0,"o":"m 134 77 b 215 0 134 21 169 0 l 671 0 b 794 81 734 0 794 3 b 699 150 794 135 752 150 b 637 144 675 150 656 147 b 568 138 617 141 595 138 b 291 142 469 138 380 142 l 291 548 l 717 549 b 803 619 767 549 803 571 b 726 694 803 650 775 694 b 663 690 701 694 679 692 b 627 687 650 688 637 687 b 291 688 326 687 309 687 l 291 903 l 354 903 b 583 903 380 903 408 903 b 629 901 601 901 618 901 b 711 981 673 901 711 911 b 629 1054 711 1029 697 1054 b 580 1048 621 1054 596 1049 l 222 1048 b 134 958 179 1048 134 1047 l 150 146 l 144 125 b 134 77 140 111 134 92 z m 302 1118 b 424 1257 350 1118 424 1209 b 343 1335 424 1295 385 1335 b 228 1190 296 1335 228 1248 b 302 1118 228 1147 269 1118 z m 599 1114 b 726 1244 646 1114 726 1197 l 726 1245 b 652 1326 726 1288 694 1326 b 524 1185 604 1326 524 1242 b 599 1114 524 1143 566 1114 z "},"":{"ha":538,"x_min":0,"x_max":0,"o":"m 185 54 b 278 -20 185 7 206 -20 b 357 56 340 -20 357 12 b 354 94 357 68 356 80 l 354 93 b 342 657 345 217 342 450 b 345 937 342 772 343 859 b 351 983 347 953 351 967 b 285 1067 351 1034 326 1067 b 181 981 203 1067 181 1029 b 189 901 181 951 189 926 b 195 194 189 655 195 425 b 185 54 195 144 185 100 z m 284 1088 b 361 1169 329 1088 361 1118 b 309 1238 361 1201 324 1232 b 218 1326 278 1265 239 1303 b 146 1363 189 1358 164 1363 b 74 1295 109 1363 74 1326 b 109 1223 75 1268 79 1248 b 172 1164 134 1204 135 1199 b 196 1140 180 1158 189 1147 b 284 1088 218 1115 243 1088 z "},"":{"ha":538,"x_min":0,"x_max":0,"o":"m 185 54 b 278 -20 185 7 206 -20 b 357 56 340 -20 357 12 b 354 94 357 68 356 80 l 354 93 b 342 657 345 217 342 450 b 345 937 342 772 343 859 b 351 983 347 953 351 967 b 285 1067 351 1034 326 1067 b 181 981 203 1067 181 1029 b 189 901 181 951 189 926 b 195 194 189 655 195 425 b 185 54 195 144 185 100 z m 278 1088 b 366 1140 318 1088 344 1115 b 389 1164 372 1147 382 1158 b 452 1223 427 1199 428 1204 b 488 1295 483 1248 487 1268 b 416 1363 488 1326 453 1363 b 344 1326 397 1363 372 1358 b 252 1238 323 1303 284 1265 b 200 1169 237 1232 200 1201 b 278 1088 200 1118 233 1088 z "},"":{"ha":538,"x_min":0,"x_max":0,"o":"m 185 54 b 278 -20 185 7 206 -20 b 357 56 340 -20 357 12 b 354 94 357 68 356 80 l 354 93 b 342 657 345 217 342 450 b 345 937 342 772 343 859 b 351 983 347 953 351 967 b 285 1067 351 1034 326 1067 b 181 981 203 1067 181 1029 b 189 901 181 951 189 926 b 195 194 189 655 195 425 b 185 54 195 144 185 100 z m 117 1100 b 188 1127 154 1100 172 1113 b 286 1205 228 1164 250 1183 b 395 1118 326 1179 353 1154 b 459 1095 410 1107 441 1095 b 533 1156 501 1095 533 1118 b 469 1244 533 1193 517 1217 b 370 1321 447 1255 397 1295 b 288 1363 345 1347 320 1363 b 202 1326 258 1363 232 1355 b 103 1246 178 1303 136 1267 b 50 1156 65 1222 50 1193 b 117 1100 50 1126 75 1100 z "},"":{"ha":538,"x_min":0,"x_max":0,"o":"m 185 54 b 278 -20 185 7 206 -20 b 357 56 340 -20 357 12 b 354 94 357 68 356 80 l 354 93 b 342 657 345 217 342 450 b 345 937 342 772 343 859 b 351 983 347 953 351 967 b 285 1067 351 1034 326 1067 b 181 981 203 1067 181 1029 b 189 901 181 951 189 926 b 195 194 189 655 195 425 b 185 54 195 144 185 100 z m 104 1118 b 225 1257 151 1118 225 1209 b 144 1335 225 1295 186 1335 b 29 1190 97 1335 29 1248 b 104 1118 29 1147 71 1118 z m 400 1114 b 527 1244 448 1114 527 1197 l 527 1245 b 454 1326 527 1288 496 1326 b 326 1185 406 1326 326 1242 b 400 1114 326 1143 367 1114 z "},"":{"ha":1103,"x_min":0,"x_max":0,"o":"m 152 79 b 229 3 152 28 174 3 b 436 -13 300 3 368 -13 b 1008 564 876 -13 1008 333 b 471 1067 1008 823 871 1067 b 281 1057 406 1067 344 1057 b 201 1067 252 1057 227 1067 b 131 998 150 1067 131 1037 b 150 938 131 982 140 957 b 156 606 153 827 155 715 b 61 543 98 605 61 599 b 128 467 61 470 96 467 l 157 467 b 157 210 157 381 157 295 b 152 79 157 157 152 121 z m 303 149 l 301 465 b 520 462 375 463 448 462 b 587 533 560 462 587 481 b 515 612 587 595 541 612 b 467 605 498 612 483 605 b 300 606 458 605 435 605 l 299 910 b 446 916 340 913 411 916 b 852 528 707 916 852 829 b 444 137 852 413 781 137 b 303 149 418 137 341 139 z "},"":{"ha":1169,"x_min":0,"x_max":0,"o":"m 138 43 b 220 -20 138 5 174 -20 b 301 69 289 -20 301 22 b 297 146 301 94 298 122 b 291 805 297 264 293 389 l 332 741 b 865 45 511 500 693 280 b 958 -20 878 9 908 -20 b 1034 72 1013 -20 1034 2 b 1029 174 1034 109 1029 141 l 1029 951 b 954 1067 1029 1004 1024 1067 b 869 980 900 1067 869 1053 b 883 262 869 907 883 844 b 337 978 762 441 448 811 b 258 1059 330 1002 301 1059 b 195 1039 237 1059 214 1054 b 135 960 153 1029 135 1004 b 140 905 135 941 137 926 b 150 420 150 764 150 564 b 146 110 150 308 148 208 b 138 43 146 112 138 81 z m 372 1119 b 443 1183 420 1119 438 1151 b 488 1234 446 1206 466 1234 b 618 1133 525 1234 580 1154 b 720 1107 641 1119 685 1107 b 901 1270 844 1107 901 1192 b 827 1352 901 1329 866 1352 b 751 1281 769 1352 758 1312 b 707 1242 747 1261 727 1242 b 638 1288 682 1242 665 1263 b 481 1363 600 1322 553 1363 b 303 1204 379 1363 303 1291 b 372 1119 303 1151 329 1119 z "},"":{"ha":1142,"x_min":0,"x_max":0,"o":"m 98 524 b 571 -20 98 219 283 -20 b 1044 524 860 -20 1044 219 b 576 1067 1044 846 880 1067 b 98 524 288 1067 98 846 z m 252 524 b 573 928 252 766 369 928 b 889 524 789 928 889 741 b 573 119 889 321 787 119 b 252 524 369 119 252 321 z m 591 1088 b 668 1169 635 1088 668 1118 b 616 1238 668 1201 631 1232 b 524 1326 585 1265 545 1303 b 453 1363 496 1358 471 1363 b 380 1295 415 1363 380 1326 b 416 1223 381 1268 386 1248 b 479 1164 440 1204 441 1199 b 503 1140 486 1158 496 1147 b 591 1088 524 1115 550 1088 z "},"":{"ha":1142,"x_min":0,"x_max":0,"o":"m 98 524 b 571 -20 98 219 283 -20 b 1044 524 860 -20 1044 219 b 576 1067 1044 846 880 1067 b 98 524 288 1067 98 846 z m 252 524 b 573 928 252 766 369 928 b 889 524 789 928 889 741 b 573 119 889 321 787 119 b 252 524 369 119 252 321 z m 585 1088 b 672 1140 625 1088 650 1115 b 696 1164 679 1147 688 1158 b 759 1223 733 1199 734 1204 b 794 1295 789 1248 793 1268 b 722 1363 794 1326 760 1363 b 650 1326 704 1363 679 1358 b 559 1238 629 1303 591 1265 b 507 1169 544 1232 507 1201 b 585 1088 507 1118 539 1088 z "},"":{"ha":1142,"x_min":0,"x_max":0,"o":"m 98 524 b 571 -20 98 219 283 -20 b 1044 524 860 -20 1044 219 b 576 1067 1044 846 880 1067 b 98 524 288 1067 98 846 z m 252 524 b 573 928 252 766 369 928 b 889 524 789 928 889 741 b 573 119 889 321 787 119 b 252 524 369 119 252 321 z m 422 1100 b 494 1127 460 1100 478 1113 b 592 1205 534 1164 555 1183 b 701 1118 632 1179 659 1154 b 765 1095 716 1107 747 1095 b 839 1156 807 1095 839 1118 b 775 1244 839 1193 823 1217 b 676 1321 753 1255 703 1295 b 594 1363 650 1347 626 1363 b 508 1326 564 1363 538 1355 b 409 1246 484 1303 441 1267 b 356 1156 371 1222 356 1193 b 422 1100 356 1126 381 1100 z "},"":{"ha":1142,"x_min":0,"x_max":0,"o":"m 98 524 b 571 -20 98 219 283 -20 b 1044 524 860 -20 1044 219 b 576 1067 1044 846 880 1067 b 98 524 288 1067 98 846 z m 252 524 b 573 928 252 766 369 928 b 889 524 789 928 889 741 b 573 119 889 321 787 119 b 252 524 369 119 252 321 z m 360 1119 b 431 1183 408 1119 427 1151 b 476 1234 435 1206 454 1234 b 606 1133 513 1234 568 1154 b 708 1107 629 1119 673 1107 b 889 1270 833 1107 889 1192 b 815 1352 889 1329 854 1352 b 740 1281 758 1352 746 1312 b 695 1242 736 1261 715 1242 b 627 1288 671 1242 654 1263 b 469 1363 588 1322 541 1363 b 292 1204 368 1363 292 1291 b 360 1119 292 1151 317 1119 z "},"":{"ha":1142,"x_min":0,"x_max":0,"o":"m 98 524 b 571 -20 98 219 283 -20 b 1044 524 860 -20 1044 219 b 576 1067 1044 846 880 1067 b 98 524 288 1067 98 846 z m 252 524 b 573 928 252 766 369 928 b 889 524 789 928 889 741 b 573 119 889 321 787 119 b 252 524 369 119 252 321 z m 410 1118 b 531 1257 457 1118 531 1209 b 450 1335 531 1295 492 1335 b 335 1190 403 1335 335 1248 b 410 1118 335 1147 376 1118 z m 706 1114 b 833 1244 753 1114 833 1197 l 833 1245 b 760 1326 833 1288 802 1326 b 631 1185 711 1326 631 1242 b 706 1114 631 1143 673 1114 z "},"":{"ha":804,"x_min":0,"x_max":0,"o":"m 202 170 b 269 215 243 170 262 201 b 286 235 272 221 277 227 l 395 346 l 509 231 l 509 231 b 524 212 514 225 519 218 b 587 172 539 191 549 175 b 671 259 637 168 679 216 b 654 300 669 275 666 288 b 503 454 617 337 551 408 b 649 605 567 519 633 586 b 669 652 659 616 669 633 b 589 724 669 699 602 724 b 543 705 569 724 554 716 l 396 559 l 247 707 b 202 726 236 716 220 726 b 121 654 189 726 121 704 b 260 482 121 621 182 559 l 290 454 b 134 298 232 397 172 336 b 117 256 125 286 117 269 b 202 170 114 199 165 170 z "},"":{"ha":1142,"x_min":0,"x_max":0,"o":"m 284 -60 b 373 -134 284 -102 318 -134 b 446 -57 435 -134 444 -75 b 449 -39 446 -51 448 -43 l 463 4 b 571 -8 497 -3 533 -8 b 1044 536 860 -8 1044 231 b 828 1013 1044 752 970 924 l 848 1062 b 853 1094 851 1072 853 1084 b 772 1160 853 1131 823 1160 b 709 1114 735 1160 716 1134 b 694 1066 704 1097 699 1082 b 576 1079 657 1074 618 1079 b 98 536 288 1079 98 857 b 330 59 98 328 184 151 l 309 11 b 284 -60 290 -16 284 -47 z m 388 199 b 252 536 300 276 252 406 b 573 939 252 778 369 939 b 648 930 600 939 625 936 b 388 199 553 645 471 408 z m 507 138 b 770 867 589 383 655 574 b 889 536 850 793 889 669 b 573 130 889 332 787 130 b 507 138 550 130 528 133 z "},"":{"ha":1036,"x_min":0,"x_max":0,"o":"m 128 498 b 520 -20 130 76 323 -20 b 907 503 783 -20 907 172 b 905 709 907 580 905 644 b 902 898 903 765 902 826 b 905 992 902 931 905 962 b 823 1067 905 1027 886 1067 b 745 982 776 1067 745 1046 b 745 948 745 979 745 962 b 752 505 747 881 752 723 b 528 125 752 260 692 125 b 284 512 313 125 284 315 b 292 960 284 838 292 903 b 201 1067 292 1026 267 1067 b 130 943 144 1067 130 1020 b 128 498 130 785 127 642 z m 531 1088 b 608 1169 576 1088 608 1118 b 556 1238 608 1201 571 1232 b 465 1326 525 1265 486 1303 b 393 1363 436 1358 411 1363 b 321 1295 355 1363 321 1326 b 356 1223 321 1268 326 1248 b 419 1164 380 1204 382 1199 b 443 1140 427 1158 436 1147 b 531 1088 465 1115 490 1088 z "},"":{"ha":1036,"x_min":0,"x_max":0,"o":"m 128 498 b 520 -20 130 76 323 -20 b 907 503 783 -20 907 172 b 905 709 907 580 905 644 b 902 898 903 765 902 826 b 905 992 902 931 905 962 b 823 1067 905 1027 886 1067 b 745 982 776 1067 745 1046 b 745 948 745 979 745 962 b 752 505 747 881 752 723 b 528 125 752 260 692 125 b 284 512 313 125 284 315 b 292 960 284 838 292 903 b 201 1067 292 1026 267 1067 b 130 943 144 1067 130 1020 b 128 498 130 785 127 642 z m 525 1088 b 612 1140 565 1088 591 1115 b 636 1164 619 1147 629 1158 b 699 1223 673 1199 675 1204 b 734 1295 730 1248 734 1268 b 663 1363 734 1326 700 1363 b 591 1326 644 1363 619 1358 b 499 1238 570 1303 531 1265 b 447 1169 484 1232 447 1201 b 525 1088 447 1118 479 1088 z "},"":{"ha":1036,"x_min":0,"x_max":0,"o":"m 128 498 b 520 -20 130 76 323 -20 b 907 503 783 -20 907 172 b 905 709 907 580 905 644 b 902 898 903 765 902 826 b 905 992 902 931 905 962 b 823 1067 905 1027 886 1067 b 745 982 776 1067 745 1046 b 745 948 745 979 745 962 b 752 505 747 881 752 723 b 528 125 752 260 692 125 b 284 512 313 125 284 315 b 292 960 284 838 292 903 b 201 1067 292 1026 267 1067 b 130 943 144 1067 130 1020 b 128 498 130 785 127 642 z m 363 1100 b 434 1127 400 1100 418 1113 b 532 1205 474 1164 496 1183 b 642 1118 572 1179 599 1154 b 705 1095 656 1107 687 1095 b 779 1156 747 1095 779 1118 b 715 1244 779 1193 764 1217 b 616 1321 693 1255 643 1295 b 534 1363 591 1347 566 1363 b 448 1326 505 1363 478 1355 b 349 1246 424 1303 382 1267 b 296 1156 311 1222 296 1193 b 363 1100 296 1126 321 1100 z "},"":{"ha":1036,"x_min":0,"x_max":0,"o":"m 128 498 b 520 -20 130 76 323 -20 b 907 503 783 -20 907 172 b 905 709 907 580 905 644 b 902 898 903 765 902 826 b 905 992 902 931 905 962 b 823 1067 905 1027 886 1067 b 745 982 776 1067 745 1046 b 745 948 745 979 745 962 b 752 505 747 881 752 723 b 528 125 752 260 692 125 b 284 512 313 125 284 315 b 292 960 284 838 292 903 b 201 1067 292 1026 267 1067 b 130 943 144 1067 130 1020 b 128 498 130 785 127 642 z m 350 1118 b 471 1257 397 1118 471 1209 b 391 1335 471 1295 433 1335 b 275 1190 343 1335 275 1248 b 350 1118 275 1147 317 1118 z m 646 1114 b 773 1244 694 1114 773 1197 l 773 1245 b 700 1326 773 1288 742 1326 b 572 1185 652 1326 572 1242 b 646 1114 572 1143 613 1114 z "},"":{"ha":831,"x_min":0,"x_max":0,"o":"m 339 47 b 420 -20 339 11 372 -20 b 499 50 482 -20 499 13 b 492 450 499 185 481 345 b 780 910 554 564 670 738 b 818 988 812 941 818 972 b 734 1067 818 1053 774 1067 b 652 979 690 1067 671 1027 l 653 979 b 439 632 617 910 540 787 l 418 596 l 397 632 b 184 970 324 748 243 851 b 98 1067 165 1015 138 1067 b 14 989 48 1067 14 1040 b 54 906 14 967 31 940 b 343 451 130 797 211 673 b 339 47 349 158 339 146 z m 441 1088 b 529 1140 481 1088 507 1115 b 553 1164 536 1147 545 1158 b 616 1223 590 1199 591 1204 b 651 1295 646 1248 650 1268 b 579 1363 651 1326 616 1363 b 507 1326 561 1363 536 1358 b 416 1238 486 1303 448 1265 b 363 1169 401 1232 363 1201 b 441 1088 363 1118 396 1088 z "},"":{"ha":1009,"x_min":0,"x_max":0,"o":"m 138 60 b 231 -11 138 13 160 -11 b 311 60 295 -11 311 20 b 309 106 311 78 311 94 b 304 159 307 120 306 137 l 363 159 b 907 545 614 159 907 196 b 435 905 907 802 717 905 b 311 903 389 905 350 903 l 296 903 b 297 918 296 908 297 913 b 303 994 299 945 303 970 b 237 1065 303 1036 279 1065 b 134 993 157 1065 134 1040 b 142 913 134 966 142 939 b 149 200 142 665 149 433 b 138 60 149 152 138 106 z m 299 301 b 296 642 297 380 296 489 l 296 768 b 438 770 346 768 392 770 b 751 551 543 770 751 761 b 390 298 751 379 692 298 b 299 301 380 298 338 300 z "},"":{"ha":1011,"x_min":0,"x_max":0,"o":"m 161 48 b 241 -21 161 1 211 -21 b 320 48 273 -21 320 1 b 319 817 320 321 319 476 b 501 1024 319 979 416 1024 b 637 920 581 1024 637 979 b 548 758 637 847 593 798 b 496 648 519 730 496 700 b 646 502 496 577 587 534 b 817 274 766 435 817 382 b 691 123 817 205 771 123 b 568 172 621 123 573 156 b 560 193 565 178 562 185 b 479 269 551 225 534 269 b 399 186 431 269 399 235 b 696 -21 399 73 507 -21 b 977 276 879 -21 977 136 b 709 623 977 422 893 528 b 653 659 682 636 653 649 b 690 703 653 669 660 680 b 793 924 739 746 793 827 b 501 1161 793 1080 667 1161 b 161 809 319 1161 161 1060 b 160 709 161 732 160 729 l 127 709 b 37 635 60 709 37 674 b 125 559 37 601 60 559 l 160 559 b 161 48 160 412 161 292 z "},"":{"ha":1081,"x_min":0,"x_max":0,"o":"m 77 407 b 475 -20 77 163 241 -20 b 753 109 592 -20 697 39 b 842 -10 756 55 770 -10 b 1012 37 901 -10 957 18 b 1053 100 1044 47 1053 76 b 987 178 1053 136 1031 178 b 945 168 968 178 957 172 b 905 151 931 161 913 153 b 901 312 901 174 901 224 b 904 444 901 351 903 400 b 907 681 906 507 907 582 b 913 774 909 713 913 744 b 830 843 913 800 880 843 b 747 762 771 843 747 807 b 747 723 747 751 747 735 b 481 841 695 782 598 841 b 77 407 254 841 77 653 z m 233 407 b 486 699 233 569 338 699 b 754 436 644 699 734 547 l 754 376 b 480 126 732 258 633 126 b 233 407 324 126 233 260 z m 525 952 b 604 1033 570 952 604 981 b 552 1102 604 1065 567 1096 b 411 1234 534 1116 506 1143 b 337 1272 380 1261 356 1272 b 267 1202 300 1272 267 1233 b 302 1131 267 1173 273 1155 b 437 1003 352 1088 395 1046 l 437 1004 b 525 952 470 968 484 952 z "},"":{"ha":1081,"x_min":0,"x_max":0,"o":"m 77 407 b 475 -20 77 163 241 -20 b 753 109 592 -20 697 39 b 842 -10 756 55 770 -10 b 1012 37 901 -10 957 18 b 1053 100 1044 47 1053 76 b 987 178 1053 136 1031 178 b 945 168 968 178 957 172 b 905 151 931 161 913 153 b 901 312 901 174 901 224 b 904 444 901 351 903 400 b 907 681 906 507 907 582 b 913 774 909 713 913 744 b 830 843 913 800 880 843 b 747 762 771 843 747 807 b 747 723 747 751 747 735 b 481 841 695 782 598 841 b 77 407 254 841 77 653 z m 233 407 b 486 699 233 569 338 699 b 754 436 644 699 734 547 l 754 376 b 480 126 732 258 633 126 b 233 407 324 126 233 260 z m 478 958 b 554 994 498 958 521 964 b 699 1127 597 1036 658 1092 l 698 1126 b 750 1195 713 1132 750 1162 b 667 1276 750 1246 713 1276 b 576 1222 629 1276 610 1256 l 576 1223 l 503 1151 b 408 1026 467 1120 408 1069 b 478 958 408 994 441 958 z "},"":{"ha":1081,"x_min":0,"x_max":0,"o":"m 77 407 b 475 -20 77 163 241 -20 b 753 109 592 -20 697 39 b 842 -10 756 55 770 -10 b 1012 37 901 -10 957 18 b 1053 100 1044 47 1053 76 b 987 178 1053 136 1031 178 b 945 168 968 178 957 172 b 905 151 931 161 913 153 b 901 312 901 174 901 224 b 904 444 901 351 903 400 b 907 681 906 507 907 582 b 913 774 909 713 913 744 b 830 843 913 800 880 843 b 747 762 771 843 747 807 b 747 723 747 751 747 735 b 481 841 695 782 598 841 b 77 407 254 841 77 653 z m 233 407 b 486 699 233 569 338 699 b 754 436 644 699 734 547 l 754 376 b 480 126 732 258 633 126 b 233 407 324 126 233 260 z m 300 978 b 371 1006 336 978 357 992 b 505 1111 409 1042 471 1088 b 641 1001 547 1084 604 1035 b 705 977 655 987 687 977 b 779 1038 746 977 779 1000 b 715 1126 779 1074 756 1102 b 589 1228 692 1141 617 1201 b 508 1270 564 1253 539 1270 b 420 1234 477 1270 450 1262 b 284 1124 382 1196 349 1175 b 233 1042 247 1095 233 1080 b 300 978 233 1004 258 978 z "},"":{"ha":1081,"x_min":0,"x_max":0,"o":"m 77 407 b 475 -20 77 163 241 -20 b 753 109 592 -20 697 39 b 842 -10 756 55 770 -10 b 1012 37 901 -10 957 18 b 1053 100 1044 47 1053 76 b 987 178 1053 136 1031 178 b 945 168 968 178 957 172 b 905 151 931 161 913 153 b 901 312 901 174 901 224 b 904 444 901 351 903 400 b 907 681 906 507 907 582 b 913 774 909 713 913 744 b 830 843 913 800 880 843 b 747 762 771 843 747 807 b 747 723 747 751 747 735 b 481 841 695 782 598 841 b 77 407 254 841 77 653 z m 233 407 b 486 699 233 569 338 699 b 754 436 644 699 734 547 l 754 376 b 480 126 732 258 633 126 b 233 407 324 126 233 260 z m 281 967 b 348 1029 327 967 338 1000 b 391 1076 356 1052 363 1076 b 521 981 425 1076 486 1002 b 623 956 545 967 589 956 b 798 1124 747 956 798 1046 b 724 1202 798 1183 762 1202 b 654 1139 670 1202 661 1168 b 616 1097 649 1119 642 1097 b 541 1142 592 1097 568 1117 b 384 1217 503 1177 456 1217 b 213 1052 282 1217 213 1139 b 281 967 213 998 239 967 z "},"":{"ha":1081,"x_min":0,"x_max":0,"o":"m 77 407 b 475 -20 77 163 241 -20 b 753 109 592 -20 697 39 b 842 -10 756 55 770 -10 b 1012 37 901 -10 957 18 b 1053 100 1044 47 1053 76 b 987 178 1053 136 1031 178 b 945 168 968 178 957 172 b 905 151 931 161 913 153 b 901 312 901 174 901 224 b 904 444 901 351 903 400 b 907 681 906 507 907 582 b 913 774 909 713 913 744 b 830 843 913 800 880 843 b 747 762 771 843 747 807 b 747 723 747 751 747 735 b 481 841 695 782 598 841 b 77 407 254 841 77 653 z m 233 407 b 486 699 233 569 338 699 b 754 436 644 699 734 547 l 754 376 b 480 126 732 258 633 126 b 233 407 324 126 233 260 z m 331 946 b 452 1085 378 946 452 1038 b 372 1163 452 1122 413 1163 b 256 1018 323 1163 256 1076 b 331 946 256 974 297 946 z m 618 941 b 745 1072 666 941 745 1025 l 745 1073 b 672 1155 745 1116 713 1155 b 544 1013 624 1155 544 1070 b 618 941 544 970 585 941 z "},"":{"ha":1081,"x_min":0,"x_max":0,"o":"m 77 407 b 475 -20 77 163 241 -20 b 753 109 592 -20 697 39 b 842 -10 756 55 770 -10 b 1012 37 901 -10 957 18 b 1053 100 1044 47 1053 76 b 987 178 1053 136 1031 178 b 945 168 968 178 957 172 b 905 151 931 161 913 153 b 901 312 901 174 901 224 b 904 444 901 351 903 400 b 907 681 906 507 907 582 b 913 774 909 713 913 744 b 830 843 913 800 880 843 b 747 762 771 843 747 807 b 747 723 747 751 747 735 b 481 841 695 782 598 841 b 77 407 254 841 77 653 z m 233 407 b 486 699 233 569 338 699 b 754 436 644 699 734 547 l 754 376 b 480 126 732 258 633 126 b 233 407 324 126 233 260 z m 519 906 b 744 1112 634 906 744 977 b 535 1333 744 1227 662 1333 b 296 1116 420 1333 296 1283 b 519 906 296 975 391 906 z m 522 1025 b 424 1112 477 1025 424 1052 b 528 1213 424 1196 492 1213 b 616 1107 575 1213 616 1178 b 522 1025 616 1054 560 1025 z "},"":{"ha":1569,"x_min":0,"x_max":0,"o":"m 94 220 b 382 -13 94 83 229 -13 b 782 142 558 -13 701 47 b 1091 -13 851 52 958 -13 b 1440 170 1191 -13 1372 21 b 1444 194 1442 176 1444 183 b 1376 262 1444 226 1419 262 b 1308 220 1352 262 1326 245 b 1101 135 1270 171 1233 135 b 838 352 1031 135 868 188 b 1411 383 1033 359 1288 371 b 1488 458 1468 390 1488 421 b 1462 532 1488 488 1474 516 b 1123 831 1440 680 1312 831 b 789 677 972 831 867 773 b 474 831 749 779 622 831 b 179 760 357 831 262 803 b 140 690 153 745 140 709 b 210 612 140 657 172 612 b 236 620 220 612 228 614 b 471 684 303 657 361 683 b 692 516 611 684 692 614 l 692 486 b 458 487 630 487 484 487 b 94 220 216 487 94 406 z m 846 489 b 1119 686 878 599 969 686 b 1316 514 1230 686 1303 601 b 846 489 1217 504 1067 499 z m 248 224 b 517 352 248 327 330 352 b 611 351 557 352 593 351 b 694 351 642 351 673 351 b 709 283 697 328 702 305 b 675 245 696 275 684 262 l 675 246 b 406 132 635 188 538 132 b 248 224 339 132 248 159 z "},"":{"ha":939,"x_min":0,"x_max":0,"o":"m 77 410 b 495 -20 77 176 250 -20 b 800 90 597 -20 717 7 b 848 186 823 115 845 148 b 779 260 850 218 834 256 b 709 222 752 262 724 241 b 502 126 660 159 570 126 b 239 400 317 126 239 285 b 497 689 239 551 325 689 b 694 593 644 689 672 637 b 771 535 710 561 723 535 b 840 613 818 535 840 570 b 827 734 840 654 827 693 b 831 798 827 758 831 778 b 762 861 831 836 805 861 b 681 795 728 861 690 850 b 519 836 643 820 585 836 b 77 410 209 836 77 629 z m 352 -211 b 277 -278 320 -211 277 -226 b 422 -370 277 -330 344 -370 b 638 -189 549 -370 638 -299 b 499 -35 638 -123 562 -35 b 442 -83 465 -35 442 -68 b 492 -195 441 -149 492 -130 b 435 -237 492 -224 471 -237 b 352 -211 404 -237 382 -211 z "},"":{"ha":951,"x_min":0,"x_max":0,"o":"m 242 306 b 798 428 433 350 615 382 b 870 505 839 438 870 465 b 844 572 870 529 861 557 b 503 836 811 727 677 836 b 77 395 261 836 77 663 b 474 -20 77 211 205 -20 b 812 111 625 -20 736 41 b 857 187 846 142 857 170 b 785 261 857 232 830 261 b 713 210 762 261 731 237 b 475 126 694 182 616 126 b 242 306 385 126 277 171 z m 231 431 b 498 689 244 586 345 689 b 704 535 597 689 673 619 b 231 431 542 496 383 467 z m 495 952 b 574 1033 540 952 574 981 b 522 1102 574 1065 537 1096 b 381 1234 505 1116 476 1143 b 307 1272 351 1261 326 1272 b 237 1202 270 1272 237 1233 b 273 1131 237 1173 243 1155 b 408 1003 322 1088 365 1046 l 408 1004 b 495 952 440 968 454 952 z "},"":{"ha":951,"x_min":0,"x_max":0,"o":"m 242 306 b 798 428 433 350 615 382 b 870 505 839 438 870 465 b 844 572 870 529 861 557 b 503 836 811 727 677 836 b 77 395 261 836 77 663 b 474 -20 77 211 205 -20 b 812 111 625 -20 736 41 b 857 187 846 142 857 170 b 785 261 857 232 830 261 b 713 210 762 261 731 237 b 475 126 694 182 616 126 b 242 306 385 126 277 171 z m 231 431 b 498 689 244 586 345 689 b 704 535 597 689 673 619 b 231 431 542 496 383 467 z m 449 958 b 525 994 469 958 492 964 b 669 1127 568 1036 629 1092 l 669 1126 b 721 1195 684 1132 721 1162 b 638 1276 721 1246 684 1276 b 547 1222 600 1276 581 1256 l 547 1223 l 474 1151 b 378 1026 438 1120 378 1069 b 449 958 378 994 412 958 z "},"":{"ha":951,"x_min":0,"x_max":0,"o":"m 242 306 b 798 428 433 350 615 382 b 870 505 839 438 870 465 b 844 572 870 529 861 557 b 503 836 811 727 677 836 b 77 395 261 836 77 663 b 474 -20 77 211 205 -20 b 812 111 625 -20 736 41 b 857 187 846 142 857 170 b 785 261 857 232 830 261 b 713 210 762 261 731 237 b 475 126 694 182 616 126 b 242 306 385 126 277 171 z m 231 431 b 498 689 244 586 345 689 b 704 535 597 689 673 619 b 231 431 542 496 383 467 z m 271 978 b 342 1006 307 978 328 992 b 476 1111 380 1042 442 1088 b 612 1001 517 1084 575 1035 b 675 977 626 987 658 977 b 750 1038 717 977 750 1000 b 686 1126 750 1074 727 1102 b 560 1228 663 1141 588 1201 b 479 1270 534 1253 510 1270 b 391 1234 448 1270 421 1262 b 255 1124 353 1196 320 1175 b 204 1042 218 1095 204 1080 b 271 978 204 1004 229 978 z "},"":{"ha":951,"x_min":0,"x_max":0,"o":"m 242 306 b 798 428 433 350 615 382 b 870 505 839 438 870 465 b 844 572 870 529 861 557 b 503 836 811 727 677 836 b 77 395 261 836 77 663 b 474 -20 77 211 205 -20 b 812 111 625 -20 736 41 b 857 187 846 142 857 170 b 785 261 857 232 830 261 b 713 210 762 261 731 237 b 475 126 694 182 616 126 b 242 306 385 126 277 171 z m 231 431 b 498 689 244 586 345 689 b 704 535 597 689 673 619 b 231 431 542 496 383 467 z m 302 946 b 422 1085 349 946 422 1038 b 342 1163 422 1122 384 1163 b 227 1018 294 1163 227 1076 b 302 946 227 974 268 946 z m 589 941 b 716 1072 637 941 716 1025 l 716 1073 b 643 1155 716 1116 684 1155 b 515 1013 595 1155 515 1070 b 589 941 515 970 555 941 z "},"":{"ha":558,"x_min":0,"x_max":0,"o":"m 211 51 b 289 -20 211 7 236 -20 b 430 11 313 -20 375 -4 b 501 92 477 25 507 49 b 438 147 494 125 485 147 b 363 130 407 147 393 132 b 365 646 361 319 365 482 b 374 758 365 686 374 721 b 310 827 374 800 356 827 b 212 822 280 827 245 822 b 111 827 180 822 146 827 b 46 753 76 827 46 801 b 117 680 46 699 85 680 b 217 684 144 680 190 682 b 221 189 220 505 221 351 b 211 51 221 103 211 96 z m 279 952 b 358 1033 323 952 358 981 b 306 1102 358 1065 321 1096 b 165 1234 288 1116 260 1143 b 91 1272 134 1261 110 1272 b 20 1202 54 1272 20 1233 b 56 1131 20 1173 26 1155 b 191 1003 106 1088 149 1046 l 191 1004 b 279 952 224 968 237 952 z "},"":{"ha":558,"x_min":0,"x_max":0,"o":"m 211 51 b 289 -20 211 7 236 -20 b 430 11 313 -20 375 -4 b 501 92 477 25 507 49 b 438 147 494 125 485 147 b 363 130 407 147 393 132 b 365 646 361 319 365 482 b 374 758 365 686 374 721 b 310 827 374 800 356 827 b 212 822 280 827 245 822 b 111 827 180 822 146 827 b 46 753 76 827 46 801 b 117 680 46 699 85 680 b 217 684 144 680 190 682 b 221 189 220 505 221 351 b 211 51 221 103 211 96 z m 233 958 b 309 994 253 958 275 964 b 453 1127 351 1036 412 1092 l 452 1126 b 505 1195 467 1132 505 1162 b 422 1276 505 1246 467 1276 b 331 1222 384 1276 364 1256 l 331 1223 l 258 1151 b 162 1026 222 1120 162 1069 b 233 958 162 994 196 958 z "},"":{"ha":558,"x_min":0,"x_max":0,"o":"m 211 51 b 289 -20 211 7 236 -20 b 430 11 313 -20 375 -4 b 501 92 477 25 507 49 b 438 147 494 125 485 147 b 363 130 407 147 393 132 b 365 646 361 319 365 482 b 374 758 365 686 374 721 b 310 827 374 800 356 827 b 212 822 280 827 245 822 b 111 827 180 822 146 827 b 46 753 76 827 46 801 b 117 680 46 699 85 680 b 217 684 144 680 190 682 b 221 189 220 505 221 351 b 211 51 221 103 211 96 z m 55 978 b 125 1006 91 978 111 992 b 260 1111 163 1042 226 1088 b 395 1001 301 1084 359 1035 b 459 977 410 987 441 977 b 534 1038 500 977 534 1000 b 470 1126 534 1074 511 1102 b 344 1228 446 1141 372 1201 b 262 1270 318 1253 294 1270 b 175 1234 231 1270 205 1262 b 39 1124 137 1196 104 1175 b -12 1042 1 1095 -12 1080 b 55 978 -12 1004 13 978 z "},"":{"ha":558,"x_min":0,"x_max":0,"o":"m 211 51 b 289 -20 211 7 236 -20 b 430 11 313 -20 375 -4 b 501 92 477 25 507 49 b 438 147 494 125 485 147 b 363 130 407 147 393 132 b 365 646 361 319 365 482 b 374 758 365 686 374 721 b 310 827 374 800 356 827 b 212 822 280 827 245 822 b 111 827 180 822 146 827 b 46 753 76 827 46 801 b 117 680 46 699 85 680 b 217 684 144 680 190 682 b 221 189 220 505 221 351 b 211 51 221 103 211 96 z m 85 946 b 206 1085 132 946 206 1038 b 126 1163 206 1122 168 1163 b 10 1018 78 1163 10 1076 b 85 946 10 974 52 946 z m 372 941 b 500 1072 420 941 500 1025 l 500 1073 b 427 1155 500 1116 468 1155 b 298 1013 378 1155 298 1070 b 372 941 298 970 339 941 z "},"":{"ha":919,"x_min":0,"x_max":0,"o":"m 58 406 b 459 -20 58 155 248 -20 b 861 432 711 -20 861 168 b 730 939 861 617 818 783 b 545 1133 690 1005 622 1074 l 591 1177 b 623 1246 607 1194 623 1225 b 544 1314 623 1292 585 1314 b 494 1288 526 1314 507 1301 l 427 1211 b 240 1288 359 1250 294 1278 b 144 1218 197 1293 144 1267 b 207 1145 144 1188 163 1159 b 331 1102 250 1136 291 1121 b 269 1037 311 1080 291 1059 b 243 980 252 1019 243 996 b 314 911 243 929 287 911 b 368 932 335 911 355 923 b 448 1027 398 969 424 1000 b 637 787 530 961 596 876 b 448 826 585 812 506 826 b 58 406 195 826 58 624 z m 213 400 b 450 685 213 572 307 685 b 674 610 522 685 614 671 b 703 464 702 581 703 500 b 461 125 703 210 602 125 b 213 400 337 125 213 234 z "},"":{"ha":1100,"x_min":0,"x_max":0,"o":"m 192 50 b 261 -20 192 6 208 -20 b 326 -5 277 -20 296 -13 b 359 1 334 -2 346 -1 b 465 83 406 6 465 14 b 391 153 465 128 439 153 b 363 148 383 153 373 151 l 345 142 b 344 208 343 166 344 187 b 347 418 344 279 345 349 b 348 542 347 460 347 501 b 618 689 410 616 512 689 b 819 420 772 689 819 543 b 750 146 819 313 802 211 b 722 62 730 122 722 90 b 787 -20 722 26 744 -20 b 921 16 818 -21 831 -12 l 994 33 b 1049 111 1040 49 1049 85 b 973 180 1049 161 1023 184 b 920 167 960 178 940 173 b 974 420 951 243 974 340 b 627 836 974 682 856 836 b 354 722 509 836 416 781 b 356 762 355 735 356 751 b 292 831 356 806 328 831 b 236 829 277 831 256 830 b 180 826 218 827 199 826 b 138 831 165 826 152 831 b 73 758 102 831 73 806 b 144 684 73 704 112 684 b 193 688 166 684 182 686 b 199 387 199 399 199 393 b 201 189 201 320 201 260 b 195 100 201 153 198 125 b 192 50 193 84 192 66 z m 414 967 b 481 1029 460 967 471 1000 b 524 1076 489 1052 496 1076 b 654 981 557 1076 619 1002 b 755 956 677 967 722 956 b 930 1124 880 956 930 1046 b 857 1202 930 1183 895 1202 b 787 1139 803 1202 793 1168 b 749 1097 782 1119 775 1097 b 674 1142 725 1097 701 1117 b 517 1217 635 1177 589 1217 b 346 1052 415 1217 346 1139 b 414 967 346 998 372 967 z "},"":{"ha":990,"x_min":0,"x_max":0,"o":"m 74 409 b 495 -20 74 151 267 -20 b 916 409 723 -20 916 151 b 495 836 916 644 750 836 b 74 409 262 836 74 644 z m 231 409 b 494 689 231 562 327 689 b 760 409 663 689 760 562 b 494 126 760 224 639 126 b 231 409 332 126 231 237 z m 514 952 b 593 1033 559 952 593 981 b 541 1102 593 1065 556 1096 b 400 1234 524 1116 495 1143 b 326 1272 370 1261 345 1272 b 256 1202 289 1272 256 1233 b 292 1131 256 1173 262 1155 b 427 1003 341 1088 384 1046 l 427 1004 b 514 952 459 968 473 952 z "},"":{"ha":990,"x_min":0,"x_max":0,"o":"m 74 409 b 495 -20 74 151 267 -20 b 916 409 723 -20 916 151 b 495 836 916 644 750 836 b 74 409 262 836 74 644 z m 231 409 b 494 689 231 562 327 689 b 760 409 663 689 760 562 b 494 126 760 224 639 126 b 231 409 332 126 231 237 z m 467 958 b 543 994 488 958 510 964 b 688 1127 586 1036 647 1092 l 687 1126 b 739 1195 702 1132 739 1162 b 656 1276 739 1246 702 1276 b 566 1222 618 1276 599 1256 l 566 1223 l 492 1151 b 397 1026 456 1120 397 1069 b 467 958 397 994 431 958 z "},"":{"ha":990,"x_min":0,"x_max":0,"o":"m 74 409 b 495 -20 74 151 267 -20 b 916 409 723 -20 916 151 b 495 836 916 644 750 836 b 74 409 262 836 74 644 z m 231 409 b 494 689 231 562 327 689 b 760 409 663 689 760 562 b 494 126 760 224 639 126 b 231 409 332 126 231 237 z m 290 978 b 361 1006 326 978 347 992 b 495 1111 399 1042 461 1088 b 631 1001 536 1084 594 1035 b 694 977 645 987 677 977 b 769 1038 736 977 769 1000 b 705 1126 769 1074 746 1102 b 579 1228 682 1141 607 1201 b 498 1270 553 1253 529 1270 b 410 1234 467 1270 440 1262 b 274 1124 372 1196 339 1175 b 223 1042 237 1095 223 1080 b 290 978 223 1004 248 978 z "},"":{"ha":990,"x_min":0,"x_max":0,"o":"m 74 409 b 495 -20 74 151 267 -20 b 916 409 723 -20 916 151 b 495 836 916 644 750 836 b 74 409 262 836 74 644 z m 231 409 b 494 689 231 562 327 689 b 760 409 663 689 760 562 b 494 126 760 224 639 126 b 231 409 332 126 231 237 z m 271 967 b 338 1029 317 967 328 1000 b 380 1076 346 1052 353 1076 b 511 981 414 1076 476 1002 b 612 956 534 967 578 956 b 787 1124 737 956 787 1046 b 714 1202 787 1183 752 1202 b 644 1139 660 1202 650 1168 b 606 1097 639 1119 632 1097 b 531 1142 582 1097 558 1117 b 374 1217 492 1177 446 1217 b 203 1052 272 1217 203 1139 b 271 967 203 998 229 967 z "},"":{"ha":990,"x_min":0,"x_max":0,"o":"m 74 409 b 495 -20 74 151 267 -20 b 916 409 723 -20 916 151 b 495 836 916 644 750 836 b 74 409 262 836 74 644 z m 231 409 b 494 689 231 562 327 689 b 760 409 663 689 760 562 b 494 126 760 224 639 126 b 231 409 332 126 231 237 z m 321 946 b 441 1085 368 946 441 1038 b 361 1163 441 1122 403 1163 b 245 1018 313 1163 245 1076 b 321 946 245 974 287 946 z m 608 941 b 735 1072 656 941 735 1025 l 735 1073 b 662 1155 735 1116 703 1155 b 534 1013 614 1155 534 1070 b 608 941 534 970 574 941 z "},"":{"ha":804,"x_min":0,"x_max":0,"o":"m 296 176 b 380 92 296 133 318 92 b 465 220 445 92 465 140 l 465 224 b 385 330 465 252 463 330 b 296 176 308 330 296 223 z m 296 749 b 380 665 296 706 318 665 b 465 793 445 665 465 713 l 465 798 b 385 903 465 825 463 903 b 296 749 308 903 296 796 z m 138 418 b 556 414 450 414 503 414 b 641 413 592 414 618 413 b 707 493 682 413 707 444 b 637 570 707 555 671 570 b 589 563 616 570 602 568 l 168 564 b 71 503 110 564 71 559 b 138 418 71 433 106 418 z "},"":{"ha":990,"x_min":0,"x_max":0,"o":"m 264 -64 b 260 -85 262 -71 260 -79 b 342 -157 260 -116 288 -157 b 410 -110 381 -157 402 -129 b 417 -61 416 -95 413 -77 l 429 -15 b 495 -20 450 -18 473 -20 b 916 409 723 -20 916 151 b 669 801 916 585 823 736 l 699 894 b 703 919 702 900 703 909 b 630 983 703 960 673 983 b 567 938 592 983 571 960 l 539 833 b 495 836 525 835 510 836 b 74 409 262 836 74 644 b 294 28 74 233 163 97 b 264 -64 284 -1 274 -31 z m 340 170 b 231 409 270 217 231 301 b 494 689 231 562 327 689 l 500 689 b 340 170 453 524 406 374 z m 466 127 b 624 658 515 307 564 467 b 760 409 711 611 760 516 b 494 126 760 224 639 126 b 466 127 485 126 475 126 z "},"":{"ha":975,"x_min":0,"x_max":0,"o":"m 106 370 b 460 -20 106 117 225 -20 b 707 79 528 -20 624 7 b 703 56 705 71 703 66 b 776 -20 703 28 722 -20 b 867 58 861 -17 867 9 b 862 135 867 87 862 111 b 858 607 862 310 858 458 b 857 727 857 659 857 701 b 793 836 857 787 857 836 b 681 806 751 836 718 812 b 570 728 614 792 570 785 b 643 650 570 675 606 650 b 711 663 656 650 684 655 b 715 449 715 578 715 526 b 713 246 715 387 715 322 b 463 122 645 175 551 122 b 256 370 327 122 256 201 b 344 680 256 481 286 616 b 378 759 366 705 378 733 b 297 836 378 801 355 836 b 219 816 269 836 242 825 b 168 799 202 809 182 801 b 71 722 108 787 71 777 b 140 646 71 701 71 646 b 165 650 149 646 157 647 b 106 370 124 560 106 454 z m 522 952 b 602 1033 567 952 602 981 b 549 1102 602 1065 564 1096 b 408 1234 532 1116 503 1143 b 334 1272 378 1261 353 1272 b 264 1202 297 1272 264 1233 b 300 1131 264 1173 270 1155 b 435 1003 349 1088 392 1046 l 435 1004 b 522 952 467 968 481 952 z "},"":{"ha":975,"x_min":0,"x_max":0,"o":"m 106 370 b 460 -20 106 117 225 -20 b 707 79 528 -20 624 7 b 703 56 705 71 703 66 b 776 -20 703 28 722 -20 b 867 58 861 -17 867 9 b 862 135 867 87 862 111 b 858 607 862 310 858 458 b 857 727 857 659 857 701 b 793 836 857 787 857 836 b 681 806 751 836 718 812 b 570 728 614 792 570 785 b 643 650 570 675 606 650 b 711 663 656 650 684 655 b 715 449 715 578 715 526 b 713 246 715 387 715 322 b 463 122 645 175 551 122 b 256 370 327 122 256 201 b 344 680 256 481 286 616 b 378 759 366 705 378 733 b 297 836 378 801 355 836 b 219 816 269 836 242 825 b 168 799 202 809 182 801 b 71 722 108 787 71 777 b 140 646 71 701 71 646 b 165 650 149 646 157 647 b 106 370 124 560 106 454 z m 475 958 b 551 994 496 958 518 964 b 696 1127 594 1036 655 1092 l 695 1126 b 747 1195 710 1132 747 1162 b 665 1276 747 1246 710 1276 b 574 1222 627 1276 607 1256 l 574 1223 l 500 1151 b 405 1026 465 1120 405 1069 b 475 958 405 994 439 958 z "},"":{"ha":975,"x_min":0,"x_max":0,"o":"m 106 370 b 460 -20 106 117 225 -20 b 707 79 528 -20 624 7 b 703 56 705 71 703 66 b 776 -20 703 28 722 -20 b 867 58 861 -17 867 9 b 862 135 867 87 862 111 b 858 607 862 310 858 458 b 857 727 857 659 857 701 b 793 836 857 787 857 836 b 681 806 751 836 718 812 b 570 728 614 792 570 785 b 643 650 570 675 606 650 b 711 663 656 650 684 655 b 715 449 715 578 715 526 b 713 246 715 387 715 322 b 463 122 645 175 551 122 b 256 370 327 122 256 201 b 344 680 256 481 286 616 b 378 759 366 705 378 733 b 297 836 378 801 355 836 b 219 816 269 836 242 825 b 168 799 202 809 182 801 b 71 722 108 787 71 777 b 140 646 71 701 71 646 b 165 650 149 646 157 647 b 106 370 124 560 106 454 z m 298 978 b 369 1006 334 978 355 992 b 503 1111 407 1042 469 1088 b 639 1001 545 1084 602 1035 b 703 977 653 987 685 977 b 777 1038 744 977 777 1000 b 713 1126 777 1074 754 1102 b 587 1228 690 1141 615 1201 b 506 1270 562 1253 537 1270 b 418 1234 475 1270 448 1262 b 282 1124 380 1196 347 1175 b 231 1042 245 1095 231 1080 b 298 978 231 1004 256 978 z "},"":{"ha":975,"x_min":0,"x_max":0,"o":"m 106 370 b 460 -20 106 117 225 -20 b 707 79 528 -20 624 7 b 703 56 705 71 703 66 b 776 -20 703 28 722 -20 b 867 58 861 -17 867 9 b 862 135 867 87 862 111 b 858 607 862 310 858 458 b 857 727 857 659 857 701 b 793 836 857 787 857 836 b 681 806 751 836 718 812 b 570 728 614 792 570 785 b 643 650 570 675 606 650 b 711 663 656 650 684 655 b 715 449 715 578 715 526 b 713 246 715 387 715 322 b 463 122 645 175 551 122 b 256 370 327 122 256 201 b 344 680 256 481 286 616 b 378 759 366 705 378 733 b 297 836 378 801 355 836 b 219 816 269 836 242 825 b 168 799 202 809 182 801 b 71 722 108 787 71 777 b 140 646 71 701 71 646 b 165 650 149 646 157 647 b 106 370 124 560 106 454 z m 329 946 b 450 1085 376 946 450 1038 b 370 1163 450 1122 411 1163 b 254 1018 321 1163 254 1076 b 329 946 254 974 295 946 z m 616 941 b 743 1072 664 941 743 1025 l 743 1073 b 670 1155 743 1116 711 1155 b 542 1013 622 1155 542 1070 b 616 941 542 970 583 941 z "},"":{"ha":988,"x_min":0,"x_max":0,"o":"m 141 -151 b 473 -338 141 -260 302 -338 b 874 49 709 -338 874 -254 b 870 176 874 98 870 137 b 873 726 873 724 873 726 b 876 757 875 734 876 746 b 802 836 876 836 822 836 b 741 819 789 836 760 829 l 742 820 l 637 790 b 565 711 587 782 565 755 b 644 644 565 660 606 644 b 724 663 660 644 698 654 l 724 250 l 724 235 b 490 123 680 159 607 123 b 238 401 357 123 238 195 b 384 703 238 513 307 673 b 414 767 409 722 414 746 b 346 836 414 808 383 836 b 271 820 323 836 301 829 b 183 796 249 813 217 804 b 70 705 96 778 70 752 b 142 640 70 675 101 640 b 155 640 147 640 151 640 b 88 396 109 559 88 457 b 492 -20 88 90 277 -20 b 726 62 602 -20 676 16 b 726 57 726 60 726 58 b 479 -194 721 -137 619 -194 b 289 -119 404 -194 342 -185 b 223 -73 273 -100 251 -73 b 141 -151 164 -73 141 -121 z m 452 958 b 528 994 473 958 495 964 b 673 1127 571 1036 632 1092 l 672 1126 b 724 1195 687 1132 724 1162 b 642 1276 724 1246 687 1276 b 551 1222 604 1276 584 1256 l 551 1223 l 477 1151 b 382 1026 441 1120 382 1069 b 452 958 382 994 416 958 z "},"":{"ha":1020,"x_min":0,"x_max":0,"o":"m 137 -163 b 206 -235 137 -211 168 -235 b 283 -122 274 -235 283 -198 b 282 77 283 27 282 48 b 546 -21 336 20 451 -21 b 939 414 779 -21 939 169 b 545 836 939 673 778 836 b 270 714 434 836 336 795 b 276 1018 275 821 276 920 b 282 1056 280 1034 282 1043 b 218 1127 282 1101 257 1127 b 115 1122 180 1126 148 1122 b 66 1127 98 1122 83 1127 b 7 1054 31 1127 7 1102 b 83 981 7 1000 51 981 b 135 986 101 981 118 986 b 137 -163 136 562 137 220 z m 279 407 b 534 690 279 572 398 690 b 775 414 689 690 775 557 b 541 122 775 245 692 122 b 279 407 413 122 279 224 z "},"":{"ha":988,"x_min":0,"x_max":0,"o":"m 141 -151 b 473 -338 141 -260 302 -338 b 874 49 709 -338 874 -254 b 870 176 874 98 870 137 b 873 726 873 724 873 726 b 876 757 875 734 876 746 b 802 836 876 836 822 836 b 741 819 789 836 760 829 l 742 820 l 637 790 b 565 711 587 782 565 755 b 644 644 565 660 606 644 b 724 663 660 644 698 654 l 724 250 l 724 235 b 490 123 680 159 607 123 b 238 401 357 123 238 195 b 384 703 238 513 307 673 b 414 767 409 722 414 746 b 346 836 414 808 383 836 b 271 820 323 836 301 829 b 183 796 249 813 217 804 b 70 705 96 778 70 752 b 142 640 70 675 101 640 b 155 640 147 640 151 640 b 88 396 109 559 88 457 b 492 -20 88 90 277 -20 b 726 62 602 -20 676 16 b 726 57 726 60 726 58 b 479 -194 721 -137 619 -194 b 289 -119 404 -194 342 -185 b 223 -73 273 -100 251 -73 b 141 -151 164 -73 141 -121 z m 306 946 b 427 1085 353 946 427 1038 b 347 1163 427 1122 388 1163 b 231 1018 298 1163 231 1076 b 306 946 231 974 272 946 z m 593 941 b 720 1072 641 941 720 1025 l 720 1073 b 647 1155 720 1116 688 1155 b 519 1013 599 1155 519 1070 b 593 941 519 970 559 941 z "},"":{"ha":1063,"x_min":0,"x_max":0,"o":"m 24 52 b 109 -20 24 5 60 -20 b 202 60 181 -20 191 21 l 202 60 b 309 332 217 105 258 210 b 337 333 318 332 328 332 b 674 334 466 338 570 334 b 749 332 707 332 734 332 b 873 53 787 245 823 163 b 961 -20 878 13 912 -20 b 1040 56 1005 -20 1040 1 b 998 149 1040 92 1013 129 l 985 168 b 635 930 861 437 758 689 b 616 981 630 941 623 961 b 524 1067 601 1029 588 1067 b 441 985 473 1067 448 1025 b 52 140 363 830 115 244 b 24 52 31 111 24 81 z m 370 479 b 520 829 424 606 479 736 b 684 477 591 677 642 568 b 370 479 484 479 408 479 z m 340 1108 b 710 1108 484 1112 623 1109 b 791 1178 751 1108 791 1118 b 708 1247 791 1245 752 1251 b 344 1240 633 1241 443 1240 b 249 1180 286 1240 249 1219 b 340 1108 249 1119 293 1107 z "},"":{"ha":1081,"x_min":0,"x_max":0,"o":"m 77 407 b 475 -20 77 163 241 -20 b 753 109 592 -20 697 39 b 842 -10 756 55 770 -10 b 1012 37 901 -10 957 18 b 1053 100 1044 47 1053 76 b 987 178 1053 136 1031 178 b 945 168 968 178 957 172 b 905 151 931 161 913 153 b 901 312 901 174 901 224 b 904 444 901 351 903 400 b 907 681 906 507 907 582 b 913 774 909 713 913 744 b 830 843 913 800 880 843 b 747 762 771 843 747 807 b 747 723 747 751 747 735 b 481 841 695 782 598 841 b 77 407 254 841 77 653 z m 233 407 b 486 699 233 569 338 699 b 754 436 644 699 734 547 l 754 376 b 480 126 732 258 633 126 b 233 407 324 126 233 260 z m 317 994 b 457 1000 367 994 412 1000 b 688 994 541 1000 614 994 b 769 1064 711 994 769 1004 b 686 1133 769 1131 730 1133 b 504 1121 623 1133 564 1121 b 321 1126 439 1121 380 1126 b 227 1065 264 1126 227 1105 b 317 994 227 1005 271 994 z "},"":{"ha":1063,"x_min":0,"x_max":0,"o":"m 24 52 b 109 -20 24 5 60 -20 b 202 60 181 -20 191 21 l 202 60 b 309 332 217 105 258 210 b 337 333 318 332 328 332 b 674 334 466 338 570 334 b 749 332 707 332 734 332 b 873 53 787 245 823 163 b 961 -20 878 13 912 -20 b 1040 56 1005 -20 1040 1 b 998 149 1040 92 1013 129 l 985 168 b 635 930 861 437 758 689 b 616 981 630 941 623 961 b 524 1067 601 1029 588 1067 b 441 985 473 1067 448 1025 b 52 140 363 830 115 244 b 24 52 31 111 24 81 z m 370 479 b 520 829 424 606 479 736 b 684 477 591 677 642 568 b 370 479 484 479 408 479 z m 549 1100 b 783 1297 655 1100 783 1170 b 719 1358 783 1340 751 1358 b 661 1303 688 1358 666 1338 b 551 1217 652 1248 609 1217 b 436 1303 490 1217 446 1248 b 377 1358 431 1337 409 1358 b 314 1301 348 1358 314 1341 b 549 1100 314 1172 438 1100 z "},"":{"ha":1081,"x_min":0,"x_max":0,"o":"m 77 407 b 475 -20 77 163 241 -20 b 753 109 592 -20 697 39 b 842 -10 756 55 770 -10 b 1012 37 901 -10 957 18 b 1053 100 1044 47 1053 76 b 987 178 1053 136 1031 178 b 945 168 968 178 957 172 b 905 151 931 161 913 153 b 901 312 901 174 901 224 b 904 444 901 351 903 400 b 907 681 906 507 907 582 b 913 774 909 713 913 744 b 830 843 913 800 880 843 b 747 762 771 843 747 807 b 747 723 747 751 747 735 b 481 841 695 782 598 841 b 77 407 254 841 77 653 z m 233 407 b 486 699 233 569 338 699 b 754 436 644 699 734 547 l 754 376 b 480 126 732 258 633 126 b 233 407 324 126 233 260 z m 521 956 b 758 1158 628 956 758 1032 b 694 1220 758 1202 726 1220 b 633 1164 666 1220 641 1196 b 524 1072 620 1112 579 1072 b 409 1164 461 1072 418 1109 b 349 1220 403 1199 381 1220 b 286 1163 319 1220 286 1203 b 521 956 286 1034 412 956 z "},"":{"ha":1074,"x_min":0,"x_max":0,"o":"m 24 52 b 109 -20 24 5 60 -20 b 202 60 181 -20 191 21 l 202 60 b 309 332 217 105 258 210 b 337 333 318 332 328 332 b 674 334 466 338 570 334 b 749 332 707 332 734 332 b 854 94 782 256 814 184 b 626 -155 723 45 626 -68 b 833 -340 626 -308 736 -340 b 1038 -214 925 -340 1038 -290 b 970 -144 1038 -180 1007 -144 b 920 -163 954 -144 933 -150 b 826 -202 888 -195 860 -202 b 781 -142 806 -202 781 -183 b 905 -3 781 -83 848 -33 b 961 -20 920 -13 939 -20 b 1040 56 1005 -20 1040 1 b 998 149 1040 92 1013 129 l 985 168 b 635 930 861 437 758 689 b 616 981 630 941 623 961 b 524 1067 601 1029 588 1067 b 441 985 473 1067 448 1025 b 52 140 363 830 115 244 b 24 52 31 111 24 81 z m 370 479 b 520 829 424 606 479 736 b 684 477 591 677 642 568 b 370 479 484 479 408 479 z "},"":{"ha":1082,"x_min":0,"x_max":0,"o":"m 79 418 b 477 -8 79 174 243 -8 b 755 120 594 -8 699 50 b 763 68 756 103 758 85 b 610 -144 671 11 610 -74 b 817 -328 610 -296 720 -328 b 1029 -203 909 -328 1029 -278 b 960 -133 1029 -169 997 -133 b 909 -151 944 -133 923 -138 b 810 -191 878 -183 844 -191 b 766 -130 790 -191 766 -172 b 882 5 766 -74 828 -26 b 1014 48 928 13 971 33 b 1055 112 1046 59 1055 87 b 989 189 1055 147 1033 189 b 947 179 970 189 959 184 b 907 163 933 172 915 165 b 903 323 903 186 903 236 b 906 455 903 362 905 412 b 909 692 908 519 909 593 b 916 786 911 724 916 755 b 832 854 916 812 882 854 b 749 774 773 854 749 819 b 749 734 749 763 749 747 b 484 852 697 793 600 852 b 79 418 256 852 79 665 z m 235 418 b 488 710 235 581 340 710 b 756 448 646 710 736 558 l 756 388 b 482 138 734 269 635 138 b 235 418 326 138 235 271 z "},"":{"ha":1014,"x_min":0,"x_max":0,"o":"m 74 513 b 597 -20 74 231 264 -20 b 847 37 694 -20 808 15 l 847 37 b 928 132 904 64 928 95 b 852 203 928 186 895 203 b 781 168 825 203 808 191 b 591 127 753 149 671 127 b 226 534 414 127 226 233 b 583 921 226 804 413 921 b 746 895 633 921 682 922 b 831 861 770 878 806 861 b 913 944 867 861 913 880 b 821 1027 913 1000 865 1012 b 598 1067 749 1053 675 1067 b 74 513 346 1067 74 903 z m 632 1088 b 720 1140 672 1088 698 1115 b 743 1164 726 1147 736 1158 b 806 1223 781 1199 782 1204 b 842 1295 837 1248 841 1268 b 770 1363 842 1326 807 1363 b 698 1326 751 1363 726 1358 b 606 1238 677 1303 638 1265 b 554 1169 591 1232 554 1201 b 632 1088 554 1118 587 1088 z "},"":{"ha":939,"x_min":0,"x_max":0,"o":"m 77 410 b 495 -20 77 176 250 -20 b 800 90 597 -20 717 7 b 848 186 823 115 845 148 b 779 260 850 218 834 256 b 709 222 752 262 724 241 b 502 126 660 159 570 126 b 239 400 317 126 239 285 b 497 689 239 551 325 689 b 694 593 644 689 672 637 b 771 535 710 561 723 535 b 840 613 818 535 840 570 b 827 734 840 654 827 693 b 831 798 827 758 831 778 b 762 861 831 836 805 861 b 681 795 728 861 690 850 b 519 836 643 820 585 836 b 77 410 209 836 77 629 z m 498 958 b 574 994 519 958 541 964 b 719 1127 617 1036 678 1092 l 718 1126 b 770 1195 733 1132 770 1162 b 688 1276 770 1246 733 1276 b 597 1222 650 1276 630 1256 l 597 1223 l 524 1151 b 428 1026 488 1120 428 1069 b 498 958 428 994 462 958 z "},"":{"ha":1014,"x_min":0,"x_max":0,"o":"m 74 513 b 597 -20 74 231 264 -20 b 847 37 694 -20 808 15 l 847 37 b 928 132 904 64 928 95 b 852 203 928 186 895 203 b 781 168 825 203 808 191 b 591 127 753 149 671 127 b 226 534 414 127 226 233 b 583 921 226 804 413 921 b 746 895 633 921 682 922 b 831 861 770 878 806 861 b 913 944 867 861 913 880 b 821 1027 913 1000 865 1012 b 598 1067 749 1053 675 1067 b 74 513 346 1067 74 903 z m 471 1100 b 542 1127 508 1100 526 1113 b 640 1205 582 1164 604 1183 b 749 1118 680 1179 707 1154 b 813 1095 764 1107 795 1095 b 887 1156 855 1095 887 1118 b 823 1244 887 1193 871 1217 b 724 1321 801 1255 751 1295 b 642 1363 699 1347 674 1363 b 556 1326 612 1363 586 1355 b 457 1246 532 1303 490 1267 b 404 1156 419 1222 404 1193 b 471 1100 404 1126 429 1100 z "},"":{"ha":939,"x_min":0,"x_max":0,"o":"m 77 410 b 495 -20 77 176 250 -20 b 800 90 597 -20 717 7 b 848 186 823 115 845 148 b 779 260 850 218 834 256 b 709 222 752 262 724 241 b 502 126 660 159 570 126 b 239 400 317 126 239 285 b 497 689 239 551 325 689 b 694 593 644 689 672 637 b 771 535 710 561 723 535 b 840 613 818 535 840 570 b 827 734 840 654 827 693 b 831 798 827 758 831 778 b 762 861 831 836 805 861 b 681 795 728 861 690 850 b 519 836 643 820 585 836 b 77 410 209 836 77 629 z m 321 978 b 391 1006 357 978 377 992 b 526 1111 429 1042 492 1088 b 661 1001 567 1084 625 1035 b 725 977 675 987 707 977 b 800 1038 766 977 800 1000 b 736 1126 800 1074 777 1102 b 610 1228 712 1141 637 1201 b 528 1270 584 1253 559 1270 b 441 1234 497 1270 471 1262 b 304 1124 403 1196 370 1175 b 254 1042 267 1095 254 1080 b 321 978 254 1004 279 978 z "},"":{"ha":1014,"x_min":0,"x_max":0,"o":"m 74 513 b 597 -20 74 231 264 -20 b 847 37 694 -20 808 15 l 847 37 b 928 132 904 64 928 95 b 852 203 928 186 895 203 b 781 168 825 203 808 191 b 591 127 753 149 671 127 b 226 534 414 127 226 233 b 583 921 226 804 413 921 b 746 895 633 921 682 922 b 831 861 770 878 806 861 b 913 944 867 861 913 880 b 821 1027 913 1000 865 1012 b 598 1067 749 1053 675 1067 b 74 513 346 1067 74 903 z m 629 1131 b 710 1243 696 1131 710 1188 b 712 1271 711 1252 712 1263 b 638 1348 712 1314 692 1348 b 562 1265 589 1348 562 1310 b 576 1155 562 1223 555 1181 b 629 1131 589 1137 610 1131 z "},"":{"ha":939,"x_min":0,"x_max":0,"o":"m 77 410 b 495 -20 77 176 250 -20 b 800 90 597 -20 717 7 b 848 186 823 115 845 148 b 779 260 850 218 834 256 b 709 222 752 262 724 241 b 502 126 660 159 570 126 b 239 400 317 126 239 285 b 497 689 239 551 325 689 b 694 593 644 689 672 637 b 771 535 710 561 723 535 b 840 613 818 535 840 570 b 827 734 840 654 827 693 b 831 798 827 758 831 778 b 762 861 831 836 805 861 b 681 795 728 861 690 850 b 519 836 643 820 585 836 b 77 410 209 836 77 629 z m 528 924 b 582 941 549 924 570 930 b 609 1012 603 958 606 970 b 614 1064 611 1031 614 1047 b 536 1141 614 1110 589 1141 b 484 1124 518 1141 498 1136 b 457 1058 463 1108 457 1087 b 458 1002 457 1050 457 1036 b 471 948 457 982 457 965 b 528 924 484 930 507 924 z "},"":{"ha":1014,"x_min":0,"x_max":0,"o":"m 74 513 b 597 -20 74 231 264 -20 b 847 37 694 -20 808 15 l 847 37 b 928 132 904 64 928 95 b 852 203 928 186 895 203 b 781 168 825 203 808 191 b 591 127 753 149 671 127 b 226 534 414 127 226 233 b 583 921 226 804 413 921 b 746 895 633 921 682 922 b 831 861 770 878 806 861 b 913 944 867 861 913 880 b 821 1027 913 1000 865 1012 b 598 1067 749 1053 675 1067 b 74 513 346 1067 74 903 z m 633 1082 b 754 1159 669 1082 711 1120 b 831 1218 782 1183 808 1205 b 895 1296 870 1241 895 1259 b 821 1363 895 1333 862 1363 b 757 1339 803 1363 775 1363 b 633 1240 721 1304 674 1268 l 507 1333 b 437 1363 492 1348 473 1363 b 370 1298 394 1363 370 1336 b 412 1227 370 1263 382 1253 l 545 1118 b 633 1082 574 1090 603 1082 z "},"":{"ha":939,"x_min":0,"x_max":0,"o":"m 77 410 b 495 -20 77 176 250 -20 b 800 90 597 -20 717 7 b 848 186 823 115 845 148 b 779 260 850 218 834 256 b 709 222 752 262 724 241 b 502 126 660 159 570 126 b 239 400 317 126 239 285 b 497 689 239 551 325 689 b 694 593 644 689 672 637 b 771 535 710 561 723 535 b 840 613 818 535 840 570 b 827 734 840 654 827 693 b 831 798 827 758 831 778 b 762 861 831 836 805 861 b 681 795 728 861 690 850 b 519 836 643 820 585 836 b 77 410 209 836 77 629 z m 528 970 b 602 1002 564 970 581 985 b 735 1113 635 1031 713 1101 b 800 1202 779 1138 800 1165 b 725 1270 800 1240 766 1270 b 661 1245 707 1270 675 1260 b 526 1135 625 1211 568 1164 b 391 1240 482 1173 433 1202 b 321 1268 376 1254 357 1268 b 254 1205 279 1268 254 1242 b 304 1116 254 1167 268 1146 b 442 1008 353 1076 401 1046 b 528 970 471 979 498 970 z "},"":{"ha":1106,"x_min":0,"x_max":0,"o":"m 155 79 b 232 3 155 28 177 3 b 439 -13 304 3 372 -13 b 1012 564 879 -13 1012 333 b 474 1067 1012 823 874 1067 b 284 1057 410 1067 347 1057 b 205 1067 255 1057 231 1067 b 134 998 153 1067 134 1037 b 153 938 134 982 143 957 b 161 210 160 692 161 450 b 155 79 161 157 155 121 z m 307 149 l 302 910 b 449 916 344 913 414 916 b 856 528 711 916 856 829 b 448 137 856 413 784 137 b 307 149 421 137 345 139 z m 564 1082 b 684 1159 600 1082 642 1120 b 761 1218 712 1183 738 1205 b 825 1296 800 1241 825 1259 b 751 1363 825 1333 792 1363 b 687 1339 733 1363 705 1363 b 563 1240 651 1304 604 1268 l 437 1333 b 367 1363 422 1348 404 1363 b 300 1298 324 1363 300 1336 b 342 1227 300 1263 312 1253 l 475 1118 b 564 1082 504 1090 533 1082 z "},"":{"ha":1175,"x_min":0,"x_max":0,"o":"m 81 418 b 469 -8 81 180 235 -8 b 774 115 586 -8 702 41 b 857 1 787 46 814 1 b 939 35 878 1 908 19 b 1000 66 959 46 979 56 b 1047 136 1022 75 1047 98 b 977 208 1047 190 1008 212 b 921 186 957 206 940 197 l 909 179 b 904 382 905 219 904 294 b 909 1112 904 475 905 935 b 916 1147 913 1120 916 1131 b 854 1219 916 1191 892 1219 b 667 1216 785 1219 726 1215 b 629 1220 650 1220 637 1220 b 564 1147 592 1220 564 1194 b 634 1064 564 1095 602 1064 b 696 1071 656 1064 676 1071 l 754 1071 b 757 727 756 906 757 774 b 488 847 697 805 594 847 b 81 418 255 847 81 664 z m 232 418 b 493 700 232 587 342 700 b 755 468 621 700 727 599 b 756 345 755 432 756 419 b 481 138 728 218 600 138 b 232 418 326 138 232 276 z m 1055 770 b 1141 851 1099 770 1130 823 b 1178 1040 1166 924 1178 980 b 1106 1148 1178 1088 1174 1148 b 1027 1069 1043 1148 1027 1114 b 1028 1018 1027 1046 1028 1032 b 1004 890 1028 972 1030 924 b 985 836 994 876 985 858 b 1055 770 985 792 1019 770 z "},"":{"ha":1103,"x_min":0,"x_max":0,"o":"m 152 79 b 229 3 152 28 174 3 b 436 -13 300 3 368 -13 b 1008 564 876 -13 1008 333 b 471 1067 1008 823 871 1067 b 281 1057 406 1067 344 1057 b 201 1067 252 1057 227 1067 b 131 998 150 1067 131 1037 b 150 938 131 982 140 957 b 156 606 153 827 155 715 b 61 543 98 605 61 599 b 128 467 61 470 96 467 l 157 467 b 157 210 157 381 157 295 b 152 79 157 157 152 121 z m 303 149 l 301 465 b 520 462 375 463 448 462 b 587 533 560 462 587 481 b 515 612 587 595 541 612 b 467 605 498 612 483 605 b 300 606 458 605 435 605 l 299 910 b 446 916 340 913 411 916 b 852 528 707 916 852 829 b 444 137 852 413 781 137 b 303 149 418 137 341 139 z "},"":{"ha":1070,"x_min":0,"x_max":0,"o":"m 81 407 b 469 -20 81 169 235 -20 b 774 103 586 -20 702 30 b 857 -10 787 35 814 -10 b 939 24 878 -10 908 7 b 1000 55 959 35 979 45 b 1047 125 1022 64 1047 87 b 977 197 1047 178 1008 200 b 921 175 957 195 940 186 l 909 168 b 904 371 905 208 904 283 b 906 844 904 432 904 650 l 987 843 b 1053 909 1028 843 1053 857 b 987 973 1053 972 1013 973 b 935 966 968 973 951 966 l 907 966 l 909 1100 b 916 1136 913 1109 916 1120 b 854 1208 916 1179 892 1208 b 667 1204 785 1207 726 1204 b 629 1208 650 1208 637 1208 b 564 1135 592 1208 564 1182 b 634 1053 564 1084 602 1053 b 696 1059 656 1053 676 1059 l 754 1059 b 755 967 754 1027 755 996 l 680 968 b 600 913 622 968 600 946 b 669 847 600 863 636 847 l 756 846 b 757 715 757 785 757 739 b 488 836 697 793 594 836 b 81 407 255 836 81 652 z m 232 407 b 493 688 232 575 342 688 b 755 456 621 688 727 587 b 756 334 755 420 756 408 b 481 126 728 206 600 126 b 232 407 326 126 232 264 z "},"":{"ha":896,"x_min":0,"x_max":0,"o":"m 134 77 b 215 0 134 21 169 0 l 671 0 b 794 81 734 0 794 3 b 699 150 794 135 752 150 b 637 144 675 150 656 147 b 568 138 617 141 595 138 b 291 142 469 138 380 142 l 291 548 l 717 549 b 803 619 767 549 803 571 b 726 694 803 650 775 694 b 663 690 701 694 679 692 b 627 687 650 688 637 687 b 291 688 326 687 309 687 l 291 903 l 354 903 b 583 903 380 903 408 903 b 629 901 601 901 618 901 b 711 981 673 901 711 911 b 629 1054 711 1029 697 1054 b 580 1048 621 1054 596 1049 l 222 1048 b 134 958 179 1048 134 1047 l 150 146 l 144 125 b 134 77 140 111 134 92 z m 285 1108 b 655 1108 429 1112 568 1109 b 736 1178 696 1108 736 1118 b 653 1247 736 1245 697 1251 b 289 1240 578 1241 388 1240 b 194 1180 231 1240 194 1219 b 285 1108 194 1119 238 1107 z "},"":{"ha":951,"x_min":0,"x_max":0,"o":"m 242 306 b 798 428 433 350 615 382 b 870 505 839 438 870 465 b 844 572 870 529 861 557 b 503 836 811 727 677 836 b 77 395 261 836 77 663 b 474 -20 77 211 205 -20 b 812 111 625 -20 736 41 b 857 187 846 142 857 170 b 785 261 857 232 830 261 b 713 210 762 261 731 237 b 475 126 694 182 616 126 b 242 306 385 126 277 171 z m 231 431 b 498 689 244 586 345 689 b 704 535 597 689 673 619 b 231 431 542 496 383 467 z m 288 994 b 428 1000 338 994 382 1000 b 659 994 511 1000 585 994 b 740 1064 682 994 740 1004 b 656 1133 740 1131 701 1133 b 475 1121 593 1133 534 1121 b 292 1126 410 1121 351 1126 b 197 1065 235 1126 197 1105 b 288 994 197 1005 241 994 z "},"":{"ha":896,"x_min":0,"x_max":0,"o":"m 134 77 b 215 0 134 21 169 0 l 671 0 b 794 81 734 0 794 3 b 699 150 794 135 752 150 b 637 144 675 150 656 147 b 568 138 617 141 595 138 b 291 142 469 138 380 142 l 291 548 l 717 549 b 803 619 767 549 803 571 b 726 694 803 650 775 694 b 663 690 701 694 679 692 b 627 687 650 688 637 687 b 291 688 326 687 309 687 l 291 903 l 354 903 b 583 903 380 903 408 903 b 629 901 601 901 618 901 b 711 981 673 901 711 911 b 629 1054 711 1029 697 1054 b 580 1048 621 1054 596 1049 l 222 1048 b 134 958 179 1048 134 1047 l 150 146 l 144 125 b 134 77 140 111 134 92 z m 494 1100 b 728 1297 600 1100 728 1170 b 664 1358 728 1340 696 1358 b 606 1303 633 1358 611 1338 b 496 1217 597 1248 554 1217 b 381 1303 435 1217 391 1248 b 322 1358 376 1337 354 1358 b 259 1301 293 1358 259 1341 b 494 1100 259 1172 383 1100 z "},"":{"ha":951,"x_min":0,"x_max":0,"o":"m 242 306 b 798 428 433 350 615 382 b 870 505 839 438 870 465 b 844 572 870 529 861 557 b 503 836 811 727 677 836 b 77 395 261 836 77 663 b 474 -20 77 211 205 -20 b 812 111 625 -20 736 41 b 857 187 846 142 857 170 b 785 261 857 232 830 261 b 713 210 762 261 731 237 b 475 126 694 182 616 126 b 242 306 385 126 277 171 z m 231 431 b 498 689 244 586 345 689 b 704 535 597 689 673 619 b 231 431 542 496 383 467 z m 492 956 b 728 1158 599 956 728 1032 b 665 1220 728 1202 696 1220 b 604 1164 637 1220 612 1196 b 494 1072 591 1112 550 1072 b 380 1164 432 1072 389 1109 b 319 1220 374 1199 352 1220 b 256 1163 290 1220 256 1203 b 492 956 256 1034 382 956 z "},"":{"ha":896,"x_min":0,"x_max":0,"o":"m 134 77 b 215 0 134 21 169 0 l 671 0 b 794 81 734 0 794 3 b 699 150 794 135 752 150 b 637 144 675 150 656 147 b 568 138 617 141 595 138 b 291 142 469 138 380 142 l 291 548 l 717 549 b 803 619 767 549 803 571 b 726 694 803 650 775 694 b 663 690 701 694 679 692 b 627 687 650 688 637 687 b 291 688 326 687 309 687 l 291 903 l 354 903 b 583 903 380 903 408 903 b 629 901 601 901 618 901 b 711 981 673 901 711 911 b 629 1054 711 1029 697 1054 b 580 1048 621 1054 596 1049 l 222 1048 b 134 958 179 1048 134 1047 l 150 146 l 144 125 b 134 77 140 111 134 92 z m 475 1131 b 555 1243 542 1131 555 1188 b 557 1271 557 1252 557 1263 b 484 1348 557 1314 537 1348 b 408 1265 434 1348 408 1310 b 421 1155 408 1223 400 1181 b 475 1131 435 1137 456 1131 z "},"":{"ha":951,"x_min":0,"x_max":0,"o":"m 242 306 b 798 428 433 350 615 382 b 870 505 839 438 870 465 b 844 572 870 529 861 557 b 503 836 811 727 677 836 b 77 395 261 836 77 663 b 474 -20 77 211 205 -20 b 812 111 625 -20 736 41 b 857 187 846 142 857 170 b 785 261 857 232 830 261 b 713 210 762 261 731 237 b 475 126 694 182 616 126 b 242 306 385 126 277 171 z m 231 431 b 498 689 244 586 345 689 b 704 535 597 689 673 619 b 231 431 542 496 383 467 z m 478 924 b 532 941 500 924 521 930 b 559 1012 553 958 556 970 b 564 1064 562 1031 564 1047 b 486 1141 564 1110 540 1141 b 434 1124 469 1141 449 1136 b 408 1058 414 1108 408 1087 b 408 1002 408 1050 408 1036 b 421 948 408 982 408 965 b 478 924 435 930 458 924 z "},"":{"ha":896,"x_min":0,"x_max":0,"o":"m 134 77 b 215 0 134 21 169 0 l 472 0 b 408 -144 429 -39 408 -89 b 636 -328 408 -297 539 -328 b 813 -210 732 -328 813 -287 b 744 -140 813 -176 781 -140 b 630 -189 687 -140 692 -189 b 564 -130 609 -189 564 -170 b 692 0 564 -39 629 0 b 794 81 747 1 794 11 b 699 150 794 135 752 150 b 637 144 675 150 656 147 b 568 138 617 141 595 138 b 291 142 469 138 380 142 l 291 548 l 717 549 b 803 619 767 549 803 571 b 726 694 803 650 775 694 b 663 690 701 694 679 692 b 627 687 650 688 637 687 b 291 688 326 687 309 687 l 291 903 l 354 903 b 583 903 380 903 408 903 b 629 901 601 901 618 901 b 711 981 673 901 711 911 b 629 1054 711 1029 697 1054 b 580 1048 621 1054 596 1049 l 222 1048 b 134 958 179 1048 134 1047 l 150 146 l 144 125 b 134 77 140 111 134 92 z "},"":{"ha":951,"x_min":0,"x_max":0,"o":"m 242 306 b 798 428 433 350 615 382 b 870 505 839 438 870 465 b 844 572 870 529 861 557 b 503 836 811 727 677 836 b 77 395 261 836 77 663 b 474 -20 77 211 205 -20 l 481 -20 b 433 -148 450 -64 433 -109 b 619 -328 433 -258 527 -328 b 804 -214 713 -328 804 -290 b 735 -144 804 -180 772 -144 b 686 -163 720 -144 701 -150 b 623 -191 664 -182 654 -191 b 574 -127 605 -191 574 -175 b 652 12 574 -66 612 -22 b 812 111 718 36 770 73 b 857 187 846 142 857 170 b 785 261 857 232 830 261 b 713 210 762 261 731 237 b 475 126 694 182 616 126 b 242 306 385 126 277 171 z m 231 431 b 498 689 244 586 345 689 b 704 535 597 689 673 619 b 231 431 542 496 383 467 z "},"":{"ha":896,"x_min":0,"x_max":0,"o":"m 134 77 b 215 0 134 21 169 0 l 671 0 b 794 81 734 0 794 3 b 699 150 794 135 752 150 b 637 144 675 150 656 147 b 568 138 617 141 595 138 b 291 142 469 138 380 142 l 291 548 l 717 549 b 803 619 767 549 803 571 b 726 694 803 650 775 694 b 663 690 701 694 679 692 b 627 687 650 688 637 687 b 291 688 326 687 309 687 l 291 903 l 354 903 b 583 903 380 903 408 903 b 629 901 601 901 618 901 b 711 981 673 901 711 911 b 629 1054 711 1029 697 1054 b 580 1048 621 1054 596 1049 l 222 1048 b 134 958 179 1048 134 1047 l 150 146 l 144 125 b 134 77 140 111 134 92 z m 478 1082 b 599 1159 514 1082 556 1120 b 675 1218 627 1183 652 1205 b 740 1296 715 1241 740 1259 b 665 1363 740 1333 707 1363 b 602 1339 648 1363 620 1363 b 477 1240 566 1304 519 1268 l 352 1333 b 281 1363 337 1348 318 1363 b 214 1298 239 1363 214 1336 b 257 1227 214 1263 227 1253 l 390 1118 b 478 1082 418 1090 448 1082 z "},"":{"ha":951,"x_min":0,"x_max":0,"o":"m 242 306 b 798 428 433 350 615 382 b 870 505 839 438 870 465 b 844 572 870 529 861 557 b 503 836 811 727 677 836 b 77 395 261 836 77 663 b 474 -20 77 211 205 -20 b 812 111 625 -20 736 41 b 857 187 846 142 857 170 b 785 261 857 232 830 261 b 713 210 762 261 731 237 b 475 126 694 182 616 126 b 242 306 385 126 277 171 z m 231 431 b 498 689 244 586 345 689 b 704 535 597 689 673 619 b 231 431 542 496 383 467 z m 479 970 b 552 1002 514 970 531 985 b 686 1113 585 1031 663 1101 b 750 1202 730 1138 750 1165 b 675 1270 750 1240 717 1270 b 612 1245 658 1270 625 1260 b 477 1135 575 1211 518 1164 b 342 1240 433 1173 383 1202 b 271 1268 326 1254 308 1268 b 204 1205 229 1268 204 1242 b 255 1116 204 1167 218 1146 b 393 1008 304 1076 352 1046 b 479 970 422 979 448 970 z "},"":{"ha":1140,"x_min":0,"x_max":0,"o":"m 100 513 b 694 -14 100 231 309 -14 b 864 0 745 -14 812 0 b 982 107 926 0 981 3 b 987 517 982 361 985 460 b 989 570 987 536 989 553 b 905 640 989 612 958 640 b 819 570 840 640 819 597 b 826 468 819 532 826 500 b 831 139 829 376 831 317 b 715 132 791 132 747 132 b 255 539 492 132 255 222 b 593 919 255 810 445 919 b 878 872 667 919 807 909 b 907 866 886 868 901 866 b 972 951 941 866 972 901 b 913 1029 972 996 946 1017 b 627 1067 829 1063 706 1067 b 100 513 326 1067 100 883 z m 456 1100 b 527 1127 493 1100 511 1113 b 625 1205 567 1164 589 1183 b 734 1118 665 1179 692 1154 b 798 1095 749 1107 780 1095 b 872 1156 840 1095 872 1118 b 808 1244 872 1193 857 1217 b 709 1321 786 1255 736 1295 b 627 1363 684 1347 659 1363 b 541 1326 597 1363 571 1355 b 442 1246 517 1303 475 1267 b 389 1156 404 1222 389 1193 b 456 1100 389 1126 414 1100 z "},"":{"ha":1022,"x_min":0,"x_max":0,"o":"m 164 -173 b 494 -335 164 -260 359 -335 b 895 70 640 -335 895 -284 b 897 366 895 172 896 277 b 899 650 899 457 899 549 b 905 711 899 673 905 692 b 830 787 905 754 891 787 b 761 729 789 787 770 758 b 485 836 698 798 608 836 b 78 407 252 836 75 667 b 478 -20 81 163 245 -20 b 744 83 622 -20 696 25 b 745 41 744 69 745 54 b 498 -191 745 -112 606 -191 b 290 -104 388 -191 336 -146 b 235 -86 276 -93 250 -86 b 164 -173 193 -86 164 -131 z m 229 407 b 493 699 229 570 333 699 b 752 407 674 699 752 565 b 483 126 752 245 658 126 b 229 407 328 126 229 245 z m 294 978 b 364 1006 330 978 350 992 b 498 1111 402 1042 465 1088 b 634 1001 540 1084 597 1035 b 698 977 648 987 680 977 b 772 1038 739 977 772 1000 b 709 1126 772 1074 749 1102 b 583 1228 685 1141 610 1201 b 501 1270 557 1253 532 1270 b 414 1234 470 1270 444 1262 b 277 1124 376 1196 342 1175 b 227 1042 240 1095 227 1080 b 294 978 227 1004 252 978 z "},"":{"ha":1140,"x_min":0,"x_max":0,"o":"m 100 513 b 694 -14 100 231 309 -14 b 864 0 745 -14 812 0 b 982 107 926 0 981 3 b 987 517 982 361 985 460 b 989 570 987 536 989 553 b 905 640 989 612 958 640 b 819 570 840 640 819 597 b 826 468 819 532 826 500 b 831 139 829 376 831 317 b 715 132 791 132 747 132 b 255 539 492 132 255 222 b 593 919 255 810 445 919 b 878 872 667 919 807 909 b 907 866 886 868 901 866 b 972 951 941 866 972 901 b 913 1029 972 996 946 1017 b 627 1067 829 1063 706 1067 b 100 513 326 1067 100 883 z m 634 1100 b 869 1297 741 1100 869 1170 b 804 1358 869 1340 836 1358 b 746 1303 774 1358 751 1338 b 636 1217 737 1248 694 1217 b 522 1303 575 1217 531 1248 b 463 1358 516 1337 494 1358 b 399 1301 433 1358 399 1341 b 634 1100 399 1172 524 1100 z "},"":{"ha":1022,"x_min":0,"x_max":0,"o":"m 164 -173 b 494 -335 164 -260 359 -335 b 895 70 640 -335 895 -284 b 897 366 895 172 896 277 b 899 650 899 457 899 549 b 905 711 899 673 905 692 b 830 787 905 754 891 787 b 761 729 789 787 770 758 b 485 836 698 798 608 836 b 78 407 252 836 75 667 b 478 -20 81 163 245 -20 b 744 83 622 -20 696 25 b 745 41 744 69 745 54 b 498 -191 745 -112 606 -191 b 290 -104 388 -191 336 -146 b 235 -86 276 -93 250 -86 b 164 -173 193 -86 164 -131 z m 229 407 b 493 699 229 570 333 699 b 752 407 674 699 752 565 b 483 126 752 245 658 126 b 229 407 328 126 229 245 z m 514 956 b 751 1158 621 956 751 1032 b 688 1220 751 1202 719 1220 b 626 1164 659 1220 634 1196 b 517 1072 613 1112 572 1072 b 402 1164 454 1072 411 1109 b 342 1220 396 1199 374 1220 b 279 1163 313 1220 279 1203 b 514 956 279 1034 405 956 z "},"":{"ha":1140,"x_min":0,"x_max":0,"o":"m 100 513 b 694 -14 100 231 309 -14 b 864 0 745 -14 812 0 b 982 107 926 0 981 3 b 987 517 982 361 985 460 b 989 570 987 536 989 553 b 905 640 989 612 958 640 b 819 570 840 640 819 597 b 826 468 819 532 826 500 b 831 139 829 376 831 317 b 715 132 791 132 747 132 b 255 539 492 132 255 222 b 593 919 255 810 445 919 b 878 872 667 919 807 909 b 907 866 886 868 901 866 b 972 951 941 866 972 901 b 913 1029 972 996 946 1017 b 627 1067 829 1063 706 1067 b 100 513 326 1067 100 883 z m 614 1131 b 695 1243 682 1131 695 1188 b 697 1271 696 1252 697 1263 b 623 1348 697 1314 677 1348 b 547 1265 574 1348 547 1310 b 561 1155 547 1223 540 1181 b 614 1131 574 1137 595 1131 z "},"":{"ha":1022,"x_min":0,"x_max":0,"o":"m 164 -173 b 494 -335 164 -260 359 -335 b 895 70 640 -335 895 -284 b 897 366 895 172 896 277 b 899 650 899 457 899 549 b 905 711 899 673 905 692 b 830 787 905 754 891 787 b 761 729 789 787 770 758 b 485 836 698 798 608 836 b 78 407 252 836 75 667 b 478 -20 81 163 245 -20 b 744 83 622 -20 696 25 b 745 41 744 69 745 54 b 498 -191 745 -112 606 -191 b 290 -104 388 -191 336 -146 b 235 -86 276 -93 250 -86 b 164 -173 193 -86 164 -131 z m 229 407 b 493 699 229 570 333 699 b 752 407 674 699 752 565 b 483 126 752 245 658 126 b 229 407 328 126 229 245 z m 500 924 b 554 941 522 924 543 930 b 581 1012 575 958 578 970 b 586 1064 583 1031 586 1047 b 508 1141 586 1110 562 1141 b 456 1124 490 1141 471 1136 b 429 1058 435 1108 429 1087 b 430 1002 429 1050 429 1036 b 443 948 429 982 429 965 b 500 924 456 930 479 924 z "},"":{"ha":1140,"x_min":0,"x_max":0,"o":"m 100 513 b 694 -14 100 231 309 -14 b 864 0 745 -14 812 0 b 982 107 926 0 981 3 b 987 517 982 361 985 460 b 989 570 987 536 989 553 b 905 640 989 612 958 640 b 819 570 840 640 819 597 b 826 468 819 532 826 500 b 831 139 829 376 831 317 b 715 132 791 132 747 132 b 255 539 492 132 255 222 b 593 919 255 810 445 919 b 878 872 667 919 807 909 b 907 866 886 868 901 866 b 972 951 941 866 972 901 b 913 1029 972 996 946 1017 b 627 1067 829 1063 706 1067 b 100 513 326 1067 100 883 z m 598 -146 b 602 -201 598 -167 602 -184 b 551 -313 602 -254 551 -259 b 612 -373 551 -353 571 -373 b 756 -195 684 -373 756 -277 b 678 -71 756 -134 753 -71 b 598 -146 623 -71 598 -104 z "},"":{"ha":1022,"x_min":0,"x_max":0,"o":"m 164 -173 b 494 -335 164 -260 359 -335 b 895 70 640 -335 895 -284 b 897 366 895 172 896 277 b 899 650 899 457 899 549 b 905 711 899 673 905 692 b 830 787 905 754 891 787 b 761 729 789 787 770 758 b 485 836 698 798 608 836 b 78 407 252 836 75 667 b 478 -20 81 163 245 -20 b 744 83 622 -20 696 25 b 745 41 744 69 745 54 b 498 -191 745 -112 606 -191 b 290 -104 388 -191 336 -146 b 235 -86 276 -93 250 -86 b 164 -173 193 -86 164 -131 z m 229 407 b 493 699 229 570 333 699 b 752 407 674 699 752 565 b 483 126 752 245 658 126 b 229 407 328 126 229 245 z m 534 1006 b 530 1061 534 1027 530 1044 b 581 1173 530 1114 581 1119 b 520 1233 581 1213 561 1233 b 376 1055 448 1233 376 1137 b 454 931 376 994 379 931 b 534 1006 509 931 534 964 z "},"":{"ha":1069,"x_min":0,"x_max":0,"o":"m 149 50 b 236 -20 149 4 164 -20 b 316 50 300 -20 316 9 b 312 127 316 83 315 102 b 296 561 307 178 299 270 b 765 567 416 564 636 569 b 772 192 766 428 772 311 b 762 51 772 143 762 98 b 854 -20 762 5 782 -20 b 935 51 918 -20 935 10 b 930 96 935 67 932 81 b 914 376 924 132 914 194 b 913 782 914 534 913 658 b 921 995 915 858 921 926 b 861 1067 921 1022 905 1067 b 758 994 779 1067 758 1040 b 766 914 758 966 766 940 b 766 714 766 793 766 749 b 566 705 694 712 630 705 b 294 711 472 705 388 709 l 294 861 b 298 995 294 914 298 955 b 237 1067 298 1029 278 1067 b 134 994 155 1067 134 1040 b 144 914 134 964 144 939 b 153 191 153 279 153 236 b 149 50 153 140 149 96 z m 385 1100 b 456 1127 422 1100 441 1113 b 555 1205 496 1164 518 1183 b 664 1118 595 1179 621 1154 b 728 1095 679 1107 709 1095 b 802 1156 770 1095 802 1118 b 738 1244 802 1193 786 1217 b 639 1321 715 1255 665 1295 b 557 1363 613 1347 589 1363 b 471 1326 527 1363 500 1355 b 372 1246 446 1303 404 1267 b 319 1156 334 1222 319 1193 b 385 1100 319 1126 344 1100 z "},"":{"ha":1055,"x_min":0,"x_max":0,"o":"m 139 49 b 208 -20 139 5 155 -20 b 303 -1 226 -20 270 -9 b 357 10 321 2 339 7 b 413 81 389 17 413 49 b 338 152 413 127 387 154 b 309 144 326 151 317 148 b 294 140 297 140 295 140 b 294 545 292 278 292 412 b 538 689 353 618 448 689 b 753 420 693 689 753 591 b 671 137 753 317 718 203 b 636 57 652 113 636 81 b 718 -20 636 12 659 -20 b 924 31 753 -20 871 12 b 978 102 956 42 978 68 b 906 173 978 121 966 173 b 844 159 882 173 863 165 b 906 420 881 235 906 336 b 547 836 906 703 774 836 b 296 731 451 836 359 787 l 298 766 b 302 1139 300 905 302 1022 b 238 1208 302 1182 275 1208 b 183 1206 224 1208 203 1207 b 127 1203 165 1204 146 1203 b 85 1208 112 1203 99 1208 b 20 1135 50 1208 20 1183 b 92 1061 20 1081 59 1061 b 140 1065 113 1061 127 1066 b 149 187 144 815 149 347 b 142 100 149 152 145 123 b 139 49 140 83 139 65 z m 446 1075 b 517 1102 484 1075 502 1088 b 616 1180 557 1139 579 1158 b 725 1093 656 1154 682 1129 b 789 1070 740 1082 770 1070 b 863 1131 831 1070 863 1093 b 799 1219 863 1168 847 1192 b 700 1296 777 1230 726 1270 b 618 1338 674 1322 650 1338 b 532 1301 588 1338 562 1330 b 433 1221 507 1278 465 1242 b 380 1131 395 1197 380 1168 b 446 1075 380 1101 405 1075 z "},"":{"ha":1069,"x_min":0,"x_max":0,"o":"m 149 62 b 236 -8 149 16 164 -8 b 316 62 300 -8 316 21 b 312 138 316 94 315 114 b 296 425 307 190 299 302 b 765 431 416 427 636 433 b 772 203 765 351 772 267 b 762 62 772 155 762 109 b 854 -8 762 16 782 -8 b 935 62 918 -8 935 22 b 930 107 935 79 932 93 b 914 388 924 144 914 205 b 913 780 914 541 913 661 l 941 780 b 1019 848 1009 780 1019 806 b 918 913 1019 909 963 913 b 921 1006 920 944 921 975 b 861 1079 921 1034 905 1079 b 758 1005 779 1079 758 1052 b 766 926 758 977 766 951 l 766 907 b 294 908 505 907 371 907 b 298 1006 296 945 298 976 b 237 1079 298 1040 278 1079 b 134 1005 155 1079 134 1052 b 144 926 134 975 144 951 l 144 910 b 26 842 78 909 26 903 b 95 783 26 797 53 783 b 133 783 109 783 125 783 l 146 783 b 153 203 153 283 153 243 b 149 62 153 151 149 106 z m 294 575 l 294 783 b 766 783 522 784 673 784 b 766 578 766 690 766 601 b 566 570 694 576 630 570 b 294 575 472 570 388 572 z "},"":{"ha":1055,"x_min":0,"x_max":0,"o":"m 139 49 b 208 -20 139 5 155 -20 b 303 -1 226 -20 270 -9 b 357 10 321 2 339 7 b 413 81 389 17 413 49 b 338 152 413 127 387 154 b 309 144 326 151 317 148 b 294 140 297 140 295 140 b 294 545 292 278 292 412 b 538 689 353 618 448 689 b 753 420 693 689 753 591 b 671 137 753 317 718 203 b 636 57 652 113 636 81 b 718 -20 636 12 659 -20 b 924 31 753 -20 871 12 b 978 102 956 42 978 68 b 906 173 978 121 966 173 b 844 159 882 173 863 165 b 906 420 881 235 906 336 b 547 836 906 703 774 836 b 296 731 451 836 359 787 l 298 766 b 299 862 298 799 298 831 b 417 861 339 861 378 861 b 489 920 457 861 489 871 b 412 979 489 984 437 979 b 365 972 394 979 380 972 l 301 972 b 302 1139 302 1029 302 1084 b 238 1208 302 1182 275 1208 b 183 1206 224 1208 203 1207 b 127 1203 165 1204 146 1203 b 85 1208 112 1203 99 1208 b 20 1135 50 1208 20 1183 b 92 1061 20 1081 59 1061 b 140 1065 113 1061 127 1066 b 142 973 140 1037 141 1006 l 96 973 b -7 926 3 973 -7 962 b 48 865 -7 878 8 863 b 143 864 55 865 58 865 b 149 187 146 616 149 311 b 142 100 149 152 145 123 b 139 49 140 83 139 65 z "},"":{"ha":538,"x_min":0,"x_max":0,"o":"m 185 54 b 278 -20 185 7 206 -20 b 357 56 340 -20 357 12 b 354 94 357 68 356 80 l 354 93 b 342 657 345 217 342 450 b 345 937 342 772 343 859 b 351 983 347 953 351 967 b 285 1067 351 1034 326 1067 b 181 981 203 1067 181 1029 b 189 901 181 951 189 926 b 195 194 189 655 195 425 b 185 54 195 144 185 100 z m 54 1119 b 125 1183 102 1119 121 1151 b 170 1234 129 1206 149 1234 b 300 1133 208 1234 262 1154 b 402 1107 323 1119 368 1107 b 583 1270 527 1107 583 1192 b 509 1352 583 1329 549 1352 b 434 1281 452 1352 440 1312 b 389 1242 430 1261 410 1242 b 321 1288 365 1242 348 1263 b 163 1363 282 1322 235 1363 b -14 1204 62 1363 -14 1291 b 54 1119 -14 1151 12 1119 z "},"":{"ha":558,"x_min":0,"x_max":0,"o":"m 211 51 b 289 -20 211 7 236 -20 b 430 11 313 -20 375 -4 b 501 92 477 25 507 49 b 438 147 494 125 485 147 b 363 130 407 147 393 132 b 365 646 361 319 365 482 b 374 758 365 686 374 721 b 310 827 374 800 356 827 b 212 822 280 827 245 822 b 111 827 180 822 146 827 b 46 753 76 827 46 801 b 117 680 46 699 85 680 b 217 684 144 680 190 682 b 221 189 220 505 221 351 b 211 51 221 103 211 96 z m 36 967 b 102 1029 81 967 92 1000 b 145 1076 111 1052 118 1076 b 275 981 179 1076 241 1002 b 377 956 299 967 343 956 b 552 1124 502 956 552 1046 b 479 1202 552 1183 517 1202 b 408 1139 425 1202 415 1168 b 371 1097 404 1119 397 1097 b 296 1142 347 1097 323 1117 b 138 1217 257 1177 210 1217 b -33 1052 37 1217 -33 1139 b 36 967 -33 998 -7 967 z "},"":{"ha":538,"x_min":0,"x_max":0,"o":"m 185 54 b 278 -20 185 7 206 -20 b 357 56 340 -20 357 12 b 354 94 357 68 356 80 l 354 93 b 342 657 345 217 342 450 b 345 937 342 772 343 859 b 351 983 347 953 351 967 b 285 1067 351 1034 326 1067 b 181 981 203 1067 181 1029 b 189 901 181 951 189 926 b 195 194 189 655 195 425 b 185 54 195 144 185 100 z m 86 1108 b 456 1108 231 1112 369 1109 b 538 1178 497 1108 538 1118 b 454 1247 538 1245 498 1251 b 90 1240 379 1241 189 1240 b -5 1180 33 1240 -5 1219 b 86 1108 -5 1119 39 1107 z "},"":{"ha":558,"x_min":0,"x_max":0,"o":"m 211 51 b 289 -20 211 7 236 -20 b 430 11 313 -20 375 -4 b 501 92 477 25 507 49 b 438 147 494 125 485 147 b 363 130 407 147 393 132 b 365 646 361 319 365 482 b 374 758 365 686 374 721 b 310 827 374 800 356 827 b 212 822 280 827 245 822 b 111 827 180 822 146 827 b 46 753 76 827 46 801 b 117 680 46 699 85 680 b 217 684 144 680 190 682 b 221 189 220 505 221 351 b 211 51 221 103 211 96 z m 72 994 b 212 1000 121 994 166 1000 b 442 994 295 1000 369 994 b 524 1064 465 994 524 1004 b 440 1133 524 1131 484 1133 b 258 1121 377 1133 318 1121 b 76 1126 193 1121 134 1126 b -19 1065 18 1126 -19 1105 b 72 994 -19 1005 25 994 z "},"":{"ha":538,"x_min":0,"x_max":0,"o":"m 185 54 b 278 -20 185 7 206 -20 b 357 56 340 -20 357 12 b 354 94 357 68 356 80 l 354 93 b 342 657 345 217 342 450 b 345 937 342 772 343 859 b 351 983 347 953 351 967 b 285 1067 351 1034 326 1067 b 181 981 203 1067 181 1029 b 189 901 181 951 189 926 b 195 194 189 655 195 425 b 185 54 195 144 185 100 z m 295 1100 b 530 1297 401 1100 530 1170 b 465 1358 530 1340 497 1358 b 407 1303 435 1358 412 1338 b 297 1217 398 1248 355 1217 b 182 1303 236 1217 192 1248 b 123 1358 177 1337 155 1358 b 60 1301 94 1358 60 1341 b 295 1100 60 1172 184 1100 z "},"":{"ha":558,"x_min":0,"x_max":0,"o":"m 211 51 b 289 -20 211 7 236 -20 b 430 11 313 -20 375 -4 b 501 92 477 25 507 49 b 438 147 494 125 485 147 b 363 130 407 147 393 132 b 365 646 361 319 365 482 b 374 758 365 686 374 721 b 310 827 374 800 356 827 b 212 822 280 827 245 822 b 111 827 180 822 146 827 b 46 753 76 827 46 801 b 117 680 46 699 85 680 b 217 684 144 680 190 682 b 221 189 220 505 221 351 b 211 51 221 103 211 96 z m 275 956 b 512 1158 382 956 512 1032 b 449 1220 512 1202 480 1220 b 387 1164 420 1220 395 1196 b 278 1072 374 1112 334 1072 b 163 1164 216 1072 172 1109 b 103 1220 157 1199 136 1220 b 40 1163 74 1220 40 1203 b 275 956 40 1034 166 956 z "},"":{"ha":539,"x_min":0,"x_max":0,"o":"m 18 -129 b 212 -330 18 -258 111 -330 b 397 -216 306 -330 397 -294 b 328 -145 397 -178 370 -145 b 215 -191 277 -145 265 -191 b 168 -125 195 -191 168 -171 b 266 -19 168 -91 205 -41 b 278 -20 270 -20 274 -20 b 357 56 340 -20 357 12 b 354 94 357 68 356 80 l 354 93 b 342 657 345 217 342 450 b 345 937 342 772 343 859 b 351 983 347 953 351 967 b 285 1067 351 1034 326 1067 b 181 981 203 1067 181 1029 b 189 901 181 951 189 926 b 195 194 189 655 195 425 b 186 87 195 156 189 121 b 18 -129 77 30 18 -50 z "},"":{"ha":565,"x_min":0,"x_max":0,"o":"m 321 930 b 374 984 358 940 364 956 b 393 1031 379 998 383 1016 b 413 1090 406 1051 413 1071 b 409 1125 413 1099 412 1115 b 339 1170 401 1158 371 1170 b 261 1105 296 1170 270 1143 b 227 1000 252 1069 227 1036 b 321 930 227 949 275 918 z m 88 -142 b 294 -328 88 -269 195 -328 b 477 -214 387 -328 477 -292 b 410 -144 477 -176 445 -144 b 297 -191 365 -144 347 -191 b 235 -138 277 -191 235 -182 b 374 -5 235 -97 267 -34 b 436 11 398 1 414 5 b 507 92 483 25 513 49 b 444 147 500 125 491 147 b 363 130 413 147 393 132 b 365 646 361 319 365 482 b 374 758 365 686 374 721 b 310 827 374 800 356 827 b 212 822 280 827 245 822 b 111 827 180 822 146 827 b 46 753 76 827 46 801 b 117 680 46 699 85 680 b 217 684 144 680 190 682 b 221 189 220 505 221 351 b 211 51 221 103 211 96 l 211 47 b 88 -142 132 -3 88 -77 z "},"":{"ha":538,"x_min":0,"x_max":0,"o":"m 185 54 b 278 -20 185 7 206 -20 b 357 56 340 -20 357 12 b 354 94 357 68 356 80 l 354 93 b 342 657 345 217 342 450 b 345 937 342 772 343 859 b 351 983 347 953 351 967 b 285 1067 351 1034 326 1067 b 181 981 203 1067 181 1029 b 189 901 181 951 189 926 b 195 194 189 655 195 425 b 185 54 195 144 185 100 z m 276 1131 b 357 1243 343 1131 357 1188 b 359 1271 358 1252 359 1263 b 285 1348 359 1314 338 1348 b 209 1265 235 1348 209 1310 b 222 1155 209 1223 201 1181 b 276 1131 236 1137 257 1131 z "},"":{"ha":558,"x_min":0,"x_max":0,"o":"m 211 51 b 289 -20 211 7 236 -20 b 430 11 313 -20 375 -4 b 501 92 477 25 507 49 b 438 147 494 125 485 147 b 363 130 407 147 393 132 b 365 646 361 319 365 482 b 374 758 365 686 374 721 b 310 827 374 800 356 827 b 212 822 280 827 245 822 b 111 827 180 822 146 827 b 46 753 76 827 46 801 b 117 680 46 699 85 680 b 217 684 144 680 190 682 b 221 189 220 505 221 351 b 211 51 221 103 211 96 z "},"":{"ha":1023,"x_min":0,"x_max":0,"o":"m 149 235 b 490 -20 155 45 295 -20 b 850 408 766 -20 850 209 b 845 918 850 585 842 751 b 846 962 846 937 846 951 b 770 1054 846 1022 831 1054 b 687 985 724 1054 687 1036 b 694 891 687 943 692 918 b 699 437 694 849 699 838 b 488 124 699 222 618 124 b 305 216 376 124 312 153 b 315 289 302 242 315 264 b 235 364 315 343 274 364 b 142 297 191 364 142 350 b 149 235 143 274 149 255 z m 235 489 b 315 559 299 489 315 518 b 299 780 315 631 299 601 b 304 926 299 859 302 897 b 307 988 306 947 307 964 b 241 1051 307 1014 283 1051 b 138 973 160 1051 138 1020 b 153 696 138 865 153 797 b 142 559 153 648 142 604 b 235 489 142 512 163 489 z "},"":{"ha":1082,"x_min":0,"x_max":0,"o":"m 327 935 b 370 996 361 949 365 966 b 381 1044 373 1010 374 1029 b 399 1124 391 1067 401 1106 b 389 1159 397 1134 393 1149 b 313 1192 376 1190 345 1197 b 246 1116 271 1185 249 1156 b 222 988 243 1079 216 1023 b 327 935 230 938 283 915 z m 211 51 b 289 -20 211 7 236 -20 b 430 11 313 -20 375 -4 b 501 92 477 25 507 49 b 438 147 494 125 485 147 b 363 130 407 147 393 132 b 365 646 361 319 365 482 b 374 758 365 686 374 721 b 310 827 374 800 356 827 b 212 822 280 827 245 822 b 111 827 180 822 146 827 b 46 753 76 827 46 801 b 117 680 46 699 85 680 b 217 684 144 680 190 682 b 221 189 220 505 221 351 b 211 51 221 103 211 96 z m 867 935 b 910 996 901 949 904 966 b 921 1044 913 1010 914 1029 b 938 1124 930 1067 941 1106 b 929 1159 937 1134 933 1149 b 853 1192 916 1190 884 1197 b 786 1116 810 1185 789 1156 b 761 988 783 1079 755 1023 b 867 935 769 938 822 915 z m 597 -206 b 540 -275 562 -218 540 -238 b 620 -353 540 -333 575 -353 b 689 -326 641 -353 660 -347 b 900 -227 755 -300 821 -266 l 900 -227 b 943 -147 932 -213 943 -181 b 936 -33 940 -105 936 -69 b 930 653 932 310 930 452 b 937 755 930 690 937 722 b 867 825 937 781 932 825 b 740 823 817 825 779 823 b 669 826 705 821 696 826 b 603 753 633 826 603 800 b 675 680 603 697 643 680 b 776 685 685 680 731 682 b 788 36 784 539 788 275 b 790 -123 788 -22 789 -75 b 597 -206 675 -182 615 -201 z "},"":{"ha":994,"x_min":0,"x_max":0,"o":"m 85 303 b 467 -20 85 47 317 -20 b 821 390 743 -20 821 186 l 814 737 b 817 972 814 878 817 904 b 741 1067 817 1033 800 1067 b 656 995 694 1067 656 1047 b 668 734 656 904 668 878 l 668 420 b 465 126 668 201 595 126 b 239 297 346 126 239 182 b 262 424 239 342 262 381 b 186 500 262 478 229 500 b 85 303 90 500 85 371 z m 547 1100 b 618 1127 584 1100 602 1113 b 716 1205 658 1164 680 1183 b 825 1118 756 1179 783 1154 b 889 1095 840 1107 871 1095 b 963 1156 931 1095 963 1118 b 899 1244 963 1193 947 1217 b 800 1321 877 1255 827 1295 b 718 1363 774 1347 750 1363 b 632 1326 688 1363 662 1355 b 533 1246 608 1303 566 1267 b 480 1156 495 1222 480 1193 b 547 1100 480 1126 505 1100 z "},"":{"ha":517,"x_min":0,"x_max":0,"o":"m 32 -206 b -25 -275 -3 -218 -25 -238 b 55 -353 -25 -333 10 -353 b 124 -326 76 -353 95 -347 b 335 -227 190 -300 256 -266 l 335 -227 b 378 -147 367 -213 378 -181 b 371 -33 375 -105 371 -69 b 366 653 367 310 366 452 b 372 755 366 690 372 722 b 302 825 372 781 367 825 b 175 823 252 825 214 823 b 104 826 140 821 131 826 b 38 753 68 826 38 800 b 111 680 38 697 78 680 b 211 685 120 680 166 682 b 223 36 219 539 223 275 b 225 -123 223 -22 224 -75 b 32 -206 111 -182 50 -201 z m 55 978 b 125 1006 91 978 111 992 b 260 1111 163 1042 226 1088 b 395 1001 301 1084 359 1035 b 459 977 410 987 441 977 b 534 1038 500 977 534 1000 b 470 1126 534 1074 511 1102 b 344 1228 446 1141 372 1201 b 262 1270 318 1253 294 1270 b 175 1234 231 1270 205 1262 b 39 1124 137 1196 104 1175 b -12 1042 1 1095 -12 1080 b 55 978 -12 1004 13 978 z "},"":{"ha":960,"x_min":0,"x_max":0,"o":"m 138 63 b 213 -20 138 -6 189 -20 b 298 49 266 -20 298 2 b 294 111 298 67 297 85 b 293 381 294 184 293 280 l 293 457 b 561 212 397 430 493 315 b 819 -20 636 98 715 -20 b 943 61 876 -20 943 -14 b 841 128 943 128 878 128 b 692 284 795 128 745 202 b 389 555 623 391 509 522 b 786 892 524 669 658 778 b 861 994 823 913 861 938 b 783 1067 861 1046 825 1067 b 655 979 746 1067 675 1008 l 294 637 b 295 998 294 755 295 868 b 216 1067 295 1041 258 1067 b 134 981 161 1067 134 1042 b 138 63 136 674 138 369 z m 402 -146 b 406 -201 402 -167 406 -184 b 355 -313 406 -254 355 -259 b 416 -373 355 -353 375 -373 b 560 -195 488 -373 560 -277 b 482 -71 560 -134 557 -71 b 402 -146 427 -71 402 -104 z "},"":{"ha":1009,"x_min":0,"x_max":0,"o":"m 141 47 b 210 -20 141 3 157 -20 b 307 -2 243 -20 275 -5 b 415 80 355 3 415 12 b 340 151 415 125 389 151 b 296 140 324 151 309 144 b 293 323 294 292 293 307 l 291 410 b 578 694 334 557 455 694 b 721 581 668 694 721 665 b 578 422 721 484 626 441 b 547 426 568 425 559 426 b 462 352 496 426 462 399 b 564 280 462 298 496 280 b 645 166 612 280 627 227 b 826 -21 670 79 700 -21 b 985 69 895 -21 985 -9 b 915 146 985 117 954 146 b 842 133 889 146 866 133 b 787 226 814 133 798 188 b 717 349 774 273 755 317 b 879 593 799 389 879 472 b 616 836 879 740 790 836 b 291 654 471 836 358 747 b 295 973 292 742 293 851 b 304 1139 296 1062 302 1090 b 240 1208 304 1182 277 1208 b 130 1203 201 1208 165 1203 b 87 1208 114 1203 100 1208 b 22 1135 52 1208 22 1183 b 94 1061 22 1081 61 1061 b 142 1065 115 1061 131 1063 b 151 186 146 815 151 346 b 141 47 151 136 141 93 z m 480 -146 b 484 -201 480 -167 484 -184 b 433 -313 484 -254 433 -259 b 494 -373 433 -353 453 -373 b 638 -195 566 -373 638 -277 b 560 -71 638 -134 635 -71 b 480 -146 505 -71 480 -104 z "},"":{"ha":1000,"x_min":0,"x_max":0,"o":"m 145 47 b 214 -20 145 3 161 -20 b 311 -2 248 -20 279 -5 b 419 80 359 3 419 12 b 344 151 419 125 393 151 b 300 140 328 151 313 144 b 297 323 298 292 297 307 l 295 412 b 570 689 336 557 451 689 b 711 581 659 689 711 658 b 583 422 711 484 626 441 b 551 426 572 425 564 426 b 466 352 500 426 466 399 b 568 280 466 298 500 280 b 649 166 616 280 631 227 b 830 -21 674 79 704 -21 b 989 69 899 -21 989 -9 b 919 146 989 117 958 146 b 846 133 893 146 870 133 b 791 226 818 133 802 188 b 721 349 779 273 760 317 b 869 593 796 389 869 472 b 593 836 869 733 777 836 b 304 684 482 836 374 766 b 309 734 305 701 307 715 b 244 804 309 777 281 804 b 134 798 205 804 169 798 b 91 804 118 798 104 804 b 26 730 56 804 26 778 b 98 656 26 676 65 656 b 146 660 119 656 135 658 b 155 186 151 410 155 346 b 145 47 155 136 145 93 z "},"":{"ha":745,"x_min":0,"x_max":0,"o":"m 134 75 b 212 0 134 13 167 0 l 572 0 b 688 81 628 1 688 10 b 596 161 688 133 655 161 b 517 153 568 161 543 155 b 294 151 471 151 399 151 b 294 879 292 330 293 710 l 294 981 b 213 1066 294 1046 275 1066 b 136 965 157 1066 136 1034 l 146 155 b 134 75 146 126 134 102 z m 238 1088 b 326 1140 278 1088 304 1115 b 349 1164 332 1147 342 1158 b 412 1223 387 1199 388 1204 b 448 1295 443 1248 447 1268 b 376 1363 448 1326 413 1363 b 304 1326 357 1363 332 1358 b 212 1238 283 1303 244 1265 b 160 1169 197 1232 160 1201 b 238 1088 160 1118 193 1088 z "},"":{"ha":536,"x_min":0,"x_max":0,"o":"m 172 70 b 254 -20 172 29 196 -20 b 317 -8 273 -20 287 -18 l 385 9 b 465 83 436 22 465 42 b 394 157 465 133 441 157 b 321 141 378 157 357 152 l 321 853 b 337 959 322 890 337 923 b 273 1032 337 1008 311 1032 b 148 1027 217 1032 199 1027 b 52 1032 113 1027 83 1032 b -12 959 18 1032 -12 1006 b 59 885 -12 905 27 885 b 168 890 97 885 133 890 b 177 275 174 568 177 358 b 174 159 177 235 176 191 b 172 70 173 127 172 99 z m 253 1088 b 340 1139 293 1088 319 1114 b 364 1164 347 1147 357 1158 b 427 1223 401 1198 403 1203 b 463 1295 458 1247 462 1267 b 391 1362 463 1325 428 1362 b 319 1325 372 1362 347 1358 b 227 1238 298 1303 259 1264 b 175 1168 212 1232 175 1200 b 253 1088 175 1117 208 1088 z "},"":{"ha":745,"x_min":0,"x_max":0,"o":"m 134 75 b 212 0 134 13 167 0 l 572 0 b 688 81 628 1 688 10 b 596 161 688 133 655 161 b 517 153 568 161 543 155 b 294 151 471 151 399 151 b 294 879 292 330 293 710 l 294 981 b 213 1066 294 1046 275 1066 b 136 965 157 1066 136 1034 l 146 155 b 134 75 146 126 134 102 z m 330 -146 b 333 -201 330 -167 333 -184 b 283 -313 333 -254 283 -259 b 343 -373 283 -353 302 -373 b 488 -195 416 -373 488 -277 b 410 -71 488 -134 484 -71 b 330 -146 355 -71 330 -104 z "},"":{"ha":536,"x_min":0,"x_max":0,"o":"m 172 70 b 254 -20 172 29 196 -20 b 317 -8 273 -20 287 -18 l 385 9 b 465 83 436 22 465 42 b 394 157 465 133 441 157 b 321 141 378 157 357 152 l 321 1030 b 337 1135 322 1067 337 1100 b 273 1208 337 1185 311 1208 b 148 1203 217 1208 199 1203 b 52 1208 113 1203 83 1208 b -12 1135 18 1208 -12 1183 b 59 1061 -12 1081 27 1061 b 168 1067 97 1061 133 1066 b 177 275 174 745 177 358 b 174 159 177 235 176 191 b 172 70 173 127 172 99 z m 170 -146 b 173 -201 170 -167 173 -184 b 123 -313 173 -254 123 -259 b 183 -373 123 -353 142 -373 b 328 -195 256 -373 328 -277 b 250 -71 328 -134 324 -71 b 170 -146 195 -71 170 -104 z "},"":{"ha":745,"x_min":0,"x_max":0,"o":"m 134 87 b 211 12 134 24 166 12 l 571 12 b 687 92 627 12 687 22 b 595 172 687 144 654 172 b 517 165 567 172 542 167 b 293 163 470 163 398 163 b 293 890 292 342 292 722 l 293 992 b 212 1078 293 1057 275 1078 b 135 977 157 1078 136 1045 l 145 167 b 134 87 145 138 134 113 z m 513 770 b 599 851 557 770 588 823 b 636 1040 625 924 636 980 b 564 1148 636 1088 632 1148 b 485 1069 501 1148 485 1114 b 486 1018 485 1046 486 1032 b 463 890 486 972 488 924 b 444 836 452 876 444 858 b 513 770 444 792 477 770 z "},"":{"ha":559,"x_min":0,"x_max":0,"o":"m 172 81 b 254 -8 172 41 196 -8 b 317 3 273 -8 287 -6 l 385 21 b 465 94 436 33 465 54 b 394 169 465 144 441 169 b 321 153 378 169 357 163 l 321 1042 b 337 1147 322 1078 337 1112 b 273 1220 337 1196 311 1220 b 148 1215 217 1220 199 1215 b 52 1220 113 1215 83 1220 b -12 1147 18 1220 -12 1194 b 59 1073 -12 1093 27 1073 b 168 1078 97 1073 133 1078 b 177 287 174 756 177 370 b 174 170 177 247 176 203 b 172 81 173 139 172 111 z m 453 770 b 539 851 497 770 528 823 b 576 1040 565 924 576 980 b 505 1148 576 1088 572 1148 b 425 1069 441 1148 425 1114 b 427 1018 425 1046 427 1032 b 403 890 427 972 429 924 b 384 836 392 876 384 858 b 453 770 384 792 417 770 z "},"":{"ha":758,"x_min":0,"x_max":0,"o":"m 134 75 b 212 0 134 13 167 0 l 572 0 b 688 81 628 1 688 10 b 596 161 688 133 655 161 b 517 153 568 161 543 155 b 294 151 471 151 399 151 b 294 879 292 330 293 710 l 294 981 b 213 1066 294 1046 275 1066 b 136 965 157 1066 136 1034 l 146 155 b 134 75 146 126 134 102 z m 654 646 b 749 768 730 646 749 730 b 659 871 749 835 699 871 b 558 753 589 871 558 822 b 654 646 558 713 593 646 z "},"":{"ha":536,"x_min":0,"x_max":0,"o":"m 172 70 b 254 -20 172 29 196 -20 b 317 -8 273 -20 287 -18 l 385 9 b 465 83 436 22 465 42 b 394 157 465 133 441 157 b 321 141 378 157 357 152 l 321 1030 b 337 1135 322 1067 337 1100 b 273 1208 337 1185 311 1208 b 148 1203 217 1208 199 1203 b 52 1208 113 1203 83 1208 b -12 1135 18 1208 -12 1183 b 59 1061 -12 1081 27 1061 b 168 1067 97 1061 133 1066 b 177 275 174 745 177 358 b 174 159 177 235 176 191 b 172 70 173 127 172 99 z m 531 494 b 627 616 607 494 627 578 b 536 719 627 683 576 719 b 435 601 467 719 435 670 b 531 494 435 562 470 494 z "},"":{"ha":759,"x_min":0,"x_max":0,"o":"m 148 75 b 225 0 148 13 180 0 l 585 0 b 701 81 642 1 701 10 b 610 161 701 133 669 161 b 531 153 581 161 556 155 b 307 151 484 151 412 151 b 307 489 307 233 307 361 b 536 650 405 556 502 625 b 566 701 549 662 566 678 b 498 776 566 755 541 776 b 456 761 484 776 466 768 l 307 659 b 307 879 307 745 307 823 l 307 981 b 227 1066 307 1046 289 1066 b 149 965 171 1066 150 1034 l 154 555 l 41 478 b 14 431 26 465 14 448 b 90 345 14 385 52 345 b 156 381 127 345 144 368 l 157 381 l 159 155 b 148 75 159 126 148 102 z "},"":{"ha":536,"x_min":0,"x_max":0,"o":"m 173 94 b 254 4 173 53 197 4 b 318 16 274 4 288 6 l 386 33 b 466 106 437 45 466 66 b 395 181 466 157 441 181 b 321 165 378 181 358 176 l 321 570 b 417 660 369 614 393 636 b 519 788 476 718 519 760 b 447 864 518 848 460 864 b 402 844 429 864 412 854 b 321 769 375 819 349 793 l 321 1054 b 338 1159 323 1090 338 1124 b 273 1232 338 1208 311 1232 b 149 1227 218 1232 199 1227 b 53 1232 114 1227 84 1232 b -12 1159 18 1232 -12 1206 b 60 1085 -12 1105 28 1085 b 169 1090 98 1085 134 1090 b 175 640 171 942 174 780 b 11 488 119 591 63 541 b -7 445 -1 476 -7 460 b 71 359 -7 406 17 359 b 149 418 123 359 124 393 l 177 442 b 178 299 178 374 178 323 b 175 182 178 259 176 215 b 173 94 174 151 173 123 z "},"":{"ha":1169,"x_min":0,"x_max":0,"o":"m 138 43 b 220 -20 138 5 174 -20 b 301 69 289 -20 301 22 b 297 146 301 94 298 122 b 291 805 297 264 293 389 l 332 741 b 865 45 511 500 693 280 b 958 -20 878 9 908 -20 b 1034 72 1013 -20 1034 2 b 1029 174 1034 109 1029 141 l 1029 951 b 954 1067 1029 1004 1024 1067 b 869 980 900 1067 869 1053 b 883 262 869 907 883 844 b 337 978 762 441 448 811 b 258 1059 330 1002 301 1059 b 195 1039 237 1059 214 1054 b 135 960 153 1029 135 1004 b 140 905 135 941 137 926 b 150 420 150 764 150 564 b 146 110 150 308 148 208 b 138 43 146 112 138 81 z m 596 1088 b 684 1140 636 1088 662 1115 b 707 1164 690 1147 700 1158 b 770 1223 745 1199 746 1204 b 806 1295 801 1248 805 1268 b 734 1363 806 1326 771 1363 b 662 1326 715 1363 690 1358 b 570 1238 641 1303 602 1265 b 518 1169 555 1232 518 1201 b 596 1088 518 1118 551 1088 z "},"":{"ha":1100,"x_min":0,"x_max":0,"o":"m 192 50 b 261 -20 192 6 208 -20 b 326 -5 277 -20 296 -13 b 359 1 334 -2 346 -1 b 465 83 406 6 465 14 b 391 153 465 128 439 153 b 363 148 383 153 373 151 l 345 142 b 344 208 343 166 344 187 b 347 418 344 279 345 349 b 348 542 347 460 347 501 b 618 689 410 616 512 689 b 819 420 772 689 819 543 b 750 146 819 313 802 211 b 722 62 730 122 722 90 b 787 -20 722 26 744 -20 b 921 16 818 -21 831 -12 l 994 33 b 1049 111 1040 49 1049 85 b 973 180 1049 161 1023 184 b 920 167 960 178 940 173 b 974 420 951 243 974 340 b 627 836 974 682 856 836 b 354 722 509 836 416 781 b 356 762 355 735 356 751 b 292 831 356 806 328 831 b 236 829 277 831 256 830 b 180 826 218 827 199 826 b 138 831 165 826 152 831 b 73 758 102 831 73 806 b 144 684 73 704 112 684 b 193 688 166 684 182 686 b 199 387 199 399 199 393 b 201 189 201 320 201 260 b 195 100 201 153 198 125 b 192 50 193 84 192 66 z m 610 958 b 686 994 631 958 653 964 b 831 1127 729 1036 790 1092 l 830 1126 b 882 1195 845 1132 882 1162 b 800 1276 882 1246 845 1276 b 709 1222 762 1276 742 1256 l 709 1223 l 635 1151 b 540 1026 600 1120 540 1069 b 610 958 540 994 574 958 z "},"":{"ha":1169,"x_min":0,"x_max":0,"o":"m 138 43 b 220 -20 138 5 174 -20 b 301 69 289 -20 301 22 b 297 146 301 94 298 122 b 291 805 297 264 293 389 l 332 741 b 865 45 511 500 693 280 b 958 -20 878 9 908 -20 b 1034 72 1013 -20 1034 2 b 1029 174 1034 109 1029 141 l 1029 951 b 954 1067 1029 1004 1024 1067 b 869 980 900 1067 869 1053 b 883 262 869 907 883 844 b 337 978 762 441 448 811 b 258 1059 330 1002 301 1059 b 195 1039 237 1059 214 1054 b 135 960 153 1029 135 1004 b 140 905 135 941 137 926 b 150 420 150 764 150 564 b 146 110 150 308 148 208 b 138 43 146 112 138 81 z m 516 -146 b 519 -201 516 -167 519 -184 b 469 -313 519 -254 469 -259 b 530 -373 469 -353 489 -373 b 674 -195 602 -373 674 -277 b 596 -71 674 -134 671 -71 b 516 -146 541 -71 516 -104 z "},"":{"ha":1100,"x_min":0,"x_max":0,"o":"m 192 50 b 261 -20 192 6 208 -20 b 326 -5 277 -20 296 -13 b 359 1 334 -2 346 -1 b 465 83 406 6 465 14 b 391 153 465 128 439 153 b 363 148 383 153 373 151 l 345 142 b 344 208 343 166 344 187 b 347 418 344 279 345 349 b 348 542 347 460 347 501 b 618 689 410 616 512 689 b 819 420 772 689 819 543 b 750 146 819 313 802 211 b 722 62 730 122 722 90 b 787 -20 722 26 744 -20 b 921 16 818 -21 831 -12 l 994 33 b 1049 111 1040 49 1049 85 b 973 180 1049 161 1023 184 b 920 167 960 178 940 173 b 974 420 951 243 974 340 b 627 836 974 682 856 836 b 354 722 509 836 416 781 b 356 762 355 735 356 751 b 292 831 356 806 328 831 b 236 829 277 831 256 830 b 180 826 218 827 199 826 b 138 831 165 826 152 831 b 73 758 102 831 73 806 b 144 684 73 704 112 684 b 193 688 166 684 182 686 b 199 387 199 399 199 393 b 201 189 201 320 201 260 b 195 100 201 153 198 125 b 192 50 193 84 192 66 z m 507 -146 b 510 -201 507 -167 510 -184 b 460 -313 510 -254 460 -259 b 520 -373 460 -353 479 -373 b 665 -195 593 -373 665 -277 b 587 -71 665 -134 661 -71 b 507 -146 532 -71 507 -104 z "},"":{"ha":1169,"x_min":0,"x_max":0,"o":"m 138 43 b 220 -20 138 5 174 -20 b 301 69 289 -20 301 22 b 297 146 301 94 298 122 b 291 805 297 264 293 389 l 332 741 b 865 45 511 500 693 280 b 958 -20 878 9 908 -20 b 1034 72 1013 -20 1034 2 b 1029 174 1034 109 1029 141 l 1029 951 b 954 1067 1029 1004 1024 1067 b 869 980 900 1067 869 1053 b 883 262 869 907 883 844 b 337 978 762 441 448 811 b 258 1059 330 1002 301 1059 b 195 1039 237 1059 214 1054 b 135 960 153 1029 135 1004 b 140 905 135 941 137 926 b 150 420 150 764 150 564 b 146 110 150 308 148 208 b 138 43 146 112 138 81 z m 597 1082 b 718 1159 633 1082 675 1120 b 794 1218 745 1183 771 1205 b 859 1296 833 1241 859 1259 b 784 1363 859 1333 825 1363 b 720 1339 766 1363 739 1363 b 596 1240 684 1304 637 1268 l 471 1333 b 400 1363 456 1348 437 1363 b 333 1298 357 1363 333 1336 b 376 1227 333 1263 345 1253 l 509 1118 b 597 1082 537 1090 566 1082 z "},"":{"ha":1100,"x_min":0,"x_max":0,"o":"m 192 50 b 261 -20 192 6 208 -20 b 326 -5 277 -20 296 -13 b 359 1 334 -2 346 -1 b 465 83 406 6 465 14 b 391 153 465 128 439 153 b 363 148 383 153 373 151 l 345 142 b 344 208 343 166 344 187 b 347 418 344 279 345 349 b 348 542 347 460 347 501 b 618 689 410 616 512 689 b 819 420 772 689 819 543 b 750 146 819 313 802 211 b 722 62 730 122 722 90 b 787 -20 722 26 744 -20 b 921 16 818 -21 831 -12 l 994 33 b 1049 111 1040 49 1049 85 b 973 180 1049 161 1023 184 b 920 167 960 178 940 173 b 974 420 951 243 974 340 b 627 836 974 682 856 836 b 354 722 509 836 416 781 b 356 762 355 735 356 751 b 292 831 356 806 328 831 b 236 829 277 831 256 830 b 180 826 218 827 199 826 b 138 831 165 826 152 831 b 73 758 102 831 73 806 b 144 684 73 704 112 684 b 193 688 166 684 182 686 b 199 387 199 399 199 393 b 201 189 201 320 201 260 b 195 100 201 153 198 125 b 192 50 193 84 192 66 z m 641 970 b 714 1002 676 970 693 985 b 848 1113 747 1031 825 1101 b 912 1202 892 1138 912 1165 b 838 1270 912 1240 879 1270 b 774 1245 820 1270 787 1260 b 639 1135 737 1211 680 1164 b 504 1240 595 1173 545 1202 b 433 1268 488 1254 470 1268 b 366 1205 391 1268 366 1242 b 417 1116 366 1167 380 1146 b 555 1008 466 1076 514 1046 b 641 970 584 979 610 970 z "},"":{"ha":1259,"x_min":0,"x_max":0,"o":"m 178 49 b 260 -14 178 10 214 -14 b 341 75 329 -14 341 27 b 340 96 341 79 341 90 b 334 795 336 149 333 332 b 923 22 846 108 911 33 l 923 -88 b 832 -200 923 -198 875 -200 b 739 -158 798 -200 775 -158 b 661 -243 683 -158 661 -210 b 839 -351 661 -316 788 -351 b 1072 -97 984 -351 1072 -233 b 1071 -54 1072 -82 1072 -66 b 1069 868 1071 254 1069 562 l 1069 951 b 994 1067 1069 1004 1064 1067 b 909 979 940 1067 909 1053 l 924 279 b 377 982 770 496 531 774 b 298 1063 370 1006 341 1063 b 235 1042 278 1063 254 1058 b 175 964 193 1034 175 1008 b 180 909 175 945 177 930 b 190 420 190 768 190 564 b 182 115 190 315 190 214 b 178 49 182 101 178 77 z "},"":{"ha":1105,"x_min":0,"x_max":0,"o":"m 192 43 b 261 -24 192 -1 208 -24 b 317 -14 277 -24 296 -20 b 359 -6 334 -9 346 -7 b 466 76 406 -1 466 7 b 391 146 466 121 440 146 b 345 136 384 146 374 144 b 348 557 345 326 345 433 b 637 697 399 622 515 697 b 821 419 791 697 821 564 l 825 -131 b 748 -197 825 -173 789 -197 b 687 -174 722 -197 702 -184 b 642 -155 674 -165 658 -155 b 566 -240 587 -155 566 -207 b 741 -347 566 -312 663 -347 b 970 -142 857 -347 964 -260 l 969 420 b 640 840 969 671 869 840 b 355 732 525 840 423 789 b 356 762 355 742 357 751 b 292 831 356 806 328 831 b 181 826 251 831 216 826 b 138 831 166 826 152 831 b 73 758 102 831 73 806 b 144 684 73 704 112 684 b 197 688 166 684 186 686 b 201 182 203 441 201 297 b 195 94 201 146 198 117 b 192 43 193 77 192 60 z "},"":{"ha":1142,"x_min":0,"x_max":0,"o":"m 98 524 b 571 -20 98 219 283 -20 b 1044 524 860 -20 1044 219 b 576 1067 1044 846 880 1067 b 98 524 288 1067 98 846 z m 252 524 b 573 928 252 766 369 928 b 889 524 789 928 889 741 b 573 119 889 321 787 119 b 252 524 369 119 252 321 z m 392 1108 b 762 1108 536 1112 675 1109 b 844 1178 803 1108 844 1118 b 760 1247 844 1245 804 1251 b 396 1240 685 1241 495 1240 b 301 1180 338 1240 301 1219 b 392 1108 301 1119 345 1107 z "},"":{"ha":990,"x_min":0,"x_max":0,"o":"m 74 409 b 495 -20 74 151 267 -20 b 916 409 723 -20 916 151 b 495 836 916 644 750 836 b 74 409 262 836 74 644 z m 231 409 b 494 689 231 562 327 689 b 760 409 663 689 760 562 b 494 126 760 224 639 126 b 231 409 332 126 231 237 z m 307 994 b 447 1000 357 994 401 1000 b 677 994 530 1000 604 994 b 759 1064 701 994 759 1004 b 675 1133 759 1131 720 1133 b 494 1121 612 1133 553 1121 b 311 1126 429 1121 370 1126 b 216 1065 254 1126 216 1105 b 307 994 216 1005 260 994 z "},"":{"ha":1142,"x_min":0,"x_max":0,"o":"m 98 524 b 571 -20 98 219 283 -20 b 1044 524 860 -20 1044 219 b 576 1067 1044 846 880 1067 b 98 524 288 1067 98 846 z m 252 524 b 573 928 252 766 369 928 b 889 524 789 928 889 741 b 573 119 889 321 787 119 b 252 524 369 119 252 321 z m 601 1100 b 836 1297 707 1100 836 1170 b 771 1358 836 1340 803 1358 b 713 1303 741 1358 718 1338 b 603 1217 704 1248 661 1217 b 488 1303 542 1217 498 1248 b 429 1358 483 1337 461 1358 b 366 1301 400 1358 366 1341 b 601 1100 366 1172 490 1100 z "},"":{"ha":990,"x_min":0,"x_max":0,"o":"m 74 409 b 495 -20 74 151 267 -20 b 916 409 723 -20 916 151 b 495 836 916 644 750 836 b 74 409 262 836 74 644 z m 231 409 b 494 689 231 562 327 689 b 760 409 663 689 760 562 b 494 126 760 224 639 126 b 231 409 332 126 231 237 z m 511 956 b 747 1158 618 956 747 1032 b 684 1220 747 1202 715 1220 b 623 1164 656 1220 631 1196 b 513 1072 610 1112 569 1072 b 399 1164 451 1072 408 1109 b 338 1220 393 1199 371 1220 b 275 1163 309 1220 275 1203 b 511 956 275 1034 401 956 z "},"":{"ha":1142,"x_min":0,"x_max":0,"o":"m 98 524 b 571 -20 98 219 283 -20 b 1044 524 860 -20 1044 219 b 576 1067 1044 846 880 1067 b 98 524 288 1067 98 846 z m 252 524 b 573 928 252 766 369 928 b 889 524 789 928 889 741 b 573 119 889 321 787 119 b 252 524 369 119 252 321 z m 728 1082 b 857 1171 762 1081 816 1132 b 920 1226 881 1193 900 1211 b 968 1300 948 1250 968 1265 b 901 1363 968 1345 943 1363 b 810 1297 873 1363 847 1339 l 738 1231 b 674 1143 704 1199 674 1169 b 728 1082 674 1088 706 1082 z m 431 1076 b 551 1162 465 1077 513 1123 b 629 1234 581 1192 607 1211 b 663 1299 645 1249 665 1267 b 593 1360 663 1344 636 1361 b 505 1290 566 1360 538 1330 l 427 1214 b 374 1135 395 1183 373 1163 b 431 1076 375 1080 410 1076 z "},"":{"ha":990,"x_min":0,"x_max":0,"o":"m 74 409 b 495 -20 74 151 267 -20 b 916 409 723 -20 916 151 b 495 836 916 644 750 836 b 74 409 262 836 74 644 z m 231 409 b 494 689 231 562 327 689 b 760 409 663 689 760 562 b 494 126 760 224 639 126 b 231 409 332 126 231 237 z m 630 947 b 844 1117 671 947 778 1050 b 889 1192 863 1133 889 1157 b 821 1252 889 1230 863 1252 b 730 1186 794 1252 767 1227 l 633 1097 b 571 1008 596 1063 571 1036 b 630 947 571 954 608 947 z m 317 945 b 536 1120 357 945 430 1016 b 574 1192 553 1136 574 1158 b 505 1249 574 1230 548 1249 b 416 1181 477 1249 450 1223 l 319 1091 b 258 1005 286 1060 258 1032 b 317 945 258 950 296 945 z "},"":{"ha":1653,"x_min":0,"x_max":0,"o":"m 98 524 b 571 -20 98 219 283 -20 b 901 120 707 -20 819 33 b 892 77 897 106 892 90 b 973 0 892 21 927 0 l 1430 0 b 1552 81 1493 0 1552 3 b 1457 150 1552 135 1510 150 b 1396 144 1434 150 1415 147 b 1326 138 1375 141 1353 138 b 1049 142 1227 138 1138 142 l 1049 548 l 1475 549 b 1561 619 1525 549 1561 571 b 1485 694 1561 650 1533 694 b 1421 690 1459 694 1437 692 b 1385 687 1409 688 1395 687 b 1049 688 1084 687 1067 687 l 1049 903 l 1112 903 b 1341 903 1138 903 1166 903 b 1387 901 1359 901 1377 901 b 1469 981 1432 901 1469 911 b 1387 1054 1469 1029 1455 1054 b 1338 1048 1379 1054 1354 1049 l 981 1048 b 892 958 937 1048 892 1047 l 892 950 b 576 1067 815 1025 709 1067 b 98 524 288 1067 98 846 z m 252 524 b 573 928 252 766 369 928 b 889 524 789 928 889 741 b 573 119 889 321 787 119 b 252 524 369 119 252 321 z "},"":{"ha":1612,"x_min":0,"x_max":0,"o":"m 81 407 b 494 -18 81 149 266 -18 b 827 153 621 -18 752 60 b 1128 -20 882 57 983 -20 b 1511 196 1233 -20 1451 26 b 1513 211 1512 200 1513 203 b 1443 282 1513 237 1487 282 b 1375 240 1419 282 1392 267 b 1137 128 1337 182 1277 128 b 920 323 1048 128 951 174 b 1458 420 1103 362 1282 382 b 1531 496 1511 433 1531 458 b 1508 553 1531 517 1520 537 b 1166 833 1477 710 1348 833 b 834 648 1019 833 907 765 b 494 833 766 763 649 833 b 81 407 261 833 81 642 z m 233 407 b 497 689 233 559 328 689 b 755 407 661 689 755 559 b 497 130 755 222 638 130 b 233 407 334 130 233 235 z m 914 454 b 1162 688 930 607 1016 688 b 1360 547 1264 688 1329 631 b 914 454 1209 512 1061 487 z "},"":{"ha":1066,"x_min":0,"x_max":0,"o":"m 139 75 b 232 -20 139 20 178 -20 b 313 54 267 -20 313 2 b 298 178 313 96 300 136 l 298 277 b 399 275 330 277 373 276 b 500 275 424 275 477 275 b 797 -20 524 162 604 -20 b 1028 126 937 -20 1028 49 b 951 198 1028 168 1000 198 b 893 163 923 198 906 182 b 809 123 873 132 844 123 b 645 302 716 123 661 205 b 905 709 763 349 905 478 b 456 1059 905 954 728 1059 b 330 1052 410 1058 370 1052 b 206 1059 281 1052 243 1059 b 134 980 159 1059 134 1019 b 144 922 134 960 139 935 b 143 131 143 693 143 507 b 139 75 141 115 139 95 z m 298 422 b 292 741 293 534 292 618 b 294 916 292 809 292 846 b 441 918 349 916 395 918 b 745 715 540 918 745 912 b 445 418 745 564 690 418 b 298 422 433 418 345 420 z m 616 292 b 615 292 616 292 615 292 b 616 292 615 292 615 292 z m 615 292 b 614 292 615 292 614 292 b 615 292 614 292 615 292 z m 501 1088 b 589 1140 541 1088 567 1115 b 612 1164 595 1147 605 1158 b 675 1223 650 1199 651 1204 b 711 1295 706 1248 710 1268 b 639 1363 711 1326 676 1363 b 567 1326 621 1363 595 1358 b 475 1238 546 1303 507 1265 b 423 1169 460 1232 423 1201 b 501 1088 423 1118 456 1088 z "},"":{"ha":849,"x_min":0,"x_max":0,"o":"m 145 60 b 224 -20 145 9 182 -20 b 316 -7 243 -20 270 -16 b 380 4 345 -2 367 3 b 446 85 417 7 446 45 b 376 157 446 132 410 155 b 322 144 355 156 340 150 l 302 138 l 302 581 b 422 608 342 589 382 598 b 592 646 494 623 557 637 b 590 511 591 594 590 553 b 662 433 590 475 608 433 b 747 490 699 433 747 446 b 745 549 747 510 747 532 b 741 720 741 607 736 665 b 744 768 741 736 744 752 b 663 836 744 806 712 836 b 596 798 629 836 608 818 b 305 716 541 780 443 750 b 311 763 308 732 311 747 b 235 836 311 799 286 836 b 139 762 176 836 139 809 b 147 683 139 734 147 708 l 147 160 b 145 60 146 122 145 92 z m 331 958 b 407 994 351 958 374 964 b 551 1127 450 1036 511 1092 l 551 1126 b 603 1195 566 1132 603 1162 b 520 1276 603 1246 566 1276 b 429 1222 482 1276 463 1256 l 429 1223 l 356 1151 b 260 1026 320 1120 260 1069 b 331 958 260 994 294 958 z "},"":{"ha":1066,"x_min":0,"x_max":0,"o":"m 139 75 b 232 -20 139 20 178 -20 b 313 54 267 -20 313 2 b 298 178 313 96 300 136 l 298 277 b 399 275 330 277 373 276 b 500 275 424 275 477 275 b 797 -20 524 162 604 -20 b 1028 126 937 -20 1028 49 b 951 198 1028 168 1000 198 b 893 163 923 198 906 182 b 809 123 873 132 844 123 b 645 302 716 123 661 205 b 905 709 763 349 905 478 b 456 1059 905 954 728 1059 b 330 1052 410 1058 370 1052 b 206 1059 281 1052 243 1059 b 134 980 159 1059 134 1019 b 144 922 134 960 139 935 b 143 131 143 693 143 507 b 139 75 141 115 139 95 z m 298 422 b 292 741 293 534 292 618 b 294 916 292 809 292 846 b 441 918 349 916 395 918 b 745 715 540 918 745 912 b 445 418 745 564 690 418 b 298 422 433 418 345 420 z m 616 292 b 615 292 616 292 615 292 b 616 292 615 292 615 292 z m 615 292 b 614 292 615 292 614 292 b 615 292 614 292 615 292 z m 405 -146 b 408 -201 405 -167 408 -184 b 358 -313 408 -254 358 -259 b 418 -373 358 -353 378 -373 b 563 -195 491 -373 563 -277 b 485 -71 563 -134 559 -71 b 405 -146 430 -71 405 -104 z "},"":{"ha":849,"x_min":0,"x_max":0,"o":"m 145 60 b 224 -20 145 9 182 -20 b 316 -7 243 -20 270 -16 b 380 4 345 -2 367 3 b 446 85 417 7 446 45 b 376 157 446 132 410 155 b 322 144 355 156 340 150 l 302 138 l 302 581 b 422 608 342 589 382 598 b 592 646 494 623 557 637 b 590 511 591 594 590 553 b 662 433 590 475 608 433 b 747 490 699 433 747 446 b 745 549 747 510 747 532 b 741 720 741 607 736 665 b 744 768 741 736 744 752 b 663 836 744 806 712 836 b 596 798 629 836 608 818 b 305 716 541 780 443 750 b 311 763 308 732 311 747 b 235 836 311 799 286 836 b 139 762 176 836 139 809 b 147 683 139 734 147 708 l 147 160 b 145 60 146 122 145 92 z m 146 -146 b 150 -201 146 -167 150 -184 b 100 -313 150 -254 100 -259 b 160 -373 100 -353 119 -373 b 304 -195 233 -373 304 -277 b 227 -71 304 -134 301 -71 b 146 -146 172 -71 146 -104 z "},"":{"ha":1066,"x_min":0,"x_max":0,"o":"m 139 75 b 232 -20 139 20 178 -20 b 313 54 267 -20 313 2 b 298 178 313 96 300 136 l 298 277 b 399 275 330 277 373 276 b 500 275 424 275 477 275 b 797 -20 524 162 604 -20 b 1028 126 937 -20 1028 49 b 951 198 1028 168 1000 198 b 893 163 923 198 906 182 b 809 123 873 132 844 123 b 645 302 716 123 661 205 b 905 709 763 349 905 478 b 456 1059 905 954 728 1059 b 330 1052 410 1058 370 1052 b 206 1059 281 1052 243 1059 b 134 980 159 1059 134 1019 b 144 922 134 960 139 935 b 143 131 143 693 143 507 b 139 75 141 115 139 95 z m 298 422 b 292 741 293 534 292 618 b 294 916 292 809 292 846 b 441 918 349 916 395 918 b 745 715 540 918 745 912 b 445 418 745 564 690 418 b 298 422 433 418 345 420 z m 616 292 b 615 292 616 292 615 292 b 616 292 615 292 615 292 z m 615 292 b 614 292 615 292 614 292 b 615 292 614 292 615 292 z m 503 1082 b 623 1159 538 1082 581 1120 b 700 1218 651 1183 677 1205 b 764 1296 739 1241 764 1259 b 690 1363 764 1333 731 1363 b 626 1339 672 1363 644 1363 b 502 1240 590 1304 543 1268 l 376 1333 b 306 1363 361 1348 342 1363 b 239 1298 263 1363 239 1336 b 281 1227 239 1263 251 1253 l 414 1118 b 503 1082 443 1090 472 1082 z "},"":{"ha":849,"x_min":0,"x_max":0,"o":"m 145 60 b 224 -20 145 9 182 -20 b 316 -7 243 -20 270 -16 b 380 4 345 -2 367 3 b 446 85 417 7 446 45 b 376 157 446 132 410 155 b 322 144 355 156 340 150 l 302 138 l 302 581 b 422 608 342 589 382 598 b 592 646 494 623 557 637 b 590 511 591 594 590 553 b 662 433 590 475 608 433 b 747 490 699 433 747 446 b 745 549 747 510 747 532 b 741 720 741 607 736 665 b 744 768 741 736 744 752 b 663 836 744 806 712 836 b 596 798 629 836 608 818 b 305 716 541 780 443 750 b 311 763 308 732 311 747 b 235 836 311 799 286 836 b 139 762 176 836 139 809 b 147 683 139 734 147 708 l 147 160 b 145 60 146 122 145 92 z m 361 970 b 435 1002 397 970 414 985 b 568 1113 468 1031 546 1101 b 633 1202 612 1138 633 1165 b 558 1270 633 1240 600 1270 b 494 1245 541 1270 508 1260 b 359 1135 458 1211 401 1164 b 224 1240 315 1173 266 1202 b 154 1268 209 1254 191 1268 b 87 1205 112 1268 87 1242 b 138 1116 87 1167 101 1146 b 275 1008 186 1076 235 1046 b 361 970 304 979 331 970 z "},"":{"ha":918,"x_min":0,"x_max":0,"o":"m 104 243 b 460 -20 99 50 315 -20 b 819 267 630 -20 819 54 b 486 635 819 467 629 561 b 308 820 408 675 308 724 b 467 932 308 901 392 932 b 614 877 522 932 587 920 b 695 805 617 844 637 805 b 770 883 733 805 774 832 b 475 1067 755 1021 620 1067 b 154 819 313 1067 154 991 b 500 460 154 588 347 540 b 666 273 572 422 666 358 b 461 115 666 143 558 115 b 264 219 365 115 271 158 b 269 291 262 244 269 267 b 195 356 269 332 236 356 b 104 243 130 356 109 317 z m 492 1088 b 580 1140 532 1088 558 1115 b 604 1164 587 1147 596 1158 b 667 1223 641 1199 642 1204 b 702 1295 697 1248 701 1268 b 630 1363 702 1326 667 1363 b 558 1326 612 1363 587 1358 b 467 1238 537 1303 498 1265 b 414 1169 452 1232 414 1201 b 492 1088 414 1118 447 1088 z "},"":{"ha":847,"x_min":0,"x_max":0,"o":"m 83 176 b 433 -20 83 95 243 -20 b 768 221 568 -20 768 18 b 454 484 768 397 600 444 b 251 612 347 513 251 541 b 412 705 251 669 319 705 b 595 642 507 705 566 666 b 673 585 606 612 636 585 b 743 645 712 585 743 602 b 736 680 743 655 741 669 b 741 795 736 724 741 760 b 671 853 741 838 715 853 b 605 794 635 853 612 822 b 416 836 550 817 500 836 b 100 613 271 836 100 775 b 410 349 100 431 268 384 b 619 211 515 322 619 294 b 448 116 619 150 541 116 b 233 201 336 116 269 146 b 160 245 215 226 201 245 b 83 176 126 245 83 217 z m 397 958 b 473 994 417 958 439 964 b 617 1127 515 1036 576 1092 l 616 1126 b 669 1195 631 1132 669 1162 b 586 1276 669 1246 631 1276 b 495 1222 548 1276 528 1256 l 495 1223 l 422 1151 b 326 1026 386 1120 326 1069 b 397 958 326 994 360 958 z "},"":{"ha":918,"x_min":0,"x_max":0,"o":"m 104 243 b 460 -20 99 50 315 -20 b 819 267 630 -20 819 54 b 486 635 819 467 629 561 b 308 820 408 675 308 724 b 467 932 308 901 392 932 b 614 877 522 932 587 920 b 695 805 617 844 637 805 b 770 883 733 805 774 832 b 475 1067 755 1021 620 1067 b 154 819 313 1067 154 991 b 500 460 154 588 347 540 b 666 273 572 422 666 358 b 461 115 666 143 558 115 b 264 219 365 115 271 158 b 269 291 262 244 269 267 b 195 356 269 332 236 356 b 104 243 130 356 109 317 z m 331 1100 b 402 1127 368 1100 387 1113 b 500 1205 442 1164 464 1183 b 610 1118 541 1179 567 1154 b 673 1095 625 1107 655 1095 b 747 1156 715 1095 747 1118 b 684 1244 747 1193 732 1217 b 585 1321 661 1255 611 1295 b 503 1363 559 1347 534 1363 b 416 1326 473 1363 446 1355 b 317 1246 392 1303 350 1267 b 264 1156 279 1222 264 1193 b 331 1100 264 1126 290 1100 z "},"":{"ha":847,"x_min":0,"x_max":0,"o":"m 83 176 b 433 -20 83 95 243 -20 b 768 221 568 -20 768 18 b 454 484 768 397 600 444 b 251 612 347 513 251 541 b 412 705 251 669 319 705 b 595 642 507 705 566 666 b 673 585 606 612 636 585 b 743 645 712 585 743 602 b 736 680 743 655 741 669 b 741 795 736 724 741 760 b 671 853 741 838 715 853 b 605 794 635 853 612 822 b 416 836 550 817 500 836 b 100 613 271 836 100 775 b 410 349 100 431 268 384 b 619 211 515 322 619 294 b 448 116 619 150 541 116 b 233 201 336 116 269 146 b 160 245 215 226 201 245 b 83 176 126 245 83 217 z m 220 978 b 290 1006 256 978 276 992 b 425 1111 328 1042 391 1088 b 560 1001 466 1084 524 1035 b 624 977 574 987 606 977 b 699 1038 665 977 699 1000 b 635 1126 699 1074 675 1102 b 509 1228 611 1141 536 1201 b 427 1270 483 1253 458 1270 b 340 1234 396 1270 370 1262 b 203 1124 302 1196 269 1175 b 153 1042 166 1095 153 1080 b 220 978 153 1004 178 978 z "},"":{"ha":918,"x_min":0,"x_max":0,"o":"m 104 243 b 460 -20 99 50 315 -20 b 819 267 630 -20 819 54 b 486 635 819 467 629 561 b 308 820 408 675 308 724 b 467 932 308 901 392 932 b 614 877 522 932 587 920 b 695 805 617 844 637 805 b 770 883 733 805 774 832 b 475 1067 755 1021 620 1067 b 154 819 313 1067 154 991 b 500 460 154 588 347 540 b 666 273 572 422 666 358 b 461 115 666 143 558 115 b 264 219 365 115 271 158 b 269 291 262 244 269 267 b 195 356 269 332 236 356 b 104 243 130 356 109 317 z m 294 -211 b 219 -278 262 -211 219 -226 b 364 -370 219 -330 286 -370 b 580 -189 491 -370 580 -299 b 441 -35 580 -123 503 -35 b 384 -83 406 -35 384 -68 b 434 -195 382 -149 434 -130 b 377 -237 434 -224 413 -237 b 294 -211 346 -237 324 -211 z "},"":{"ha":847,"x_min":0,"x_max":0,"o":"m 83 176 b 433 -20 83 95 243 -20 b 768 221 568 -20 768 18 b 454 484 768 397 600 444 b 251 612 347 513 251 541 b 412 705 251 669 319 705 b 595 642 507 705 566 666 b 673 585 606 612 636 585 b 743 645 712 585 743 602 b 736 680 743 655 741 669 b 741 795 736 724 741 760 b 671 853 741 838 715 853 b 605 794 635 853 612 822 b 416 836 550 817 500 836 b 100 613 271 836 100 775 b 410 349 100 431 268 384 b 619 211 515 322 619 294 b 448 116 619 150 541 116 b 233 201 336 116 269 146 b 160 245 215 226 201 245 b 83 176 126 245 83 217 z m 262 -211 b 187 -278 230 -211 187 -226 b 332 -370 187 -330 254 -370 b 548 -189 459 -370 548 -299 b 409 -35 548 -123 471 -35 b 352 -83 374 -35 352 -68 b 402 -195 351 -149 402 -130 b 345 -237 402 -224 381 -237 b 262 -211 314 -237 292 -211 z "},"":{"ha":918,"x_min":0,"x_max":0,"o":"m 104 243 b 460 -20 99 50 315 -20 b 819 267 630 -20 819 54 b 486 635 819 467 629 561 b 308 820 408 675 308 724 b 467 932 308 901 392 932 b 614 877 522 932 587 920 b 695 805 617 844 637 805 b 770 883 733 805 774 832 b 475 1067 755 1021 620 1067 b 154 819 313 1067 154 991 b 500 460 154 588 347 540 b 666 273 572 422 666 358 b 461 115 666 143 558 115 b 264 219 365 115 271 158 b 269 291 262 244 269 267 b 195 356 269 332 236 356 b 104 243 130 356 109 317 z m 494 1082 b 614 1159 530 1082 572 1120 b 691 1218 642 1183 668 1205 b 755 1296 730 1241 755 1259 b 681 1363 755 1333 722 1363 b 617 1339 663 1363 635 1363 b 493 1240 581 1304 534 1268 l 368 1333 b 297 1363 353 1348 334 1363 b 230 1298 254 1363 230 1336 b 273 1227 230 1263 242 1253 l 406 1118 b 494 1082 434 1090 463 1082 z "},"":{"ha":847,"x_min":0,"x_max":0,"o":"m 83 176 b 433 -20 83 95 243 -20 b 768 221 568 -20 768 18 b 454 484 768 397 600 444 b 251 612 347 513 251 541 b 412 705 251 669 319 705 b 595 642 507 705 566 666 b 673 585 606 612 636 585 b 743 645 712 585 743 602 b 736 680 743 655 741 669 b 741 795 736 724 741 760 b 671 853 741 838 715 853 b 605 794 635 853 612 822 b 416 836 550 817 500 836 b 100 613 271 836 100 775 b 410 349 100 431 268 384 b 619 211 515 322 619 294 b 448 116 619 150 541 116 b 233 201 336 116 269 146 b 160 245 215 226 201 245 b 83 176 126 245 83 217 z m 427 970 b 500 1002 463 970 479 985 b 634 1113 534 1031 612 1101 b 699 1202 678 1138 699 1165 b 624 1270 699 1240 665 1270 b 560 1245 606 1270 574 1260 b 425 1135 524 1211 467 1164 b 290 1240 381 1173 332 1202 b 220 1268 275 1254 256 1268 b 153 1205 178 1268 153 1242 b 203 1116 153 1167 167 1146 b 341 1008 252 1076 300 1046 b 427 970 370 979 397 970 z "},"":{"ha":772,"x_min":0,"x_max":0,"o":"m 300 91 b 380 -20 300 42 297 -20 b 462 64 451 -20 462 25 b 457 130 462 89 457 109 l 459 895 l 634 895 b 677 891 649 895 663 891 b 745 972 715 892 745 928 b 663 1048 745 1031 700 1048 l 122 1048 b 27 977 55 1048 27 1031 b 92 894 27 938 48 894 b 302 895 172 894 239 895 z m 300 -146 b 304 -201 300 -167 304 -184 b 254 -313 304 -254 254 -259 b 314 -373 254 -353 273 -373 b 458 -195 387 -373 458 -277 b 380 -71 458 -134 455 -71 b 300 -146 326 -71 300 -104 z "},"":{"ha":678,"x_min":0,"x_max":0,"o":"m 191 52 b 272 -20 190 -6 239 -20 b 563 40 312 -22 482 24 b 636 117 614 51 636 93 b 565 199 636 166 609 199 b 505 180 543 199 521 189 b 342 140 450 158 417 154 l 338 675 l 420 676 b 506 671 450 675 478 671 b 577 750 566 671 577 707 b 511 828 577 807 546 828 b 476 827 503 828 487 828 b 467 827 473 827 470 827 b 336 823 442 826 407 825 l 336 873 b 346 989 336 913 346 951 b 264 1059 346 1048 308 1059 b 180 989 201 1059 180 1034 b 188 909 180 962 188 936 b 189 848 188 903 189 881 l 189 823 l 140 823 b 45 753 79 823 45 823 b 107 674 45 712 66 674 l 189 675 l 193 197 z m 277 -146 b 281 -201 277 -167 281 -184 b 231 -313 281 -254 231 -259 b 291 -373 231 -353 250 -373 b 435 -195 363 -373 435 -277 b 357 -71 435 -134 432 -71 b 277 -146 302 -71 277 -104 z "},"":{"ha":772,"x_min":0,"x_max":0,"o":"m 300 91 b 380 -20 300 42 297 -20 b 462 64 451 -20 462 25 b 457 130 462 89 457 109 l 459 895 l 634 895 b 677 891 649 895 663 891 b 745 972 715 892 745 928 b 663 1048 745 1031 700 1048 l 122 1048 b 27 977 55 1048 27 1031 b 92 894 27 938 48 894 b 302 895 172 894 239 895 z m 397 1082 b 518 1159 433 1082 475 1120 b 595 1218 546 1183 572 1205 b 659 1296 634 1241 659 1259 b 585 1363 659 1333 626 1363 b 521 1339 567 1363 539 1363 b 397 1240 485 1304 438 1268 l 271 1333 b 201 1363 256 1348 237 1363 b 134 1298 158 1363 134 1336 b 176 1227 134 1263 146 1253 l 309 1118 b 397 1082 338 1090 367 1082 z "},"":{"ha":686,"x_min":0,"x_max":0,"o":"m 191 52 b 272 -20 190 -6 239 -20 b 572 43 312 -22 492 27 b 646 120 624 54 646 96 b 574 202 646 168 619 202 b 515 183 553 202 531 191 b 341 138 460 161 416 152 l 338 675 l 375 676 b 462 671 406 675 434 671 b 533 750 522 671 533 707 b 467 828 533 807 502 828 b 432 827 458 828 442 828 b 422 827 429 827 426 827 b 336 824 400 826 382 825 l 336 873 b 346 989 336 913 346 951 b 264 1059 346 1048 308 1059 b 180 989 201 1059 180 1034 b 188 909 180 962 188 936 b 189 848 188 903 189 881 l 189 823 l 140 823 b 45 753 79 823 45 823 b 107 674 45 712 66 674 l 189 675 l 193 197 z m 622 770 b 708 851 666 770 697 823 b 745 1040 734 924 745 980 b 673 1148 745 1088 741 1148 b 594 1069 610 1148 594 1114 b 595 1018 594 1046 595 1032 b 572 890 595 972 597 924 b 553 836 561 876 553 858 b 622 770 553 792 586 770 z "},"":{"ha":772,"x_min":0,"x_max":0,"o":"m 300 91 b 380 -20 300 42 297 -20 b 462 64 451 -20 462 25 b 457 130 462 89 457 109 l 458 529 b 574 526 498 527 536 526 b 656 603 597 526 656 543 b 572 679 656 670 616 679 b 458 670 533 679 496 674 l 459 895 l 634 895 b 677 891 649 895 663 891 b 745 972 715 892 745 928 b 663 1048 745 1031 700 1048 l 122 1048 b 27 977 55 1048 27 1031 b 92 894 27 938 48 894 b 302 895 172 894 239 895 l 301 669 b 208 672 269 670 239 672 b 113 604 151 672 113 644 b 204 526 113 544 157 526 b 301 530 238 526 270 528 z "}}}
